<?xml version="1.0" encoding="UTF-8" standalone="no"?>
<svg width="1044px" height="124px" version="1.1" xmlns="http://www.w3.org/2000/svg" xmlns:xlink="http://www.w3.org/1999/xlink" overflow="visible" id="wl264nb">
   <desc>Engraved by Verovio 6.1.0[undefined]</desc>
   <defs>
      <g id="E050-wl264nb">
         <path transform="scale(1,-1)" d="M441 -245c-23 -4 -48 -6 -76 -6c-59 0 -102 7 -130 20c-88 42 -150 93 -187 154c-26 44 -43 103 -48 176c0 6 -1 13 -1 19c0 54 15 111 45 170c29 57 65 106 110 148s96 85 153 127c-3 16 -8 46 -13 92c-4 43 -5 73 -5 89c0 117 16 172 69 257c34 54 64 82 89 82 c21 0 43 -30 69 -92s39 -115 41 -159v-15c0 -109 -21 -162 -67 -241c-13 -20 -63 -90 -98 -118c-13 -9 -25 -19 -37 -29l31 -181c8 1 18 2 28 2c58 0 102 -12 133 -35c59 -43 92 -104 98 -184c1 -7 1 -15 1 -22c0 -123 -87 -209 -181 -248c8 -57 17 -110 25 -162 c5 -31 6 -58 6 -80c0 -30 -5 -53 -14 -70c-35 -64 -88 -99 -158 -103c-5 0 -11 -1 -16 -1c-37 0 -72 10 -108 27c-50 24 -77 59 -80 105v11c0 29 7 55 20 76c18 28 45 42 79 44h6c49 0 93 -42 97 -87v-9c0 -51 -34 -86 -105 -106c17 -24 51 -36 102 -36c62 0 116 43 140 85 c9 16 13 41 13 74c0 20 -1 42 -5 67c-8 53 -18 106 -26 159zM461 939c-95 0 -135 -175 -135 -286c0 -24 2 -48 5 -71c50 39 92 82 127 128c40 53 60 100 60 140v8c-4 53 -22 81 -55 81h-2zM406 119l54 -326c73 25 110 78 110 161c0 7 0 15 -1 23c-7 95 -57 142 -151 142h-12 zM382 117c-72 -2 -128 -47 -128 -120v-7c2 -46 43 -99 75 -115c-3 -2 -7 -5 -10 -10c-70 33 -116 88 -123 172v11c0 68 44 126 88 159c23 17 49 29 78 36l-29 170c-21 -13 -52 -37 -92 -73c-50 -44 -86 -84 -109 -119c-45 -69 -67 -130 -67 -182v-13c5 -68 35 -127 93 -176 s125 -73 203 -73c25 0 50 3 75 9c-19 111 -36 221 -54 331z" />
      </g>
      <g id="E260-wl264nb">
         <path transform="scale(1,-1)" d="M20 110c32 16 54 27 93 27c26 0 35 -3 54 -13c13 -7 24 -20 27 -38l4 -25c0 -28 -16 -57 -45 -89c-23 -25 -39 -44 -65 -68l-88 -79v644h20v-359zM90 106c-32 0 -48 -10 -70 -29v-194c31 31 54 59 71 84c21 32 32 59 32 84c0 9 1 16 1 20c0 14 -3 21 -11 30l-8 3z" />
      </g>
      <g id="E083-wl264nb">
         <path transform="scale(1,-1)" d="M208 250c97 0 177 -52 177 -116c0 -69 -40 -111 -118 -125c56 -5 125 -44 125 -116c0 -31 -10 -57 -31 -78c-19 -21 -45 -38 -78 -49l-50 -11c-15 -3 -36 -7 -55 -7c-50 0 -86 16 -113 38c-16 10 -23 18 -34 34c-7 13 -11 25 -11 38c0 43 27 83 68 83l3 -2 c61 0 75 -42 75 -70c0 -19 -24 -42 -26 -57c7 -17 20 -25 37 -25c44 0 94 29 94 78c0 75 -34 125 -138 125v36c84 0 131 22 131 98c0 54 -37 88 -87 88c-26 0 -43 -7 -51 -22c15 -22 44 -16 44 -70c0 -37 -37 -62 -71 -62c-22 0 -69 15 -69 76c0 79 101 116 178 116z" />
      </g>
      <g id="E084-wl264nb">
         <path transform="scale(1,-1)" d="M20 -78c84 97 114 180 134 329h170c-13 -32 -82 -132 -99 -151l-84 -97c-33 -36 -59 -63 -80 -81h162v102l127 123v-225h57v-39h-57v-34c0 -43 19 -65 57 -65v-34h-244v36c48 0 60 26 60 70v27h-203v39z" />
      </g>
      <g id="E4E6-wl264nb">
         <path transform="scale(1,-1)" d="M0 123c7 34 33 56 69 60c29 -3 43 -9 53 -29c4 -8 7 -15 10 -22c0 -21 -1 -25 -11 -35c-5 -8 -18 -14 -40 -20l12 -3l15 -1c44 0 97 26 122 56c10 11 18 26 24 42c7 1 15 2 22 3l-140 -424h-36l111 330c-10 -6 -27 -12 -53 -16l-52 -8h-10l-20 1c-1 0 -8 3 -21 6 c-37 9 -55 28 -55 60z" />
      </g>
      <g id="E0A4-wl264nb">
         <path transform="scale(1,-1)" d="M0 -39c0 68 73 172 200 172c66 0 114 -37 114 -95c0 -84 -106 -171 -218 -171c-64 0 -96 30 -96 94z" />
      </g>
      <g id="E241-wl264nb">
         <path transform="scale(1,-1)" d="M179 646c-4 8 -17 30 -18 33l-4 10c0 3 2 5 5 5s7 -2 13 -7c23 -33 46 -81 66 -132c22 -57 35 -125 35 -163c0 -104 -60 -183 -122 -241c-63 -59 -57 -53 -61 -56c-38 -34 -63 -95 -71 -95h-22v190c40 7 69 11 87 16c88 27 168 95 168 200c0 30 -12 89 -30 138 c-17 47 -31 73 -46 102z" />
      </g>
   </defs>
   <style type="text/css">#wl264nb g.ending, #wl264nb g.fing, #wl264nb g.reh, #wl264nb g.tempo {font-weight:bold;}#wl264nb g.dir, #wl264nb g.dynam, #wl264nb g.mNum {font-style:italic;}#wl264nb g.label {font-weight:normal;}#wl264nb ellipse, #wl264nb path, #wl264nb polygon, #wl264nb polyline, #wl264nb rect {stroke:currentColor}</style>
   <svg class="definition-scale" color="black" font-family="Times, serif" viewBox="0 0 16050 1900">
      <g class="page-margin" transform="translate(50, 50)">
         <g id="xaw1w2v" class="mdiv pageMilestone" />
         <g id="ynrspbb" class="score pageMilestone" />
         <g id="pop5dco" class="system">
            <g id="n1j64ghf" class="section systemMilestone" />
            <g id="ox24yjb" class="measure">
               <g id="x1pag4c3" class="staff">
                  <path d="M0 540 L4318 540" stroke-width="13" />
                  <path d="M0 720 L4318 720" stroke-width="13" />
                  <path d="M0 900 L4318 900" stroke-width="13" />
                  <path d="M0 1080 L4318 1080" stroke-width="13" />
                  <path d="M0 1260 L4318 1260" stroke-width="13" />
                  <g id="iykjns0" class="clef">
                     <use xlink:href="#E050-wl264nb" transform="translate(90, 1080) scale(0.72, 0.72)" />
                  </g>
                  <g id="j74vyw7" class="keySig">
                     <g id="k1st5uo6" class="keyAccid">
                        <use xlink:href="#E260-wl264nb" transform="translate(735, 900) scale(0.72, 0.72)" />
                     </g>
                  </g>
                  <g id="l1s26xa3" class="meterSig">
                     <use xlink:href="#E083-wl264nb" transform="translate(1049, 720) scale(0.72, 0.72)" />
                     <use xlink:href="#E084-wl264nb" transform="translate(1043, 1080) scale(0.72, 0.72)" />
                  </g>
                  <g id="y107kffm" class="layer">
                     <g id="z1l21rv6" class="rest">
                        <use xlink:href="#E4E6-wl264nb" transform="translate(1605, 900) scale(0.72, 0.72)" />
                     </g>
                     <g id="a1yofnwl" class="note">
                        <g class="notehead">
                           <use xlink:href="#E0A4-wl264nb" transform="translate(2055, 540) scale(0.72, 0.72)" />
                        </g>
                        <g id="n7ft8v9" class="stem">
                           <path d="M2064 568 L2064 1170" stroke-width="18" />
                           <g id="opk4hy8" class="flag">
                              <use xlink:href="#E241-wl264nb" transform="translate(2055, 1170) scale(0.72, 0.72)" />
                           </g>
                        </g>
                     </g>
                     <g id="bzq78ol" class="beam">
                        <polygon points="2505,1575 2973,1530 2973,1440 2505,1485" />
                        <g id="chmugrj" class="note">
                           <g class="notehead">
                              <use xlink:href="#E0A4-wl264nb" transform="translate(2505, 990) scale(0.72, 0.72)" />
                           </g>
                           <g id="pu1077r" class="stem">
                              <path d="M2514 1018 L2514 1557" stroke-width="18" />
                           </g>
                        </g>
                        <g id="d1g3nead" class="note">
                           <g class="notehead">
                              <use xlink:href="#E0A4-wl264nb" transform="translate(2955, 540) scale(0.72, 0.72)" />
                           </g>
                           <g id="q1046pft" class="stem">
                              <path d="M2964 568 L2964 1512" stroke-width="18" />
                           </g>
                        </g>
                     </g>
                     <g id="ehxk69a" class="beam">
                        <polygon points="3405,1665 3873,1620 3873,1530 3405,1575" />
                        <g id="fiogpny" class="note">
                           <g class="notehead">
                              <use xlink:href="#E0A4-wl264nb" transform="translate(3405, 1080) scale(0.72, 0.72)" />
                           </g>
                           <g id="r16jbn4u" class="stem">
                              <path d="M3414 1108 L3414 1647" stroke-width="18" />
                           </g>
                        </g>
                        <g id="g187n0r1" class="note">
                           <g class="notehead">
                              <use xlink:href="#E0A4-wl264nb" transform="translate(3855, 630) scale(0.72, 0.72)" />
                           </g>
                           <g id="s2tdzls" class="stem">
                              <path d="M3864 658 L3864 1602" stroke-width="18" />
                           </g>
                        </g>
                     </g>
                  </g>
               </g>
               <g id="hu6ihtg" class="tempo">
                  <text x="1043" y="315" font-size="0px">
                     <tspan id="i1hshscb" class="text">
                        <tspan font-size="405px">Allegro / Presto</tspan>
                     </tspan>
                  </text>
               </g>
               <g id="w13vvapa" class="barLine">
                  <path d="M4305 540 L4305 1260" stroke-width="27" />
               </g>
            </g>
            <g id="j4fnryg" class="measure">
               <g id="s1tr7zjm" class="staff">
                  <path d="M4318 540 L8135 540" stroke-width="13" />
                  <path d="M4318 720 L8135 720" stroke-width="13" />
                  <path d="M4318 900 L8135 900" stroke-width="13" />
                  <path d="M4318 1080 L8135 1080" stroke-width="13" />
                  <path d="M4318 1260 L8135 1260" stroke-width="13" />
                  <g id="t9r1hrp" class="layer">
                     <g id="u1nocivu" class="beam">
                        <polygon points="4498,1575 5282,1575 5282,1485 4498,1485" />
                        <polygon points="4957,1440 5282,1440 5282,1350 4957,1350" />
                        <g id="v1qo899y" class="note">
                           <g class="notehead">
                              <use xlink:href="#E0A4-wl264nb" transform="translate(4498, 540) scale(0.72, 0.72)" />
                           </g>
                           <g id="t18p7qwk" class="stem">
                              <path d="M4507 568 L4507 1557" stroke-width="18" />
                           </g>
                        </g>
                        <g id="w2nyi57" class="note">
                           <g class="notehead">
                              <use xlink:href="#E0A4-wl264nb" transform="translate(4948, 990) scale(0.72, 0.72)" />
                           </g>
                           <g id="u3u6fas" class="stem">
                              <path d="M4957 1018 L4957 1557" stroke-width="18" />
                           </g>
                        </g>
                        <g id="xesxplu" class="note">
                           <g class="notehead">
                              <use xlink:href="#E0A4-wl264nb" transform="translate(5264, 900) scale(0.72, 0.72)" />
                           </g>
                           <g id="v1uw4l1" class="stem">
                              <path d="M5273 928 L5273 1557" stroke-width="18" />
                           </g>
                           <g id="y17fazae" class="accid" />
                        </g>
                     </g>
                     <g id="z1m2ejc3" class="beam">
                        <polygon points="5580,1440 6546,1440 6546,1350 5580,1350" />
                        <polygon points="5580,1305 5905,1305 5905,1215 5580,1215" />
                        <polygon points="5905,1305 6221,1305 6221,1215 5905,1215" />
                        <polygon points="6221,1305 6546,1305 6546,1215 6221,1215" />
                        <g id="auptt53" class="note">
                           <g class="notehead">
                              <use xlink:href="#E0A4-wl264nb" transform="translate(5580, 810) scale(0.72, 0.72)" />
                           </g>
                           <g id="w11qv7bm" class="stem">
                              <path d="M5589 838 L5589 1422" stroke-width="18" />
                           </g>
                        </g>
                        <g id="b1en9w1e" class="note">
                           <g class="notehead">
                              <use xlink:href="#E0A4-wl264nb" transform="translate(5896, 810) scale(0.72, 0.72)" />
                           </g>
                           <g id="x55a920" class="stem">
                              <path d="M5905 838 L5905 1422" stroke-width="18" />
                           </g>
                        </g>
                        <g id="cqqzzg8" class="note">
                           <g class="notehead">
                              <use xlink:href="#E0A4-wl264nb" transform="translate(6212, 720) scale(0.72, 0.72)" />
                           </g>
                           <g id="y10147ed" class="stem">
                              <path d="M6221 748 L6221 1422" stroke-width="18" />
                           </g>
                        </g>
                        <g id="dru1fqq" class="note">
                           <g class="notehead">
                              <use xlink:href="#E0A4-wl264nb" transform="translate(6528, 810) scale(0.72, 0.72)" />
                           </g>
                           <g id="z9tl6w0" class="stem">
                              <path d="M6537 838 L6537 1422" stroke-width="18" />
                           </g>
                        </g>
                     </g>
                     <g id="eqp6ur1" class="beam">
                        <polygon points="6844,1485 7810,1485 7810,1395 6844,1395" />
                        <polygon points="6844,1350 7169,1350 7169,1260 6844,1260" />
                        <polygon points="7169,1350 7485,1350 7485,1260 7169,1260" />
                        <polygon points="7485,1350 7810,1350 7810,1260 7485,1260" />
                        <g id="f1ol5fqx" class="note">
                           <g class="notehead">
                              <use xlink:href="#E0A4-wl264nb" transform="translate(6844, 900) scale(0.72, 0.72)" />
                           </g>
                           <g id="aypduph" class="stem">
                              <path d="M6853 928 L6853 1467" stroke-width="18" />
                           </g>
                           <g id="g1wcnc6t" class="accid" />
                        </g>
                        <g id="hn9n6yp" class="note">
                           <g class="notehead">
                              <use xlink:href="#E0A4-wl264nb" transform="translate(7160, 900) scale(0.72, 0.72)" />
                           </g>
                           <g id="b1lt0ne" class="stem">
                              <path d="M7169 928 L7169 1467" stroke-width="18" />
                           </g>
                           <g id="i1dyx2t1" class="accid" />
                        </g>
                        <g id="j1y12hyj" class="note">
                           <g class="notehead">
                              <use xlink:href="#E0A4-wl264nb" transform="translate(7476, 810) scale(0.72, 0.72)" />
                           </g>
                           <g id="c1fk0mtn" class="stem">
                              <path d="M7485 838 L7485 1467" stroke-width="18" />
                           </g>
                        </g>
                        <g id="k188pnfc" class="note">
                           <g class="notehead">
                              <use xlink:href="#E0A4-wl264nb" transform="translate(7792, 900) scale(0.72, 0.72)" />
                           </g>
                           <g id="d1qkh230" class="stem">
                              <path d="M7801 928 L7801 1467" stroke-width="18" />
                           </g>
                           <g id="l1wx2j23" class="accid" />
                        </g>
                     </g>
                  </g>
               </g>
               <g id="raexi9t" class="barLine">
                  <path d="M8122 540 L8122 1260" stroke-width="27" />
               </g>
            </g>
            <g id="msxpad3" class="measure">
               <g id="v15z46pa" class="staff">
                  <path d="M8135 540 L11952 540" stroke-width="13" />
                  <path d="M8135 720 L11952 720" stroke-width="13" />
                  <path d="M8135 900 L11952 900" stroke-width="13" />
                  <path d="M8135 1080 L11952 1080" stroke-width="13" />
                  <path d="M8135 1260 L11952 1260" stroke-width="13" />
                  <g class="ledgerLines above">
                     <path d="M9349 360 L9671 360" stroke-width="22" />
                  </g>
                  <g id="wluft9b" class="layer">
                     <g id="x1insd0c" class="beam">
                        <polygon points="8315,1530 9099,1350 9099,1260 8315,1440" />
                        <polygon points="8774,1290 9099,1215 9099,1125 8774,1200" />
                        <g id="yr7oli7" class="note">
                           <g class="notehead">
                              <use xlink:href="#E0A4-wl264nb" transform="translate(8315, 990) scale(0.72, 0.72)" />
                           </g>
                           <g id="eomoaqv" class="stem">
                              <path d="M8324 1018 L8324 1512" stroke-width="18" />
                           </g>
                        </g>
                        <g id="zk81uce" class="note">
                           <g class="notehead">
                              <use xlink:href="#E0A4-wl264nb" transform="translate(8765, 540) scale(0.72, 0.72)" />
                           </g>
                           <g id="f16ekkix" class="stem">
                              <path d="M8774 568 L8774 1407" stroke-width="18" />
                           </g>
                        </g>
                        <g id="a1d4fgvk" class="note">
                           <g class="notehead">
                              <use xlink:href="#E0A4-wl264nb" transform="translate(9081, 450) scale(0.72, 0.72)" />
                           </g>
                           <g id="gz6wa00" class="stem">
                              <path d="M9090 478 L9090 1332" stroke-width="18" />
                           </g>
                        </g>
                     </g>
                     <g id="b13fqgdc" class="beam">
                        <polygon points="9397,1260 10363,1260 10363,1170 9397,1170" />
                        <polygon points="9397,1125 9722,1125 9722,1035 9397,1035" />
                        <polygon points="9722,1125 10038,1125 10038,1035 9722,1035" />
                        <polygon points="10038,1125 10363,1125 10363,1035 10038,1035" />
                        <g id="cxbqy3s" class="note">
                           <g class="notehead">
                              <use xlink:href="#E0A4-wl264nb" transform="translate(9397, 360) scale(0.72, 0.72)" />
                           </g>
                           <g id="h1bb6141" class="stem">
                              <path d="M9406 388 L9406 1242" stroke-width="18" />
                           </g>
                        </g>
                        <g id="dkyciiq" class="note">
                           <g class="notehead">
                              <use xlink:href="#E0A4-wl264nb" transform="translate(9713, 540) scale(0.72, 0.72)" />
                           </g>
                           <g id="ibbrppi" class="stem">
                              <path d="M9722 568 L9722 1242" stroke-width="18" />
                           </g>
                        </g>
                        <g id="ea4w0u4" class="note">
                           <g class="notehead">
                              <use xlink:href="#E0A4-wl264nb" transform="translate(10029, 630) scale(0.72, 0.72)" />
                           </g>
                           <g id="j1mntu0n" class="stem">
                              <path d="M10038 658 L10038 1242" stroke-width="18" />
                           </g>
                        </g>
                        <g id="f1pq5xse" class="note">
                           <g class="notehead">
                              <use xlink:href="#E0A4-wl264nb" transform="translate(10345, 540) scale(0.72, 0.72)" />
                           </g>
                           <g id="kjors6e" class="stem">
                              <path d="M10354 568 L10354 1242" stroke-width="18" />
                           </g>
                        </g>
                     </g>
                     <g id="g1pui8ag" class="beam">
                        <polygon points="10661,1125 11627,1305 11627,1215 10661,1035" />
                        <polygon points="10661,990 10986,1050 10986,960 10661,900" />
                        <polygon points="10986,1050 11302,1110 11302,1020 10986,960" />
                        <polygon points="11302,1110 11627,1170 11627,1080 11302,1020" />
                        <g id="h9edf1i" class="note">
                           <g class="notehead">
                              <use xlink:href="#E0A4-wl264nb" transform="translate(10661, 450) scale(0.72, 0.72)" />
                           </g>
                           <g id="ljh8xn9" class="stem">
                              <path d="M10670 478 L10670 1107" stroke-width="18" />
                           </g>
                        </g>
                        <g id="iz4lmhf" class="note">
                           <g class="notehead">
                              <use xlink:href="#E0A4-wl264nb" transform="translate(10977, 540) scale(0.72, 0.72)" />
                           </g>
                           <g id="m11gyh1m" class="stem">
                              <path d="M10986 568 L10986 1167" stroke-width="18" />
                           </g>
                        </g>
                        <g id="j1c1yjcv" class="note">
                           <g class="notehead">
                              <use xlink:href="#E0A4-wl264nb" transform="translate(11293, 630) scale(0.72, 0.72)" />
                           </g>
                           <g id="nsha0yu" class="stem">
                              <path d="M11302 658 L11302 1227" stroke-width="18" />
                           </g>
                        </g>
                        <g id="ki5so9r" class="note">
                           <g class="notehead">
                              <use xlink:href="#E0A4-wl264nb" transform="translate(11609, 720) scale(0.72, 0.72)" />
                           </g>
                           <g id="o1cube4n" class="stem">
                              <path d="M11618 748 L11618 1287" stroke-width="18" />
                           </g>
                        </g>
                     </g>
                  </g>
               </g>
               <g id="u3who1h" class="barLine">
                  <path d="M11939 540 L11939 1260" stroke-width="27" />
               </g>
            </g>
            <g id="l1v0hg5l" class="measure">
               <g id="u13et7vr" class="staff">
                  <path d="M11952 540 L15951 540" stroke-width="13" />
                  <path d="M11952 720 L15951 720" stroke-width="13" />
                  <path d="M11952 900 L15951 900" stroke-width="13" />
                  <path d="M11952 1080 L15951 1080" stroke-width="13" />
                  <path d="M11952 1260 L15951 1260" stroke-width="13" />
                  <g id="v1t5pdpq" class="layer">
                     <g id="w1rmmw66" class="beam">
                        <polygon points="12132,1440 13098,1260 13098,1170 12132,1350" />
                        <polygon points="12132,1305 12457,1245 12457,1155 12132,1215" />
                        <polygon points="12457,1245 12773,1185 12773,1095 12457,1155" />
                        <polygon points="12773,1185 13098,1125 13098,1035 12773,1095" />
                        <g id="xuuge7z" class="note">
                           <g class="notehead">
                              <use xlink:href="#E0A4-wl264nb" transform="translate(12132, 810) scale(0.72, 0.72)" />
                           </g>
                           <g id="pdi6e38" class="stem">
                              <path d="M12141 838 L12141 1422" stroke-width="18" />
                           </g>
                        </g>
                        <g id="yj5n829" class="note">
                           <g class="notehead">
                              <use xlink:href="#E0A4-wl264nb" transform="translate(12448, 540) scale(0.72, 0.72)" />
                           </g>
                           <g id="q1ryno8p" class="stem">
                              <path d="M12457 568 L12457 1362" stroke-width="18" />
                           </g>
                        </g>
                        <g id="z1sl83nl" class="note">
                           <g class="notehead">
                              <use xlink:href="#E0A4-wl264nb" transform="translate(12764, 630) scale(0.72, 0.72)" />
                           </g>
                           <g id="r1mu51e" class="stem">
                              <path d="M12773 658 L12773 1302" stroke-width="18" />
                           </g>
                        </g>
                        <g id="a15nyzwz" class="note">
                           <g class="notehead">
                              <use xlink:href="#E0A4-wl264nb" transform="translate(13080, 540) scale(0.72, 0.72)" />
                           </g>
                           <g id="s1g3es4e" class="stem">
                              <path d="M13089 568 L13089 1242" stroke-width="18" />
                           </g>
                        </g>
                     </g>
                     <g id="bpbcjgj" class="beam">
                        <polygon points="13396,1440 14362,1260 14362,1170 13396,1350" />
                        <polygon points="13396,1305 13721,1245 13721,1155 13396,1215" />
                        <polygon points="13721,1245 14037,1185 14037,1095 13721,1155" />
                        <polygon points="14037,1185 14362,1125 14362,1035 14037,1095" />
                        <g id="ctg0iev" class="note">
                           <g class="notehead">
                              <use xlink:href="#E0A4-wl264nb" transform="translate(13396, 810) scale(0.72, 0.72)" />
                           </g>
                           <g id="tp5zagl" class="stem">
                              <path d="M13405 838 L13405 1422" stroke-width="18" />
                           </g>
                        </g>
                        <g id="d1s4y1ev" class="note">
                           <g class="notehead">
                              <use xlink:href="#E0A4-wl264nb" transform="translate(13712, 540) scale(0.72, 0.72)" />
                           </g>
                           <g id="u16ci2k" class="stem">
                              <path d="M13721 568 L13721 1362" stroke-width="18" />
                           </g>
                        </g>
                        <g id="e1s9ely5" class="note">
                           <g class="notehead">
                              <use xlink:href="#E0A4-wl264nb" transform="translate(14028, 630) scale(0.72, 0.72)" />
                           </g>
                           <g id="v1so3g8h" class="stem">
                              <path d="M14037 658 L14037 1302" stroke-width="18" />
                           </g>
                        </g>
                        <g id="f1vwcuwv" class="note">
                           <g class="notehead">
                              <use xlink:href="#E0A4-wl264nb" transform="translate(14344, 540) scale(0.72, 0.72)" />
                           </g>
                           <g id="w1cwxopp" class="stem">
                              <path d="M14353 568 L14353 1242" stroke-width="18" />
                           </g>
                        </g>
                     </g>
                     <g id="gurte4e" class="beam">
                        <polygon points="14660,1440 15626,1260 15626,1170 14660,1350" />
                        <polygon points="14660,1305 14985,1245 14985,1155 14660,1215" />
                        <polygon points="14985,1245 15301,1185 15301,1095 14985,1155" />
                        <polygon points="15301,1185 15626,1125 15626,1035 15301,1095" />
                        <g id="hojxta8" class="note">
                           <g class="notehead">
                              <use xlink:href="#E0A4-wl264nb" transform="translate(14660, 810) scale(0.72, 0.72)" />
                           </g>
                           <g id="x1yogqku" class="stem">
                              <path d="M14669 838 L14669 1422" stroke-width="18" />
                           </g>
                        </g>
                        <g id="i1fwbl6b" class="note">
                           <g class="notehead">
                              <use xlink:href="#E0A4-wl264nb" transform="translate(14976, 540) scale(0.72, 0.72)" />
                           </g>
                           <g id="yc1y0z7" class="stem">
                              <path d="M14985 568 L14985 1362" stroke-width="18" />
                           </g>
                        </g>
                        <g id="j6wyy4n" class="note">
                           <g class="notehead">
                              <use xlink:href="#E0A4-wl264nb" transform="translate(15292, 630) scale(0.72, 0.72)" />
                           </g>
                           <g id="z9i3iad" class="stem">
                              <path d="M15301 658 L15301 1302" stroke-width="18" />
                           </g>
                        </g>
                        <g id="k1bvxrx5" class="note">
                           <g class="notehead">
                              <use xlink:href="#E0A4-wl264nb" transform="translate(15608, 540) scale(0.72, 0.72)" />
                           </g>
                           <g id="as1dp4g" class="stem">
                              <path d="M15617 568 L15617 1242" stroke-width="18" />
                           </g>
                        </g>
                     </g>
                  </g>
               </g>
               <g id="tydk56o" class="barLine">
                  <path d="M15938 540 L15938 1260" stroke-width="27" />
               </g>
            </g>
            <g id="sqq72mm" class="systemMilestoneEnd n1j64ghf" />
         </g>
         <g id="to1lkyi" class="pageMilestoneEnd ynrspbb" />
         <g id="uapekxc" class="pageMilestoneEnd xaw1w2v" />
         <g id="v8hy7dy" class="pgHead autogenerated" />
      </g>
   </svg>
</svg>
