<?xml version="1.0" encoding="UTF-8" standalone="no"?>
<svg width="1002px" height="171px" version="1.1" xmlns="http://www.w3.org/2000/svg" xmlns:xlink="http://www.w3.org/1999/xlink" overflow="visible" id="s1aa6bdf">
   <desc>Engraved by Verovio 6.1.0[undefined]</desc>
   <defs>
      <g id="E050-s1aa6bdf">
         <path transform="scale(1,-1)" d="M441 -245c-23 -4 -48 -6 -76 -6c-59 0 -102 7 -130 20c-88 42 -150 93 -187 154c-26 44 -43 103 -48 176c0 6 -1 13 -1 19c0 54 15 111 45 170c29 57 65 106 110 148s96 85 153 127c-3 16 -8 46 -13 92c-4 43 -5 73 -5 89c0 117 16 172 69 257c34 54 64 82 89 82 c21 0 43 -30 69 -92s39 -115 41 -159v-15c0 -109 -21 -162 -67 -241c-13 -20 -63 -90 -98 -118c-13 -9 -25 -19 -37 -29l31 -181c8 1 18 2 28 2c58 0 102 -12 133 -35c59 -43 92 -104 98 -184c1 -7 1 -15 1 -22c0 -123 -87 -209 -181 -248c8 -57 17 -110 25 -162 c5 -31 6 -58 6 -80c0 -30 -5 -53 -14 -70c-35 -64 -88 -99 -158 -103c-5 0 -11 -1 -16 -1c-37 0 -72 10 -108 27c-50 24 -77 59 -80 105v11c0 29 7 55 20 76c18 28 45 42 79 44h6c49 0 93 -42 97 -87v-9c0 -51 -34 -86 -105 -106c17 -24 51 -36 102 -36c62 0 116 43 140 85 c9 16 13 41 13 74c0 20 -1 42 -5 67c-8 53 -18 106 -26 159zM461 939c-95 0 -135 -175 -135 -286c0 -24 2 -48 5 -71c50 39 92 82 127 128c40 53 60 100 60 140v8c-4 53 -22 81 -55 81h-2zM406 119l54 -326c73 25 110 78 110 161c0 7 0 15 -1 23c-7 95 -57 142 -151 142h-12 zM382 117c-72 -2 -128 -47 -128 -120v-7c2 -46 43 -99 75 -115c-3 -2 -7 -5 -10 -10c-70 33 -116 88 -123 172v11c0 68 44 126 88 159c23 17 49 29 78 36l-29 170c-21 -13 -52 -37 -92 -73c-50 -44 -86 -84 -109 -119c-45 -69 -67 -130 -67 -182v-13c5 -68 35 -127 93 -176 s125 -73 203 -73c25 0 50 3 75 9c-19 111 -36 221 -54 331z" />
      </g>
      <g id="E260-s1aa6bdf">
         <path transform="scale(1,-1)" d="M20 110c32 16 54 27 93 27c26 0 35 -3 54 -13c13 -7 24 -20 27 -38l4 -25c0 -28 -16 -57 -45 -89c-23 -25 -39 -44 -65 -68l-88 -79v644h20v-359zM90 106c-32 0 -48 -10 -70 -29v-194c31 31 54 59 71 84c21 32 32 59 32 84c0 9 1 16 1 20c0 14 -3 21 -11 30l-8 3z" />
      </g>
      <g id="E083-s1aa6bdf">
         <path transform="scale(1,-1)" d="M208 250c97 0 177 -52 177 -116c0 -69 -40 -111 -118 -125c56 -5 125 -44 125 -116c0 -31 -10 -57 -31 -78c-19 -21 -45 -38 -78 -49l-50 -11c-15 -3 -36 -7 -55 -7c-50 0 -86 16 -113 38c-16 10 -23 18 -34 34c-7 13 -11 25 -11 38c0 43 27 83 68 83l3 -2 c61 0 75 -42 75 -70c0 -19 -24 -42 -26 -57c7 -17 20 -25 37 -25c44 0 94 29 94 78c0 75 -34 125 -138 125v36c84 0 131 22 131 98c0 54 -37 88 -87 88c-26 0 -43 -7 -51 -22c15 -22 44 -16 44 -70c0 -37 -37 -62 -71 -62c-22 0 -69 15 -69 76c0 79 101 116 178 116z" />
      </g>
      <g id="E082-s1aa6bdf">
         <path transform="scale(1,-1)" d="M124 -185c-18 0 -55 -14 -65 -65h-36l-3 30c0 25 6 45 18 63c11 19 22 30 39 43l121 82l37 29c15 11 27 29 38 54c12 24 18 47 18 70c0 40 -19 88 -94 88c-25 0 -32 0 -50 -8c-14 -5 -23 -12 -26 -22c3 -9 7 -15 10 -18l24 -17c12 -7 17 -11 27 -21c5 -7 7 -16 7 -27 c0 -12 0 -57 -79 -74c-30 0 -76 26 -76 94c0 66 81 135 197 135c72 0 181 -32 181 -150c0 -53 -32 -95 -113 -133l-91 -41c-26 -11 -45 -23 -57 -37l49 7c84 0 115 -41 148 -41c20 0 33 20 39 61h35c0 -152 -68 -168 -114 -168c-17 0 -65 0 -79 7h10l-28 17 c-49 37 -69 40 -87 42z" />
      </g>
      <g id="E0A3-s1aa6bdf">
         <path transform="scale(1,-1)" d="M278 64c0 22 -17 39 -43 39c-12 0 -26 -3 -41 -10c-85 -43 -165 -94 -165 -156c5 -25 15 -32 49 -32c67 11 200 95 200 159zM0 -36c0 68 73 174 200 174c66 0 114 -39 114 -97c0 -84 -106 -173 -218 -173c-64 0 -96 32 -96 96z" />
      </g>
      <g id="E0A4-s1aa6bdf">
         <path transform="scale(1,-1)" d="M0 -39c0 68 73 172 200 172c66 0 114 -37 114 -95c0 -84 -106 -171 -218 -171c-64 0 -96 30 -96 94z" />
      </g>
      <g id="E0A2-s1aa6bdf">
         <path transform="scale(1,-1)" d="M198 133c102 0 207 -45 207 -133c0 -92 -118 -133 -227 -133c-101 0 -178 46 -178 133c0 88 93 133 198 133zM293 -21c0 14 -3 29 -8 44c-7 20 -18 38 -33 54c-20 21 -43 31 -68 31l-20 -2c-15 -5 -27 -14 -36 -28c-4 -9 -6 -17 -8 -24s-3 -16 -3 -27c0 -15 3 -34 9 -57 s18 -41 34 -55c15 -15 36 -23 62 -23c4 0 10 1 18 2c19 5 32 15 40 30s13 34 13 55z" />
      </g>
      <g id="E262-s1aa6bdf">
         <path transform="scale(1,-1)" d="M136 186v169h17v-164l44 14v-91l-44 -14v-165l44 12v-91l-44 -13v-155h-17v150l-76 -22v-155h-17v149l-43 -13v90l43 14v167l-43 -14v92l43 13v169h17v-163zM60 73v-167l76 22v168z" />
      </g>
   </defs>
   <style type="text/css">#s1aa6bdf g.ending, #s1aa6bdf g.fing, #s1aa6bdf g.reh, #s1aa6bdf g.tempo {font-weight:bold;}#s1aa6bdf g.dir, #s1aa6bdf g.dynam, #s1aa6bdf g.mNum {font-style:italic;}#s1aa6bdf g.label {font-weight:normal;}#s1aa6bdf ellipse, #s1aa6bdf path, #s1aa6bdf polygon, #s1aa6bdf polyline, #s1aa6bdf rect {stroke:currentColor}</style>
   <svg class="definition-scale" color="black" font-family="Times, serif" viewBox="0 0 15410 2620">
      <g class="page-margin" transform="translate(50, 50)">
         <g id="t67os7j" class="mdiv pageMilestone" />
         <g id="u1coqr0k" class="score pageMilestone" />
         <g id="b1tzerm6" class="system">
            <g id="jd6okd4" class="section systemMilestone" />
            <g id="k9bvbnp" class="measure">
               <g id="td2co99" class="staff">
                  <path d="M0 1269 L5459 1269" stroke-width="13" />
                  <path d="M0 1449 L5459 1449" stroke-width="13" />
                  <path d="M0 1629 L5459 1629" stroke-width="13" />
                  <path d="M0 1809 L5459 1809" stroke-width="13" />
                  <path d="M0 1989 L5459 1989" stroke-width="13" />
                  <g id="ayxko3i" class="clef">
                     <use xlink:href="#E050-s1aa6bdf" transform="translate(90, 1809) scale(0.72, 0.72)" />
                  </g>
                  <g id="bylxq3f" class="keySig">
                     <g id="c9nb7mq" class="keyAccid">
                        <use xlink:href="#E260-s1aa6bdf" transform="translate(735, 1629) scale(0.72, 0.72)" />
                     </g>
                  </g>
                  <g id="d155i8i0" class="meterSig">
                     <use xlink:href="#E083-s1aa6bdf" transform="translate(1054, 1449) scale(0.72, 0.72)" />
                     <use xlink:href="#E082-s1aa6bdf" transform="translate(1043, 1809) scale(0.72, 0.72)" />
                  </g>
                  <g class="ledgerLines above">
                     <path d="M4498 1089 L4820 1089" stroke-width="22" />
                     <path d="M4948 1089 L5270 1089" stroke-width="22" />
                  </g>
                  <g id="u6en01c" class="layer">
                     <g id="v1or6x26" class="note">
                        <g class="notehead">
                           <use xlink:href="#E0A3-s1aa6bdf" transform="translate(1616, 1449) scale(0.72, 0.72)" />
                        </g>
                        <g id="e1r9m6gv" class="dots">
                           <ellipse cx="1932" cy="1359" rx="36" ry="36" />
                        </g>
                        <g id="d1gtudky" class="stem">
                           <path d="M1625 1474 L1625 2079" stroke-width="18" />
                        </g>
                     </g>
                     <g id="whfik6k" class="beam">
                        <polygon points="2956,2034 3424,1989 3424,1899 2956,1944" />
                        <g id="x18glfdn" class="note">
                           <g class="notehead">
                              <use xlink:href="#E0A4-s1aa6bdf" transform="translate(2956, 1359) scale(0.72, 0.72)" />
                           </g>
                           <g id="f19mkn54" class="stem">
                              <path d="M2965 1387 L2965 2016" stroke-width="18" />
                           </g>
                        </g>
                        <g id="y1c83csn" class="note">
                           <g class="notehead">
                              <use xlink:href="#E0A4-s1aa6bdf" transform="translate(3406, 1269) scale(0.72, 0.72)" />
                           </g>
                           <g id="g1ijxdlf" class="stem">
                              <path d="M3415 1297 L3415 1971" stroke-width="18" />
                           </g>
                        </g>
                     </g>
                     <g id="z1m3df48" class="note">
                        <g class="notehead">
                           <use xlink:href="#E0A4-s1aa6bdf" transform="translate(3856, 1179) scale(0.72, 0.72)" />
                        </g>
                        <g id="h9frnr9" class="stem">
                           <path d="M3865 1207 L3865 1809" stroke-width="18" />
                        </g>
                     </g>
                     <g id="a1m5nrt" class="beam">
                        <polygon points="4546,1719 5014,1674 5014,1584 4546,1629" />
                        <g id="b18ox05r" class="note">
                           <g class="notehead">
                              <use xlink:href="#E0A4-s1aa6bdf" transform="translate(4546, 1089) scale(0.72, 0.72)" />
                           </g>
                           <g id="ic3rtjo" class="stem">
                              <path d="M4555 1117 L4555 1701" stroke-width="18" />
                           </g>
                        </g>
                        <g id="c1w35e3" class="note">
                           <g class="notehead">
                              <use xlink:href="#E0A4-s1aa6bdf" transform="translate(4996, 999) scale(0.72, 0.72)" />
                           </g>
                           <g id="j1q7frhh" class="stem">
                              <path d="M5005 1027 L5005 1656" stroke-width="18" />
                           </g>
                           <g id="d1d0dny9" class="accid" />
                        </g>
                     </g>
                  </g>
               </g>
               <g id="eerrq1l" class="tempo">
                  <text x="1043" y="1140" font-size="0px">
                     <tspan id="f1nctbkb" class="text">
                        <tspan font-size="405px">Adagio</tspan>
                     </tspan>
                  </text>
               </g>
               <g id="s1owpv65" class="barLine">
                  <path d="M5446 1269 L5446 1989" stroke-width="27" />
               </g>
            </g>
            <g id="gstgd6k" class="measure">
               <g id="po1j4fj" class="staff">
                  <path d="M5459 1269 L8478 1269" stroke-width="13" />
                  <path d="M5459 1449 L8478 1449" stroke-width="13" />
                  <path d="M5459 1629 L8478 1629" stroke-width="13" />
                  <path d="M5459 1809 L8478 1809" stroke-width="13" />
                  <path d="M5459 1989 L8478 1989" stroke-width="13" />
                  <g id="q1wmykcp" class="layer">
                     <g id="r6oypp0" class="note">
                        <g class="notehead">
                           <use xlink:href="#E0A2-s1aa6bdf" transform="translate(5825, 1539) scale(0.72, 0.72)" />
                        </g>
                        <g id="s7ptx8s" class="accid">
                           <use xlink:href="#E262-s1aa6bdf" transform="translate(5639, 1539) scale(0.72, 0.72)" />
                        </g>
                     </g>
                     <g id="tbek4vy" class="note">
                        <g class="notehead">
                           <use xlink:href="#E0A3-s1aa6bdf" transform="translate(7415, 1179) scale(0.72, 0.72)" />
                        </g>
                        <g id="l1eema2f" class="stem">
                           <path d="M7424 1204 L7424 1809" stroke-width="18" />
                        </g>
                     </g>
                  </g>
               </g>
               <g id="h15prtfe" class="tie">
                  <path d="M7686,1134 C7910,981 8385,981 8613,1134 C8372,1029 7923,1029 7686,1134" stroke-width="9" stroke-linecap="round" stroke-linejoin="round" />
               </g>
               <g id="o7velqc" class="barLine">
                  <path d="M8465 1269 L8465 1989" stroke-width="27" />
               </g>
            </g>
            <g id="u1r626ki" class="measure">
               <g id="d10g0w6z" class="staff">
                  <path d="M8478 1269 L12151 1269" stroke-width="13" />
                  <path d="M8478 1449 L12151 1449" stroke-width="13" />
                  <path d="M8478 1629 L12151 1629" stroke-width="13" />
                  <path d="M8478 1809 L12151 1809" stroke-width="13" />
                  <path d="M8478 1989 L12151 1989" stroke-width="13" />
                  <g id="e1lhg8aw" class="layer">
                     <g id="fzgujwn" class="note">
                        <g class="notehead">
                           <use xlink:href="#E0A3-s1aa6bdf" transform="translate(8658, 1179) scale(0.72, 0.72)" />
                        </g>
                        <g id="m1l1o7mb" class="stem">
                           <path d="M8667 1204 L8667 1809" stroke-width="18" />
                        </g>
                     </g>
                     <g id="g146rg21" class="note">
                        <g class="notehead">
                           <use xlink:href="#E0A3-s1aa6bdf" transform="translate(9708, 1269) scale(0.72, 0.72)" />
                        </g>
                        <g id="n14v9cx8" class="stem">
                           <path d="M9717 1294 L9717 1899" stroke-width="18" />
                        </g>
                     </g>
                     <g id="h1659eih" class="note">
                        <g class="notehead">
                           <use xlink:href="#E0A4-s1aa6bdf" transform="translate(10758, 1359) scale(0.72, 0.72)" />
                        </g>
                        <g id="odwpb35" class="stem">
                           <path d="M10767 1387 L10767 1989" stroke-width="18" />
                        </g>
                     </g>
                     <g id="i1774awe" class="note">
                        <g class="notehead">
                           <use xlink:href="#E0A4-s1aa6bdf" transform="translate(11448, 1449) scale(0.72, 0.72)" />
                        </g>
                        <g id="p16z13v7" class="stem">
                           <path d="M11457 1477 L11457 2079" stroke-width="18" />
                        </g>
                     </g>
                  </g>
               </g>
               <g id="c118vc6f" class="barLine">
                  <path d="M12138 1269 L12138 1989" stroke-width="27" />
               </g>
            </g>
            <g id="ji9hgt0" class="measure">
               <g id="s1f8ixqx" class="staff">
                  <path d="M12151 1269 L15314 1269" stroke-width="13" />
                  <path d="M12151 1449 L15314 1449" stroke-width="13" />
                  <path d="M12151 1629 L15314 1629" stroke-width="13" />
                  <path d="M12151 1809 L15314 1809" stroke-width="13" />
                  <path d="M12151 1989 L15314 1989" stroke-width="13" />
                  <g class="ledgerLines above">
                     <path d="M13663 1089 L14049 1089" stroke-width="22" />
                  </g>
                  <g id="t6mlu57" class="layer">
                     <g id="uv4rrvn" class="note">
                        <g class="notehead">
                           <use xlink:href="#E0A4-s1aa6bdf" transform="translate(12331, 1359) scale(0.72, 0.72)" />
                        </g>
                        <g id="qa2lmk1" class="stem">
                           <path d="M12340 1387 L12340 1989" stroke-width="18" />
                        </g>
                     </g>
                     <g id="v17uvq7o" class="note">
                        <g class="notehead">
                           <use xlink:href="#E0A4-s1aa6bdf" transform="translate(13021, 1719) scale(0.72, 0.72)" />
                        </g>
                        <g id="r4jfojs" class="stem">
                           <path d="M13238 1691 L13238 1089" stroke-width="18" />
                        </g>
                     </g>
                     <g id="w6raupy" class="note">
                        <g class="notehead">
                           <use xlink:href="#E0A2-s1aa6bdf" transform="translate(13711, 1089) scale(0.72, 0.72)" />
                        </g>
                     </g>
                  </g>
               </g>
               <g id="r1ycbfwr" class="barLine">
                  <path d="M15301 1269 L15301 1989" stroke-width="27" />
               </g>
            </g>
            <g id="e11jkisf" class="systemMilestoneEnd jd6okd4" />
         </g>
         <g id="f1lfa17p" class="pageMilestoneEnd u1coqr0k" />
         <g id="g6gaw9a" class="pageMilestoneEnd t67os7j" />
         <g id="i1b7o8l9" class="pgHead autogenerated">
            <text font-size="0px">
               <tspan id="j1p2wgjo" class="rend" x="10450" y="417" text-anchor="middle">
                  <title class="labelAttr">title</title>
                  <tspan id="k1oktdoo" class="rend">
                     <tspan id="la58cw8" class="text">
                        <tspan font-size="607px">S1_M3_Vl1_RISM</tspan>
                     </tspan>
                  </tspan>
               </tspan>
            </text>
         </g>
      </g>
   </svg>
</svg>
