<?xml version="1.0" encoding="UTF-8" standalone="no"?>
<svg width="967px" height="171px" version="1.1" xmlns="http://www.w3.org/2000/svg" xmlns:xlink="http://www.w3.org/1999/xlink" overflow="visible" id="gk0v822">
   <desc>Engraved by Verovio 6.1.0[undefined]</desc>
   <defs>
      <g id="E050-gk0v822">
         <path transform="scale(1,-1)" d="M441 -245c-23 -4 -48 -6 -76 -6c-59 0 -102 7 -130 20c-88 42 -150 93 -187 154c-26 44 -43 103 -48 176c0 6 -1 13 -1 19c0 54 15 111 45 170c29 57 65 106 110 148s96 85 153 127c-3 16 -8 46 -13 92c-4 43 -5 73 -5 89c0 117 16 172 69 257c34 54 64 82 89 82 c21 0 43 -30 69 -92s39 -115 41 -159v-15c0 -109 -21 -162 -67 -241c-13 -20 -63 -90 -98 -118c-13 -9 -25 -19 -37 -29l31 -181c8 1 18 2 28 2c58 0 102 -12 133 -35c59 -43 92 -104 98 -184c1 -7 1 -15 1 -22c0 -123 -87 -209 -181 -248c8 -57 17 -110 25 -162 c5 -31 6 -58 6 -80c0 -30 -5 -53 -14 -70c-35 -64 -88 -99 -158 -103c-5 0 -11 -1 -16 -1c-37 0 -72 10 -108 27c-50 24 -77 59 -80 105v11c0 29 7 55 20 76c18 28 45 42 79 44h6c49 0 93 -42 97 -87v-9c0 -51 -34 -86 -105 -106c17 -24 51 -36 102 -36c62 0 116 43 140 85 c9 16 13 41 13 74c0 20 -1 42 -5 67c-8 53 -18 106 -26 159zM461 939c-95 0 -135 -175 -135 -286c0 -24 2 -48 5 -71c50 39 92 82 127 128c40 53 60 100 60 140v8c-4 53 -22 81 -55 81h-2zM406 119l54 -326c73 25 110 78 110 161c0 7 0 15 -1 23c-7 95 -57 142 -151 142h-12 zM382 117c-72 -2 -128 -47 -128 -120v-7c2 -46 43 -99 75 -115c-3 -2 -7 -5 -10 -10c-70 33 -116 88 -123 172v11c0 68 44 126 88 159c23 17 49 29 78 36l-29 170c-21 -13 -52 -37 -92 -73c-50 -44 -86 -84 -109 -119c-45 -69 -67 -130 -67 -182v-13c5 -68 35 -127 93 -176 s125 -73 203 -73c25 0 50 3 75 9c-19 111 -36 221 -54 331z" />
      </g>
      <g id="E260-gk0v822">
         <path transform="scale(1,-1)" d="M20 110c32 16 54 27 93 27c26 0 35 -3 54 -13c13 -7 24 -20 27 -38l4 -25c0 -28 -16 -57 -45 -89c-23 -25 -39 -44 -65 -68l-88 -79v644h20v-359zM90 106c-32 0 -48 -10 -70 -29v-194c31 31 54 59 71 84c21 32 32 59 32 84c0 9 1 16 1 20c0 14 -3 21 -11 30l-8 3z" />
      </g>
      <g id="E084-gk0v822">
         <path transform="scale(1,-1)" d="M20 -78c84 97 114 180 134 329h170c-13 -32 -82 -132 -99 -151l-84 -97c-33 -36 -59 -63 -80 -81h162v102l127 123v-225h57v-39h-57v-34c0 -43 19 -65 57 -65v-34h-244v36c48 0 60 26 60 70v27h-203v39z" />
      </g>
      <g id="E0A3-gk0v822">
         <path transform="scale(1,-1)" d="M278 64c0 22 -17 39 -43 39c-12 0 -26 -3 -41 -10c-85 -43 -165 -94 -165 -156c5 -25 15 -32 49 -32c67 11 200 95 200 159zM0 -36c0 68 73 174 200 174c66 0 114 -39 114 -97c0 -84 -106 -173 -218 -173c-64 0 -96 32 -96 96z" />
      </g>
      <g id="E0A4-gk0v822">
         <path transform="scale(1,-1)" d="M0 -39c0 68 73 172 200 172c66 0 114 -37 114 -95c0 -84 -106 -171 -218 -171c-64 0 -96 30 -96 94z" />
      </g>
   </defs>
   <style type="text/css">#gk0v822 g.ending, #gk0v822 g.fing, #gk0v822 g.reh, #gk0v822 g.tempo {font-weight:bold;}#gk0v822 g.dir, #gk0v822 g.dynam, #gk0v822 g.mNum {font-style:italic;}#gk0v822 g.label {font-weight:normal;}#gk0v822 ellipse, #gk0v822 path, #gk0v822 polygon, #gk0v822 polyline, #gk0v822 rect {stroke:currentColor}</style>
   <svg class="definition-scale" color="black" font-family="Times, serif" viewBox="0 0 14870 2620">
      <g class="page-margin" transform="translate(50, 50)">
         <g id="hny4r1d" class="mdiv pageMilestone" />
         <g id="i297yw8" class="score pageMilestone" />
         <g id="gollmkg" class="system">
            <g id="x1ustp2l" class="section systemMilestone" />
            <g id="y11ueda7" class="measure">
               <g id="h17jcoyl" class="staff">
                  <path d="M0 1269 L4048 1269" stroke-width="13" />
                  <path d="M0 1449 L4048 1449" stroke-width="13" />
                  <path d="M0 1629 L4048 1629" stroke-width="13" />
                  <path d="M0 1809 L4048 1809" stroke-width="13" />
                  <path d="M0 1989 L4048 1989" stroke-width="13" />
                  <g id="rz49mhd" class="clef">
                     <use xlink:href="#E050-gk0v822" transform="translate(90, 1809) scale(0.72, 0.72)" />
                  </g>
                  <g id="s1widgh1" class="keySig">
                     <g id="torxegy" class="keyAccid">
                        <use xlink:href="#E260-gk0v822" transform="translate(735, 1629) scale(0.72, 0.72)" />
                     </g>
                  </g>
                  <g id="u1435gdo" class="meterSig">
                     <use xlink:href="#E084-gk0v822" transform="translate(1043, 1449) scale(0.72, 0.72)" />
                     <use xlink:href="#E084-gk0v822" transform="translate(1043, 1809) scale(0.72, 0.72)" />
                  </g>
                  <g id="ih0x4v" class="layer">
                     <g id="j7qtvym" class="note">
                        <g class="notehead">
                           <use xlink:href="#E0A3-gk0v822" transform="translate(1605, 1539) scale(0.72, 0.72)" />
                        </g>
                        <g id="i13pxw1p" class="stem">
                           <path d="M1614 1564 L1614 2169" stroke-width="18" />
                        </g>
                     </g>
                     <g id="k1bgo12s" class="note">
                        <g class="notehead">
                           <use xlink:href="#E0A4-gk0v822" transform="translate(2655, 1449) scale(0.72, 0.72)" />
                        </g>
                        <g id="j1t38hlr" class="stem">
                           <path d="M2664 1477 L2664 2079" stroke-width="18" />
                        </g>
                     </g>
                     <g id="l1nu3yci" class="note">
                        <g class="notehead">
                           <use xlink:href="#E0A4-gk0v822" transform="translate(3345, 1539) scale(0.72, 0.72)" />
                        </g>
                        <g id="kcs23jr" class="stem">
                           <path d="M3354 1567 L3354 2169" stroke-width="18" />
                        </g>
                     </g>
                  </g>
               </g>
               <g id="m1uewzsx" class="tempo">
                  <text x="1043" y="1140" font-size="0px">
                     <tspan id="ncum4uy" class="text">
                        <tspan font-size="405px">Grave / Adagio</tspan>
                     </tspan>
                  </text>
               </g>
               <g id="g12it1my" class="barLine">
                  <path d="M4035 1269 L4035 1989" stroke-width="27" />
               </g>
            </g>
            <g id="o18fd0ls" class="measure">
               <g id="x1yb690x" class="staff">
                  <path d="M4048 1269 L7417 1269" stroke-width="13" />
                  <path d="M4048 1449 L7417 1449" stroke-width="13" />
                  <path d="M4048 1629 L7417 1629" stroke-width="13" />
                  <path d="M4048 1809 L7417 1809" stroke-width="13" />
                  <path d="M4048 1989 L7417 1989" stroke-width="13" />
                  <g id="ynfsmuo" class="layer">
                     <g id="z1t648ky" class="note">
                        <g class="notehead">
                           <use xlink:href="#E0A4-gk0v822" transform="translate(4228, 1629) scale(0.72, 0.72)" />
                        </g>
                        <g id="l1a0oboh" class="stem">
                           <path d="M4237 1657 L4237 2229" stroke-width="18" />
                        </g>
                        <g id="a10y5isv" class="accid" />
                     </g>
                     <g id="b1wgs2d2" class="beam">
                        <polygon points="4918,2169 5516,2259 5516,2169 4918,2079" />
                        <polygon points="5290,2092 5516,2124 5516,2034 5290,2002" />
                        <g id="c1hjzxsf" class="note">
                           <g class="notehead">
                              <use xlink:href="#E0A4-gk0v822" transform="translate(4918, 1539) scale(0.72, 0.72)" />
                           </g>
                           <g id="nsgmubj" class="dots">
                              <ellipse cx="5234" cy="1539" rx="36" ry="36" />
                           </g>
                           <g id="mucn7d3" class="stem">
                              <path d="M4927 1567 L4927 2151" stroke-width="18" />
                           </g>
                        </g>
                        <g id="d1jfk23l" class="note">
                           <g class="notehead">
                              <use xlink:href="#E0A4-gk0v822" transform="translate(5498, 1629) scale(0.72, 0.72)" />
                           </g>
                           <g id="o6ec90z" class="stem">
                              <path d="M5507 1657 L5507 2241" stroke-width="18" />
                           </g>
                           <g id="e4jik7z" class="accid" />
                        </g>
                     </g>
                     <g id="f1evdav8" class="beam">
                        <polygon points="6022,1044 6490,1089 6490,1179 6022,1134" />
                        <g id="g120sphj" class="note">
                           <g class="notehead">
                              <use xlink:href="#E0A4-gk0v822" transform="translate(5814, 1719) scale(0.72, 0.72)" />
                           </g>
                           <g id="p17g28qp" class="stem">
                              <path d="M6031 1691 L6031 1062" stroke-width="18" />
                           </g>
                        </g>
                        <g id="h139nre6" class="note">
                           <g class="notehead">
                              <use xlink:href="#E0A4-gk0v822" transform="translate(6264, 1899) scale(0.72, 0.72)" />
                           </g>
                           <g id="qxln242" class="stem">
                              <path d="M6481 1871 L6481 1107" stroke-width="18" />
                           </g>
                        </g>
                     </g>
                     <g id="i11lpnz5" class="note">
                        <g class="notehead">
                           <use xlink:href="#E0A4-gk0v822" transform="translate(6714, 1539) scale(0.72, 0.72)" />
                        </g>
                        <g id="ryopvdz" class="stem">
                           <path d="M6723 1567 L6723 2169" stroke-width="18" />
                        </g>
                     </g>
                  </g>
               </g>
               <g id="miig6ta" class="tie">
                  <path d="M6985,1494 C7116,1340 7417,1340 7552,1494 C7398,1389 7135,1389 6985,1494" stroke-width="9" stroke-linecap="round" stroke-linejoin="round" />
               </g>
               <g id="w4tmoin" class="barLine">
                  <path d="M7404 1269 L7404 1989" stroke-width="27" />
               </g>
            </g>
            <g id="jnp1jzb" class="measure">
               <g id="sokt0jn" class="staff">
                  <path d="M7417 1269 L10894 1269" stroke-width="13" />
                  <path d="M7417 1449 L10894 1449" stroke-width="13" />
                  <path d="M7417 1629 L10894 1629" stroke-width="13" />
                  <path d="M7417 1809 L10894 1809" stroke-width="13" />
                  <path d="M7417 1989 L10894 1989" stroke-width="13" />
                  <g id="tjjm05w" class="layer">
                     <g id="u1nkk9gh" class="beam">
                        <polygon points="7597,2214 8381,2214 8381,2124 7597,2124" />
                        <polygon points="8056,2079 8381,2079 8381,1989 8056,1989" />
                        <g id="vi7zjrd" class="note">
                           <g class="notehead">
                              <use xlink:href="#E0A4-gk0v822" transform="translate(7597, 1539) scale(0.72, 0.72)" />
                           </g>
                           <g id="seaxs1b" class="stem">
                              <path d="M7606 1567 L7606 2196" stroke-width="18" />
                           </g>
                        </g>
                        <g id="whbaakb" class="note">
                           <g class="notehead">
                              <use xlink:href="#E0A4-gk0v822" transform="translate(8047, 1629) scale(0.72, 0.72)" />
                           </g>
                           <g id="t1euuhr4" class="stem">
                              <path d="M8056 1657 L8056 2196" stroke-width="18" />
                           </g>
                           <g id="x1b07ipb" class="accid" />
                        </g>
                        <g id="y170jkxy" class="note">
                           <g class="notehead">
                              <use xlink:href="#E0A4-gk0v822" transform="translate(8363, 1539) scale(0.72, 0.72)" />
                           </g>
                           <g id="usr7aym" class="stem">
                              <path d="M8372 1567 L8372 2196" stroke-width="18" />
                           </g>
                        </g>
                     </g>
                     <g id="zl8oc4u" class="note">
                        <g class="notehead">
                           <use xlink:href="#E0A4-gk0v822" transform="translate(8679, 1449) scale(0.72, 0.72)" />
                        </g>
                        <g id="wof03bm" class="dots">
                           <ellipse cx="8995" cy="1359" rx="36" ry="36" />
                        </g>
                        <g id="vps39kz" class="stem">
                           <path d="M8688 1477 L8688 2079" stroke-width="18" />
                        </g>
                     </g>
                     <g id="a9s1y5e" class="beam">
                        <polygon points="9559,2214 9893,2169 9893,2079 9559,2124" />
                        <polygon points="9559,2079 9893,2034 9893,1944 9559,1989" />
                        <g id="b1etebg6" class="note">
                           <g class="notehead">
                              <use xlink:href="#E0A4-gk0v822" transform="translate(9559, 1539) scale(0.72, 0.72)" />
                           </g>
                           <g id="x1o6f319" class="stem">
                              <path d="M9568 1567 L9568 2196" stroke-width="18" />
                           </g>
                        </g>
                        <g id="c1iqb5yc" class="note">
                           <g class="notehead">
                              <use xlink:href="#E0A4-gk0v822" transform="translate(9875, 1449) scale(0.72, 0.72)" />
                           </g>
                           <g id="y1fwttu0" class="stem">
                              <path d="M9884 1477 L9884 2151" stroke-width="18" />
                           </g>
                        </g>
                     </g>
                     <g id="d1fekf6g" class="note">
                        <g class="notehead">
                           <use xlink:href="#E0A4-gk0v822" transform="translate(10191, 1359) scale(0.72, 0.72)" />
                        </g>
                        <g id="z1aj71mi" class="stem">
                           <path d="M10200 1387 L10200 1989" stroke-width="18" />
                        </g>
                     </g>
                  </g>
               </g>
               <g id="r1rca9dd" class="barLine">
                  <path d="M10881 1269 L10881 1989" stroke-width="27" />
               </g>
            </g>
            <g id="e1t1gk8n" class="measure">
               <g id="npfjdtw" class="staff">
                  <path d="M10894 1269 L14777 1269" stroke-width="13" />
                  <path d="M10894 1449 L14777 1449" stroke-width="13" />
                  <path d="M10894 1629 L14777 1629" stroke-width="13" />
                  <path d="M10894 1809 L14777 1809" stroke-width="13" />
                  <path d="M10894 1989 L14777 1989" stroke-width="13" />
                  <g class="ledgerLines above">
                     <path d="M11810 1089 L12096 1089" stroke-width="22" />
                     <path d="M12126 1089 L12412 1089" stroke-width="22" />
                     <path d="M12988 1089 L13310 1089" stroke-width="22" />
                     <path d="M13620 1089 L13942 1089" stroke-width="22" />
                  </g>
                  <g id="o1ralsxp" class="layer">
                     <g id="pzemyiu" class="beam">
                        <polygon points="11074,1899 11858,1899 11858,1809 11074,1809" />
                        <polygon points="11533,1764 11858,1764 11858,1674 11533,1674" />
                        <g id="qwq3pnv" class="note">
                           <g class="notehead">
                              <use xlink:href="#E0A4-gk0v822" transform="translate(11074, 1269) scale(0.72, 0.72)" />
                           </g>
                           <g id="a1u3tnjv" class="stem">
                              <path d="M11083 1297 L11083 1881" stroke-width="18" />
                           </g>
                        </g>
                        <g id="r1wei806" class="note">
                           <g class="notehead">
                              <use xlink:href="#E0A4-gk0v822" transform="translate(11524, 1179) scale(0.72, 0.72)" />
                           </g>
                           <g id="b18hydkl" class="stem">
                              <path d="M11533 1207 L11533 1881" stroke-width="18" />
                           </g>
                        </g>
                        <g id="s13fp4xz" class="note">
                           <g class="notehead">
                              <use xlink:href="#E0A4-gk0v822" transform="translate(11840, 1089) scale(0.72, 0.72)" />
                           </g>
                           <g id="czhj553" class="stem">
                              <path d="M11849 1117 L11849 1881" stroke-width="18" />
                           </g>
                        </g>
                     </g>
                     <g id="t10pxqsp" class="note">
                        <g class="notehead">
                           <use xlink:href="#E0A4-gk0v822" transform="translate(12156, 999) scale(0.72, 0.72)" />
                        </g>
                        <g id="ezkm756" class="dots">
                           <ellipse cx="12472" cy="999" rx="36" ry="36" />
                        </g>
                        <g id="d4w9gd8" class="stem">
                           <path d="M12165 1027 L12165 1629" stroke-width="18" />
                        </g>
                        <g id="u1v8pgf" class="accid" />
                     </g>
                     <g id="v1pxpkei" class="beam">
                        <polygon points="13036,1809 13370,1854 13370,1764 13036,1719" />
                        <polygon points="13036,1674 13370,1719 13370,1629 13036,1584" />
                        <g id="w153bfsl" class="note">
                           <g class="notehead">
                              <use xlink:href="#E0A4-gk0v822" transform="translate(13036, 1089) scale(0.72, 0.72)" />
                           </g>
                           <g id="fbje24g" class="stem">
                              <path d="M13045 1117 L13045 1791" stroke-width="18" />
                           </g>
                        </g>
                        <g id="xlg331b" class="note">
                           <g class="notehead">
                              <use xlink:href="#E0A4-gk0v822" transform="translate(13352, 1179) scale(0.72, 0.72)" />
                           </g>
                           <g id="gj1utls" class="stem">
                              <path d="M13361 1207 L13361 1836" stroke-width="18" />
                           </g>
                        </g>
                     </g>
                     <g id="y1sf5a66" class="beam">
                        <polygon points="13668,1809 14452,1989 14452,1899 13668,1719" />
                        <polygon points="14127,1780 14452,1854 14452,1764 14127,1690" />
                        <g id="z1fkqfaq" class="note">
                           <g class="notehead">
                              <use xlink:href="#E0A4-gk0v822" transform="translate(13668, 1089) scale(0.72, 0.72)" />
                           </g>
                           <g id="hou3j74" class="stem">
                              <path d="M13677 1117 L13677 1791" stroke-width="18" />
                           </g>
                        </g>
                        <g id="a13ggtg" class="note">
                           <g class="notehead">
                              <use xlink:href="#E0A4-gk0v822" transform="translate(14118, 1269) scale(0.72, 0.72)" />
                           </g>
                           <g id="iuugg9r" class="stem">
                              <path d="M14127 1297 L14127 1897" stroke-width="18" />
                           </g>
                        </g>
                        <g id="bku8cgi" class="note">
                           <g class="notehead">
                              <use xlink:href="#E0A4-gk0v822" transform="translate(14434, 1359) scale(0.72, 0.72)" />
                           </g>
                           <g id="j4ag94a" class="stem">
                              <path d="M14443 1387 L14443 1971" stroke-width="18" />
                           </g>
                        </g>
                     </g>
                  </g>
               </g>
               <g id="mfvmnux" class="barLine">
                  <path d="M14764 1269 L14764 1989" stroke-width="27" />
               </g>
            </g>
            <g id="j1jd860c" class="systemMilestoneEnd x1ustp2l" />
         </g>
         <g id="k127smn2" class="pageMilestoneEnd i297yw8" />
         <g id="l1q0a7nu" class="pageMilestoneEnd hny4r1d" />
         <g id="n1g0k9uh" class="pgHead autogenerated">
            <text font-size="0px">
               <tspan id="obsc6ka" class="rend" x="10450" y="417" text-anchor="middle">
                  <title class="labelAttr">title</title>
                  <tspan id="p1q6kkdu" class="rend">
                     <tspan id="qqr72n8" class="text">
                        <tspan font-size="607px">S1_M1_Vl1_RISM</tspan>
                     </tspan>
                  </tspan>
               </tspan>
            </text>
         </g>
      </g>
   </svg>
</svg>
