<?xml version="1.0" encoding="UTF-8" standalone="no"?>
<svg width="920px" height="145px" version="1.1" xmlns="http://www.w3.org/2000/svg" xmlns:xlink="http://www.w3.org/1999/xlink" overflow="visible" id="b1xu0rd7">
   <desc>Engraved by Verovio 6.1.0[undefined]</desc>
   <defs>
      <g id="E050-b1xu0rd7">
         <path transform="scale(1,-1)" d="M441 -245c-23 -4 -48 -6 -76 -6c-59 0 -102 7 -130 20c-88 42 -150 93 -187 154c-26 44 -43 103 -48 176c0 6 -1 13 -1 19c0 54 15 111 45 170c29 57 65 106 110 148s96 85 153 127c-3 16 -8 46 -13 92c-4 43 -5 73 -5 89c0 117 16 172 69 257c34 54 64 82 89 82 c21 0 43 -30 69 -92s39 -115 41 -159v-15c0 -109 -21 -162 -67 -241c-13 -20 -63 -90 -98 -118c-13 -9 -25 -19 -37 -29l31 -181c8 1 18 2 28 2c58 0 102 -12 133 -35c59 -43 92 -104 98 -184c1 -7 1 -15 1 -22c0 -123 -87 -209 -181 -248c8 -57 17 -110 25 -162 c5 -31 6 -58 6 -80c0 -30 -5 -53 -14 -70c-35 -64 -88 -99 -158 -103c-5 0 -11 -1 -16 -1c-37 0 -72 10 -108 27c-50 24 -77 59 -80 105v11c0 29 7 55 20 76c18 28 45 42 79 44h6c49 0 93 -42 97 -87v-9c0 -51 -34 -86 -105 -106c17 -24 51 -36 102 -36c62 0 116 43 140 85 c9 16 13 41 13 74c0 20 -1 42 -5 67c-8 53 -18 106 -26 159zM461 939c-95 0 -135 -175 -135 -286c0 -24 2 -48 5 -71c50 39 92 82 127 128c40 53 60 100 60 140v8c-4 53 -22 81 -55 81h-2zM406 119l54 -326c73 25 110 78 110 161c0 7 0 15 -1 23c-7 95 -57 142 -151 142h-12 zM382 117c-72 -2 -128 -47 -128 -120v-7c2 -46 43 -99 75 -115c-3 -2 -7 -5 -10 -10c-70 33 -116 88 -123 172v11c0 68 44 126 88 159c23 17 49 29 78 36l-29 170c-21 -13 -52 -37 -92 -73c-50 -44 -86 -84 -109 -119c-45 -69 -67 -130 -67 -182v-13c5 -68 35 -127 93 -176 s125 -73 203 -73c25 0 50 3 75 9c-19 111 -36 221 -54 331z" />
      </g>
      <g id="E260-b1xu0rd7">
         <path transform="scale(1,-1)" d="M20 110c32 16 54 27 93 27c26 0 35 -3 54 -13c13 -7 24 -20 27 -38l4 -25c0 -28 -16 -57 -45 -89c-23 -25 -39 -44 -65 -68l-88 -79v644h20v-359zM90 106c-32 0 -48 -10 -70 -29v-194c31 31 54 59 71 84c21 32 32 59 32 84c0 9 1 16 1 20c0 14 -3 21 -11 30l-8 3z" />
      </g>
      <g id="E084-b1xu0rd7">
         <path transform="scale(1,-1)" d="M20 -78c84 97 114 180 134 329h170c-13 -32 -82 -132 -99 -151l-84 -97c-33 -36 -59 -63 -80 -81h162v102l127 123v-225h57v-39h-57v-34c0 -43 19 -65 57 -65v-34h-244v36c48 0 60 26 60 70v27h-203v39z" />
      </g>
      <g id="E4E2-b1xu0rd7">
         <path transform="scale(1,-1)" d="M0 10v230c0 8 2 10 10 10h105c8 0 10 -2 10 -10v-230c0 -8 -2 -10 -10 -10h-105c-8 0 -10 2 -10 10z" />
      </g>
      <g id="E082-b1xu0rd7">
         <path transform="scale(1,-1)" d="M124 -185c-18 0 -55 -14 -65 -65h-36l-3 30c0 25 6 45 18 63c11 19 22 30 39 43l121 82l37 29c15 11 27 29 38 54c12 24 18 47 18 70c0 40 -19 88 -94 88c-25 0 -32 0 -50 -8c-14 -5 -23 -12 -26 -22c3 -9 7 -15 10 -18l24 -17c12 -7 17 -11 27 -21c5 -7 7 -16 7 -27 c0 -12 0 -57 -79 -74c-30 0 -76 26 -76 94c0 66 81 135 197 135c72 0 181 -32 181 -150c0 -53 -32 -95 -113 -133l-91 -41c-26 -11 -45 -23 -57 -37l49 7c84 0 115 -41 148 -41c20 0 33 20 39 61h35c0 -152 -68 -168 -114 -168c-17 0 -65 0 -79 7h10l-28 17 c-49 37 -69 40 -87 42z" />
      </g>
      <g id="E4E6-b1xu0rd7">
         <path transform="scale(1,-1)" d="M0 123c7 34 33 56 69 60c29 -3 43 -9 53 -29c4 -8 7 -15 10 -22c0 -21 -1 -25 -11 -35c-5 -8 -18 -14 -40 -20l12 -3l15 -1c44 0 97 26 122 56c10 11 18 26 24 42c7 1 15 2 22 3l-140 -424h-36l111 330c-10 -6 -27 -12 -53 -16l-52 -8h-10l-20 1c-1 0 -8 3 -21 6 c-37 9 -55 28 -55 60z" />
      </g>
      <g id="E0A4-b1xu0rd7">
         <path transform="scale(1,-1)" d="M0 -39c0 68 73 172 200 172c66 0 114 -37 114 -95c0 -84 -106 -171 -218 -171c-64 0 -96 30 -96 94z" />
      </g>
      <g id="E241-b1xu0rd7">
         <path transform="scale(1,-1)" d="M179 646c-4 8 -17 30 -18 33l-4 10c0 3 2 5 5 5s7 -2 13 -7c23 -33 46 -81 66 -132c22 -57 35 -125 35 -163c0 -104 -60 -183 -122 -241c-63 -59 -57 -53 -61 -56c-38 -34 -63 -95 -71 -95h-22v190c40 7 69 11 87 16c88 27 168 95 168 200c0 30 -12 89 -30 138 c-17 47 -31 73 -46 102z" />
      </g>
   </defs>
   <style type="text/css">#b1xu0rd7 g.ending, #b1xu0rd7 g.fing, #b1xu0rd7 g.reh, #b1xu0rd7 g.tempo {font-weight:bold;}#b1xu0rd7 g.dir, #b1xu0rd7 g.dynam, #b1xu0rd7 g.mNum {font-style:italic;}#b1xu0rd7 g.label {font-weight:normal;}#b1xu0rd7 ellipse, #b1xu0rd7 path, #b1xu0rd7 polygon, #b1xu0rd7 polyline, #b1xu0rd7 rect {stroke:currentColor}</style>
   <svg class="definition-scale" color="black" font-family="Times, serif" viewBox="0 0 14140 2220">
      <g class="page-margin" transform="translate(50, 50)">
         <g id="c8dq2of" class="mdiv pageMilestone" />
         <g id="d1xrxz46" class="score pageMilestone" />
         <g id="v1lltgs" class="system">
            <g id="s1qrexfb" class="section systemMilestone" />
            <g id="tae3o1x" class="measure">
               <g id="crhm4e9" class="staff">
                  <path d="M0 865 L3118 865" stroke-width="13" />
                  <path d="M0 1045 L3118 1045" stroke-width="13" />
                  <path d="M0 1225 L3118 1225" stroke-width="13" />
                  <path d="M0 1405 L3118 1405" stroke-width="13" />
                  <path d="M0 1585 L3118 1585" stroke-width="13" />
                  <g id="xm3zrwo" class="clef">
                     <use xlink:href="#E050-b1xu0rd7" transform="translate(90, 1405) scale(0.72, 0.72)" />
                  </g>
                  <g id="yikj2nb" class="keySig">
                     <g id="z74q1ge" class="keyAccid">
                        <use xlink:href="#E260-b1xu0rd7" transform="translate(735, 1225) scale(0.72, 0.72)" />
                     </g>
                  </g>
                  <g id="a3nluah" class="meterSig">
                     <use xlink:href="#E084-b1xu0rd7" transform="translate(1043, 1045) scale(0.72, 0.72)" />
                     <use xlink:href="#E084-b1xu0rd7" transform="translate(1043, 1405) scale(0.72, 0.72)" />
                  </g>
                  <g id="ds6edml" class="layer">
                     <g id="e1g5u1tk" class="multiRest">
                        <use xlink:href="#E4E2-b1xu0rd7" transform="translate(2213, 1225) scale(0.72, 0.72)" />
                        <use xlink:href="#E082-b1xu0rd7" transform="translate(2099, 595) scale(0.72, 0.72)" />
                     </g>
                  </g>
               </g>
               <g id="b1f1zb8u" class="barLine">
                  <path d="M3105 865 L3105 1585" stroke-width="27" />
               </g>
            </g>
            <g id="fcewzii" class="measure">
               <g id="okzg4qu" class="staff">
                  <path d="M3118 865 L6281 865" stroke-width="13" />
                  <path d="M3118 1045 L6281 1045" stroke-width="13" />
                  <path d="M3118 1225 L6281 1225" stroke-width="13" />
                  <path d="M3118 1405 L6281 1405" stroke-width="13" />
                  <path d="M3118 1585 L6281 1585" stroke-width="13" />
                  <g class="ledgerLines above">
                     <path d="M3700 685 L4022 685" stroke-width="22" />
                     <path d="M4390 685 L4712 685" stroke-width="22" />
                     <path d="M5080 685 L5402 685" stroke-width="22" />
                     <path d="M3700 505 L4022 505" stroke-width="22" />
                  </g>
                  <g id="p1g3n4lf" class="layer">
                     <g id="q10xc2ev" class="rest">
                        <use xlink:href="#E4E6-b1xu0rd7" transform="translate(3298, 1225) scale(0.72, 0.72)" />
                     </g>
                     <g id="rwo8ajs" class="note">
                        <g class="notehead">
                           <use xlink:href="#E0A4-b1xu0rd7" transform="translate(3748, 505) scale(0.72, 0.72)" />
                        </g>
                        <g id="u1u4akj7" class="stem">
                           <path d="M3757 533 L3757 1225" stroke-width="18" />
                        </g>
                     </g>
                     <g id="sei1dgl" class="note">
                        <g class="notehead">
                           <use xlink:href="#E0A4-b1xu0rd7" transform="translate(4438, 595) scale(0.72, 0.72)" />
                        </g>
                        <g id="v107pfd5" class="stem">
                           <path d="M4447 623 L4447 1225" stroke-width="18" />
                        </g>
                        <g id="twxj3td" class="accid" />
                     </g>
                     <g id="u19o52up" class="note">
                        <g class="notehead">
                           <use xlink:href="#E0A4-b1xu0rd7" transform="translate(5128, 685) scale(0.72, 0.72)" />
                        </g>
                        <g id="wlosx9d" class="stem">
                           <path d="M5137 713 L5137 1315" stroke-width="18" />
                        </g>
                     </g>
                     <g id="v1qzn2a4" class="note">
                        <g class="notehead">
                           <use xlink:href="#E0A4-b1xu0rd7" transform="translate(5818, 775) scale(0.72, 0.72)" />
                        </g>
                        <g id="x185d2om" class="stem">
                           <path d="M5827 803 L5827 1405" stroke-width="18" />
                           <g id="ynqtvqg" class="flag">
                              <use xlink:href="#E241-b1xu0rd7" transform="translate(5818, 1405) scale(0.72, 0.72)" />
                           </g>
                        </g>
                     </g>
                  </g>
               </g>
               <g id="wt0x6xm" class="tempo">
                  <text x="3298" y="280" font-size="0px">
                     <tspan id="x1gbhakx" class="text">
                        <tspan font-size="405px">Allegro</tspan>
                     </tspan>
                  </text>
               </g>
               <g id="b17x16z9" class="tie">
                  <path d="M6089,730 C6156,577 6344,577 6416,730 C6319,624 6183,624 6089,730" stroke-width="9" stroke-linecap="round" stroke-linejoin="round" />
               </g>
               <g id="nm2p94f" class="barLine">
                  <path d="M6268 865 L6268 1585" stroke-width="27" />
               </g>
            </g>
            <g id="y1an87w5" class="measure">
               <g id="h1v712vy" class="staff">
                  <path d="M6281 865 L10256 865" stroke-width="13" />
                  <path d="M6281 1045 L10256 1045" stroke-width="13" />
                  <path d="M6281 1225 L10256 1225" stroke-width="13" />
                  <path d="M6281 1405 L10256 1405" stroke-width="13" />
                  <path d="M6281 1585 L10256 1585" stroke-width="13" />
                  <g id="iic1b4z" class="layer">
                     <g id="j1uul0xm" class="beam">
                        <polygon points="6461,1450 6929,1495 6929,1405 6461,1360" />
                        <g id="kn9juuz" class="note">
                           <g class="notehead">
                              <use xlink:href="#E0A4-b1xu0rd7" transform="translate(6461, 775) scale(0.72, 0.72)" />
                           </g>
                           <g id="zzbfae5" class="stem">
                              <path d="M6470 803 L6470 1432" stroke-width="18" />
                           </g>
                        </g>
                        <g id="lo1i8za" class="note">
                           <g class="notehead">
                              <use xlink:href="#E0A4-b1xu0rd7" transform="translate(6911, 865) scale(0.72, 0.72)" />
                           </g>
                           <g id="a24w480" class="stem">
                              <path d="M6920 893 L6920 1477" stroke-width="18" />
                           </g>
                        </g>
                     </g>
                     <g id="m1eam434" class="beam">
                        <polygon points="7361,1450 8145,1450 8145,1360 7361,1360" />
                        <polygon points="7820,1315 8145,1315 8145,1225 7820,1225" />
                        <g id="nupxtjo" class="note">
                           <g class="notehead">
                              <use xlink:href="#E0A4-b1xu0rd7" transform="translate(7361, 865) scale(0.72, 0.72)" />
                           </g>
                           <g id="bzm38hi" class="stem">
                              <path d="M7370 893 L7370 1432" stroke-width="18" />
                           </g>
                        </g>
                        <g id="o1rr3rau" class="note">
                           <g class="notehead">
                              <use xlink:href="#E0A4-b1xu0rd7" transform="translate(7811, 775) scale(0.72, 0.72)" />
                           </g>
                           <g id="cgnrqhp" class="stem">
                              <path d="M7820 803 L7820 1432" stroke-width="18" />
                           </g>
                        </g>
                        <g id="p1sknpsu" class="note">
                           <g class="notehead">
                              <use xlink:href="#E0A4-b1xu0rd7" transform="translate(8127, 865) scale(0.72, 0.72)" />
                           </g>
                           <g id="dwqzy5y" class="stem">
                              <path d="M8136 893 L8136 1432" stroke-width="18" />
                           </g>
                        </g>
                     </g>
                     <g id="q14t2xl8" class="beam">
                        <polygon points="8443,1765 9811,1765 9811,1675 8443,1675" />
                        <g id="r1d98cas" class="note">
                           <g class="notehead">
                              <use xlink:href="#E0A4-b1xu0rd7" transform="translate(8443, 955) scale(0.72, 0.72)" />
                           </g>
                           <g id="ezp35oe" class="stem">
                              <path d="M8452 983 L8452 1747" stroke-width="18" />
                           </g>
                        </g>
                        <g id="s28l9kg" class="note">
                           <g class="notehead">
                              <use xlink:href="#E0A4-b1xu0rd7" transform="translate(8893, 1135) scale(0.72, 0.72)" />
                           </g>
                           <g id="famyz03" class="stem">
                              <path d="M8902 1163 L8902 1747" stroke-width="18" />
                           </g>
                        </g>
                        <g id="tgo6oh6" class="note">
                           <g class="notehead">
                              <use xlink:href="#E0A4-b1xu0rd7" transform="translate(9343, 1045) scale(0.72, 0.72)" />
                           </g>
                           <g id="gfs26p1" class="stem">
                              <path d="M9352 1073 L9352 1747" stroke-width="18" />
                           </g>
                        </g>
                        <g id="uyo3c34" class="note">
                           <g class="notehead">
                              <use xlink:href="#E0A4-b1xu0rd7" transform="translate(9793, 955) scale(0.72, 0.72)" />
                           </g>
                           <g id="hnc88zr" class="stem">
                              <path d="M9802 983 L9802 1747" stroke-width="18" />
                           </g>
                        </g>
                     </g>
                  </g>
               </g>
               <g id="gpm7rzz" class="barLine">
                  <path d="M10243 865 L10243 1585" stroke-width="27" />
               </g>
            </g>
            <g id="v1wzuxqj" class="measure">
               <g id="ei3wi8u" class="staff">
                  <path d="M10256 865 L14049 865" stroke-width="13" />
                  <path d="M10256 1045 L14049 1045" stroke-width="13" />
                  <path d="M10256 1225 L14049 1225" stroke-width="13" />
                  <path d="M10256 1405 L14049 1405" stroke-width="13" />
                  <path d="M10256 1585 L14049 1585" stroke-width="13" />
                  <g class="ledgerLines above">
                     <path d="M11738 685 L12060 685" stroke-width="22" />
                     <path d="M12638 685 L12960 685" stroke-width="22" />
                     <path d="M13538 685 L13860 685" stroke-width="22" />
                     <path d="M11738 505 L12060 505" stroke-width="22" />
                  </g>
                  <g id="f25s6bb" class="layer">
                     <g id="g179fhav" class="beam">
                        <polygon points="10436,1450 11804,1450 11804,1360 10436,1360" />
                        <g id="hyov6fs" class="note">
                           <g class="notehead">
                              <use xlink:href="#E0A4-b1xu0rd7" transform="translate(10436, 865) scale(0.72, 0.72)" />
                           </g>
                           <g id="ixbuqog" class="stem">
                              <path d="M10445 893 L10445 1432" stroke-width="18" />
                           </g>
                        </g>
                        <g id="idofo0v" class="note">
                           <g class="notehead">
                              <use xlink:href="#E0A4-b1xu0rd7" transform="translate(10886, 865) scale(0.72, 0.72)" />
                           </g>
                           <g id="j1sdf0lx" class="stem">
                              <path d="M10895 893 L10895 1432" stroke-width="18" />
                           </g>
                        </g>
                        <g id="js9odqf" class="note">
                           <g class="notehead">
                              <use xlink:href="#E0A4-b1xu0rd7" transform="translate(11336, 775) scale(0.72, 0.72)" />
                           </g>
                           <g id="ks9f53q" class="stem">
                              <path d="M11345 803 L11345 1432" stroke-width="18" />
                           </g>
                        </g>
                        <g id="k10i30ev" class="note">
                           <g class="notehead">
                              <use xlink:href="#E0A4-b1xu0rd7" transform="translate(11786, 505) scale(0.72, 0.72)" />
                           </g>
                           <g id="lkb6qug" class="stem">
                              <path d="M11795 533 L11795 1432" stroke-width="18" />
                           </g>
                        </g>
                     </g>
                     <g id="l1a4sp3v" class="beam">
                        <polygon points="12236,1585 13604,1585 13604,1495 12236,1495" />
                        <g id="m1k8l5mn" class="note">
                           <g class="notehead">
                              <use xlink:href="#E0A4-b1xu0rd7" transform="translate(12236, 865) scale(0.72, 0.72)" />
                           </g>
                           <g id="m1124erg" class="stem">
                              <path d="M12245 893 L12245 1567" stroke-width="18" />
                           </g>
                        </g>
                        <g id="n1euixt1" class="note">
                           <g class="notehead">
                              <use xlink:href="#E0A4-b1xu0rd7" transform="translate(12686, 595) scale(0.72, 0.72)" />
                           </g>
                           <g id="n196y8xp" class="stem">
                              <path d="M12695 623 L12695 1567" stroke-width="18" />
                           </g>
                           <g id="o1r32r46" class="accid" />
                        </g>
                        <g id="p13wo999" class="note">
                           <g class="notehead">
                              <use xlink:href="#E0A4-b1xu0rd7" transform="translate(13136, 955) scale(0.72, 0.72)" />
                           </g>
                           <g id="osk82ey" class="stem">
                              <path d="M13145 983 L13145 1567" stroke-width="18" />
                           </g>
                        </g>
                        <g id="q121k8qa" class="note">
                           <g class="notehead">
                              <use xlink:href="#E0A4-b1xu0rd7" transform="translate(13586, 685) scale(0.72, 0.72)" />
                           </g>
                           <g id="psbv4hk" class="stem">
                              <path d="M13595 713 L13595 1567" stroke-width="18" />
                           </g>
                        </g>
                     </g>
                  </g>
               </g>
               <g id="d1qjehz2" class="barLine">
                  <path d="M14036 865 L14036 1585" stroke-width="27" />
               </g>
            </g>
            <g id="ygyhbsw" class="systemMilestoneEnd s1qrexfb" />
         </g>
         <g id="z10cr8um" class="pageMilestoneEnd d1xrxz46" />
         <g id="a1ynv8kz" class="pageMilestoneEnd c8dq2of" />
         <g id="cshr2m2" class="pgHead autogenerated" />
      </g>
   </svg>
</svg>
