<?xml version="1.0" encoding="UTF-8" standalone="no"?>
<svg width="967px" height="124px" version="1.1" xmlns="http://www.w3.org/2000/svg" xmlns:xlink="http://www.w3.org/1999/xlink" overflow="visible" id="f1hmsft4">
   <desc>Engraved by Verovio 6.1.0[undefined]</desc>
   <defs>
      <g id="E050-f1hmsft4">
         <path transform="scale(1,-1)" d="M441 -245c-23 -4 -48 -6 -76 -6c-59 0 -102 7 -130 20c-88 42 -150 93 -187 154c-26 44 -43 103 -48 176c0 6 -1 13 -1 19c0 54 15 111 45 170c29 57 65 106 110 148s96 85 153 127c-3 16 -8 46 -13 92c-4 43 -5 73 -5 89c0 117 16 172 69 257c34 54 64 82 89 82 c21 0 43 -30 69 -92s39 -115 41 -159v-15c0 -109 -21 -162 -67 -241c-13 -20 -63 -90 -98 -118c-13 -9 -25 -19 -37 -29l31 -181c8 1 18 2 28 2c58 0 102 -12 133 -35c59 -43 92 -104 98 -184c1 -7 1 -15 1 -22c0 -123 -87 -209 -181 -248c8 -57 17 -110 25 -162 c5 -31 6 -58 6 -80c0 -30 -5 -53 -14 -70c-35 -64 -88 -99 -158 -103c-5 0 -11 -1 -16 -1c-37 0 -72 10 -108 27c-50 24 -77 59 -80 105v11c0 29 7 55 20 76c18 28 45 42 79 44h6c49 0 93 -42 97 -87v-9c0 -51 -34 -86 -105 -106c17 -24 51 -36 102 -36c62 0 116 43 140 85 c9 16 13 41 13 74c0 20 -1 42 -5 67c-8 53 -18 106 -26 159zM461 939c-95 0 -135 -175 -135 -286c0 -24 2 -48 5 -71c50 39 92 82 127 128c40 53 60 100 60 140v8c-4 53 -22 81 -55 81h-2zM406 119l54 -326c73 25 110 78 110 161c0 7 0 15 -1 23c-7 95 -57 142 -151 142h-12 zM382 117c-72 -2 -128 -47 -128 -120v-7c2 -46 43 -99 75 -115c-3 -2 -7 -5 -10 -10c-70 33 -116 88 -123 172v11c0 68 44 126 88 159c23 17 49 29 78 36l-29 170c-21 -13 -52 -37 -92 -73c-50 -44 -86 -84 -109 -119c-45 -69 -67 -130 -67 -182v-13c5 -68 35 -127 93 -176 s125 -73 203 -73c25 0 50 3 75 9c-19 111 -36 221 -54 331z" />
      </g>
      <g id="E260-f1hmsft4">
         <path transform="scale(1,-1)" d="M20 110c32 16 54 27 93 27c26 0 35 -3 54 -13c13 -7 24 -20 27 -38l4 -25c0 -28 -16 -57 -45 -89c-23 -25 -39 -44 -65 -68l-88 -79v644h20v-359zM90 106c-32 0 -48 -10 -70 -29v-194c31 31 54 59 71 84c21 32 32 59 32 84c0 9 1 16 1 20c0 14 -3 21 -11 30l-8 3z" />
      </g>
      <g id="E084-f1hmsft4">
         <path transform="scale(1,-1)" d="M20 -78c84 97 114 180 134 329h170c-13 -32 -82 -132 -99 -151l-84 -97c-33 -36 -59 -63 -80 -81h162v102l127 123v-225h57v-39h-57v-34c0 -43 19 -65 57 -65v-34h-244v36c48 0 60 26 60 70v27h-203v39z" />
      </g>
      <g id="E0A3-f1hmsft4">
         <path transform="scale(1,-1)" d="M278 64c0 22 -17 39 -43 39c-12 0 -26 -3 -41 -10c-85 -43 -165 -94 -165 -156c5 -25 15 -32 49 -32c67 11 200 95 200 159zM0 -36c0 68 73 174 200 174c66 0 114 -39 114 -97c0 -84 -106 -173 -218 -173c-64 0 -96 32 -96 96z" />
      </g>
      <g id="E0A4-f1hmsft4">
         <path transform="scale(1,-1)" d="M0 -39c0 68 73 172 200 172c66 0 114 -37 114 -95c0 -84 -106 -171 -218 -171c-64 0 -96 30 -96 94z" />
      </g>
   </defs>
   <style type="text/css">#f1hmsft4 g.ending, #f1hmsft4 g.fing, #f1hmsft4 g.reh, #f1hmsft4 g.tempo {font-weight:bold;}#f1hmsft4 g.dir, #f1hmsft4 g.dynam, #f1hmsft4 g.mNum {font-style:italic;}#f1hmsft4 g.label {font-weight:normal;}#f1hmsft4 ellipse, #f1hmsft4 path, #f1hmsft4 polygon, #f1hmsft4 polyline, #f1hmsft4 rect {stroke:currentColor}</style>
   <svg class="definition-scale" color="black" font-family="Times, serif" viewBox="0 0 14870 1900">
      <g class="page-margin" transform="translate(50, 50)">
         <g id="g1a5fz4f" class="mdiv pageMilestone" />
         <g id="h13gzlg9" class="score pageMilestone" />
         <g id="f825nib" class="system">
            <g id="wz7r6mm" class="section systemMilestone" />
            <g id="x1mkd7qu" class="measure">
               <g id="g1dfbye0" class="staff">
                  <path d="M0 540 L4048 540" stroke-width="13" />
                  <path d="M0 720 L4048 720" stroke-width="13" />
                  <path d="M0 900 L4048 900" stroke-width="13" />
                  <path d="M0 1080 L4048 1080" stroke-width="13" />
                  <path d="M0 1260 L4048 1260" stroke-width="13" />
                  <g id="n1w4nq2z" class="clef">
                     <use xlink:href="#E050-f1hmsft4" transform="translate(90, 1080) scale(0.72, 0.72)" />
                  </g>
                  <g id="o14atxyp" class="keySig">
                     <g id="p1x3fdc0" class="keyAccid">
                        <use xlink:href="#E260-f1hmsft4" transform="translate(735, 900) scale(0.72, 0.72)" />
                     </g>
                  </g>
                  <g id="qu93561" class="meterSig">
                     <use xlink:href="#E084-f1hmsft4" transform="translate(1043, 720) scale(0.72, 0.72)" />
                     <use xlink:href="#E084-f1hmsft4" transform="translate(1043, 1080) scale(0.72, 0.72)" />
                  </g>
                  <g id="hyht89c" class="layer">
                     <g id="i1yn1nw2" class="note">
                        <g class="notehead">
                           <use xlink:href="#E0A3-f1hmsft4" transform="translate(1605, 810) scale(0.72, 0.72)" />
                        </g>
                        <g id="eexawdd" class="stem">
                           <path d="M1614 835 L1614 1440" stroke-width="18" />
                        </g>
                     </g>
                     <g id="j1t750z1" class="note">
                        <g class="notehead">
                           <use xlink:href="#E0A4-f1hmsft4" transform="translate(2655, 720) scale(0.72, 0.72)" />
                        </g>
                        <g id="fv0uwbo" class="stem">
                           <path d="M2664 748 L2664 1350" stroke-width="18" />
                        </g>
                     </g>
                     <g id="k1be2fh0" class="note">
                        <g class="notehead">
                           <use xlink:href="#E0A4-f1hmsft4" transform="translate(3345, 810) scale(0.72, 0.72)" />
                        </g>
                        <g id="g13hlljq" class="stem">
                           <path d="M3354 838 L3354 1440" stroke-width="18" />
                        </g>
                     </g>
                  </g>
               </g>
               <g id="lmeb9hk" class="tempo">
                  <text x="1043" y="411" font-size="0px">
                     <tspan id="mec4771" class="text">
                        <tspan font-size="405px">Grave / Adagio</tspan>
                     </tspan>
                  </text>
               </g>
               <g id="foat6pg" class="barLine">
                  <path d="M4035 540 L4035 1260" stroke-width="27" />
               </g>
            </g>
            <g id="n1hxyzfp" class="measure">
               <g id="wmsa7g6" class="staff">
                  <path d="M4048 540 L7417 540" stroke-width="13" />
                  <path d="M4048 720 L7417 720" stroke-width="13" />
                  <path d="M4048 900 L7417 900" stroke-width="13" />
                  <path d="M4048 1080 L7417 1080" stroke-width="13" />
                  <path d="M4048 1260 L7417 1260" stroke-width="13" />
                  <g id="xcwbip8" class="layer">
                     <g id="ylkb7an" class="note">
                        <g class="notehead">
                           <use xlink:href="#E0A4-f1hmsft4" transform="translate(4228, 900) scale(0.72, 0.72)" />
                        </g>
                        <g id="h14v8j9y" class="stem">
                           <path d="M4237 928 L4237 1500" stroke-width="18" />
                        </g>
                        <g id="za9mxbc" class="accid" />
                     </g>
                     <g id="at2ewh0" class="beam">
                        <polygon points="4918,1440 5516,1530 5516,1440 4918,1350" />
                        <polygon points="5290,1363 5516,1395 5516,1305 5290,1273" />
                        <g id="bw20wc6" class="note">
                           <g class="notehead">
                              <use xlink:href="#E0A4-f1hmsft4" transform="translate(4918, 810) scale(0.72, 0.72)" />
                           </g>
                           <g id="j1pu8csi" class="dots">
                              <ellipse cx="5234" cy="810" rx="36" ry="36" />
                           </g>
                           <g id="ijf5w38" class="stem">
                              <path d="M4927 838 L4927 1422" stroke-width="18" />
                           </g>
                        </g>
                        <g id="c1mv22r0" class="note">
                           <g class="notehead">
                              <use xlink:href="#E0A4-f1hmsft4" transform="translate(5498, 900) scale(0.72, 0.72)" />
                           </g>
                           <g id="k1p3kl9d" class="stem">
                              <path d="M5507 928 L5507 1512" stroke-width="18" />
                           </g>
                           <g id="d1qe1m1e" class="accid" />
                        </g>
                     </g>
                     <g id="eklfx4r" class="beam">
                        <polygon points="6022,315 6490,360 6490,450 6022,405" />
                        <g id="f1iex8pe" class="note">
                           <g class="notehead">
                              <use xlink:href="#E0A4-f1hmsft4" transform="translate(5814, 990) scale(0.72, 0.72)" />
                           </g>
                           <g id="l1kbbcsu" class="stem">
                              <path d="M6031 962 L6031 333" stroke-width="18" />
                           </g>
                        </g>
                        <g id="g1hf5y0w" class="note">
                           <g class="notehead">
                              <use xlink:href="#E0A4-f1hmsft4" transform="translate(6264, 1170) scale(0.72, 0.72)" />
                           </g>
                           <g id="m8zimxj" class="stem">
                              <path d="M6481 1142 L6481 378" stroke-width="18" />
                           </g>
                        </g>
                     </g>
                     <g id="h1b9r2am" class="note">
                        <g class="notehead">
                           <use xlink:href="#E0A4-f1hmsft4" transform="translate(6714, 810) scale(0.72, 0.72)" />
                        </g>
                        <g id="n1hpamoa" class="stem">
                           <path d="M6723 838 L6723 1440" stroke-width="18" />
                        </g>
                     </g>
                  </g>
               </g>
               <g id="lail53r" class="tie">
                  <path d="M6985,765 C7116,611 7417,611 7552,765 C7398,660 7135,660 6985,765" stroke-width="9" stroke-linecap="round" stroke-linejoin="round" />
               </g>
               <g id="vgawxvf" class="barLine">
                  <path d="M7404 540 L7404 1260" stroke-width="27" />
               </g>
            </g>
            <g id="i1tozloj" class="measure">
               <g id="r1fka77u" class="staff">
                  <path d="M7417 540 L10894 540" stroke-width="13" />
                  <path d="M7417 720 L10894 720" stroke-width="13" />
                  <path d="M7417 900 L10894 900" stroke-width="13" />
                  <path d="M7417 1080 L10894 1080" stroke-width="13" />
                  <path d="M7417 1260 L10894 1260" stroke-width="13" />
                  <g id="s1yqg43x" class="layer">
                     <g id="tdbuh9m" class="beam">
                        <polygon points="7597,1485 8381,1485 8381,1395 7597,1395" />
                        <polygon points="8056,1350 8381,1350 8381,1260 8056,1260" />
                        <g id="un3vdds" class="note">
                           <g class="notehead">
                              <use xlink:href="#E0A4-f1hmsft4" transform="translate(7597, 810) scale(0.72, 0.72)" />
                           </g>
                           <g id="o1uejuqy" class="stem">
                              <path d="M7606 838 L7606 1467" stroke-width="18" />
                           </g>
                        </g>
                        <g id="vwu8g0v" class="note">
                           <g class="notehead">
                              <use xlink:href="#E0A4-f1hmsft4" transform="translate(8047, 900) scale(0.72, 0.72)" />
                           </g>
                           <g id="p1blqi86" class="stem">
                              <path d="M8056 928 L8056 1467" stroke-width="18" />
                           </g>
                           <g id="wvh0gzj" class="accid" />
                        </g>
                        <g id="xhuuvzl" class="note">
                           <g class="notehead">
                              <use xlink:href="#E0A4-f1hmsft4" transform="translate(8363, 810) scale(0.72, 0.72)" />
                           </g>
                           <g id="q1je7xri" class="stem">
                              <path d="M8372 838 L8372 1467" stroke-width="18" />
                           </g>
                        </g>
                     </g>
                     <g id="y1xk9y8o" class="note">
                        <g class="notehead">
                           <use xlink:href="#E0A4-f1hmsft4" transform="translate(8679, 720) scale(0.72, 0.72)" />
                        </g>
                        <g id="sfa0xju" class="dots">
                           <ellipse cx="8995" cy="630" rx="36" ry="36" />
                        </g>
                        <g id="r1h42gvo" class="stem">
                           <path d="M8688 748 L8688 1350" stroke-width="18" />
                        </g>
                     </g>
                     <g id="z1r06krk" class="beam">
                        <polygon points="9559,1485 9893,1440 9893,1350 9559,1395" />
                        <polygon points="9559,1350 9893,1305 9893,1215 9559,1260" />
                        <g id="a2csaf4" class="note">
                           <g class="notehead">
                              <use xlink:href="#E0A4-f1hmsft4" transform="translate(9559, 810) scale(0.72, 0.72)" />
                           </g>
                           <g id="tsug238" class="stem">
                              <path d="M9568 838 L9568 1467" stroke-width="18" />
                           </g>
                        </g>
                        <g id="b15g8a0a" class="note">
                           <g class="notehead">
                              <use xlink:href="#E0A4-f1hmsft4" transform="translate(9875, 720) scale(0.72, 0.72)" />
                           </g>
                           <g id="u1gxa5rf" class="stem">
                              <path d="M9884 748 L9884 1422" stroke-width="18" />
                           </g>
                        </g>
                     </g>
                     <g id="c8c4of1" class="note">
                        <g class="notehead">
                           <use xlink:href="#E0A4-f1hmsft4" transform="translate(10191, 630) scale(0.72, 0.72)" />
                        </g>
                        <g id="v1d1uw4c" class="stem">
                           <path d="M10200 658 L10200 1260" stroke-width="18" />
                        </g>
                     </g>
                  </g>
               </g>
               <g id="q1frgakq" class="barLine">
                  <path d="M10881 540 L10881 1260" stroke-width="27" />
               </g>
            </g>
            <g id="d1bd5j3u" class="measure">
               <g id="m1ysy5ei" class="staff">
                  <path d="M10894 540 L14777 540" stroke-width="13" />
                  <path d="M10894 720 L14777 720" stroke-width="13" />
                  <path d="M10894 900 L14777 900" stroke-width="13" />
                  <path d="M10894 1080 L14777 1080" stroke-width="13" />
                  <path d="M10894 1260 L14777 1260" stroke-width="13" />
                  <g class="ledgerLines above">
                     <path d="M11810 360 L12096 360" stroke-width="22" />
                     <path d="M12126 360 L12412 360" stroke-width="22" />
                     <path d="M12988 360 L13310 360" stroke-width="22" />
                     <path d="M13620 360 L13942 360" stroke-width="22" />
                  </g>
                  <g id="n18sbr0m" class="layer">
                     <g id="o1bd3wsn" class="beam">
                        <polygon points="11074,1170 11858,1170 11858,1080 11074,1080" />
                        <polygon points="11533,1035 11858,1035 11858,945 11533,945" />
                        <g id="pxyzbq6" class="note">
                           <g class="notehead">
                              <use xlink:href="#E0A4-f1hmsft4" transform="translate(11074, 540) scale(0.72, 0.72)" />
                           </g>
                           <g id="wdh63y8" class="stem">
                              <path d="M11083 568 L11083 1152" stroke-width="18" />
                           </g>
                        </g>
                        <g id="qwjlhss" class="note">
                           <g class="notehead">
                              <use xlink:href="#E0A4-f1hmsft4" transform="translate(11524, 450) scale(0.72, 0.72)" />
                           </g>
                           <g id="x1ds25z6" class="stem">
                              <path d="M11533 478 L11533 1152" stroke-width="18" />
                           </g>
                        </g>
                        <g id="r1cdyvng" class="note">
                           <g class="notehead">
                              <use xlink:href="#E0A4-f1hmsft4" transform="translate(11840, 360) scale(0.72, 0.72)" />
                           </g>
                           <g id="ytigyup" class="stem">
                              <path d="M11849 388 L11849 1152" stroke-width="18" />
                           </g>
                        </g>
                     </g>
                     <g id="s1p14x2s" class="note">
                        <g class="notehead">
                           <use xlink:href="#E0A4-f1hmsft4" transform="translate(12156, 270) scale(0.72, 0.72)" />
                        </g>
                        <g id="a1jnmm25" class="dots">
                           <ellipse cx="12472" cy="270" rx="36" ry="36" />
                        </g>
                        <g id="z1azleme" class="stem">
                           <path d="M12165 298 L12165 900" stroke-width="18" />
                        </g>
                        <g id="t11u9klg" class="accid" />
                     </g>
                     <g id="uki4u2w" class="beam">
                        <polygon points="13036,1080 13370,1125 13370,1035 13036,990" />
                        <polygon points="13036,945 13370,990 13370,900 13036,855" />
                        <g id="v1m400hc" class="note">
                           <g class="notehead">
                              <use xlink:href="#E0A4-f1hmsft4" transform="translate(13036, 360) scale(0.72, 0.72)" />
                           </g>
                           <g id="b4s0w4h" class="stem">
                              <path d="M13045 388 L13045 1062" stroke-width="18" />
                           </g>
                        </g>
                        <g id="w1s5w3fz" class="note">
                           <g class="notehead">
                              <use xlink:href="#E0A4-f1hmsft4" transform="translate(13352, 450) scale(0.72, 0.72)" />
                           </g>
                           <g id="c9y2t7b" class="stem">
                              <path d="M13361 478 L13361 1107" stroke-width="18" />
                           </g>
                        </g>
                     </g>
                     <g id="x1gjichh" class="beam">
                        <polygon points="13668,1080 14452,1260 14452,1170 13668,990" />
                        <polygon points="14127,1051 14452,1125 14452,1035 14127,961" />
                        <g id="y1s41jbb" class="note">
                           <g class="notehead">
                              <use xlink:href="#E0A4-f1hmsft4" transform="translate(13668, 360) scale(0.72, 0.72)" />
                           </g>
                           <g id="dckf8e3" class="stem">
                              <path d="M13677 388 L13677 1062" stroke-width="18" />
                           </g>
                        </g>
                        <g id="z1b9rj49" class="note">
                           <g class="notehead">
                              <use xlink:href="#E0A4-f1hmsft4" transform="translate(14118, 540) scale(0.72, 0.72)" />
                           </g>
                           <g id="elz77ay" class="stem">
                              <path d="M14127 568 L14127 1168" stroke-width="18" />
                           </g>
                        </g>
                        <g id="a1mj0nob" class="note">
                           <g class="notehead">
                              <use xlink:href="#E0A4-f1hmsft4" transform="translate(14434, 630) scale(0.72, 0.72)" />
                           </g>
                           <g id="f1berflf" class="stem">
                              <path d="M14443 658 L14443 1242" stroke-width="18" />
                           </g>
                        </g>
                     </g>
                  </g>
               </g>
               <g id="lyltoaz" class="barLine">
                  <path d="M14764 540 L14764 1260" stroke-width="27" />
               </g>
            </g>
            <g id="i2cgvd0" class="systemMilestoneEnd wz7r6mm" />
         </g>
         <g id="jw91hnz" class="pageMilestoneEnd h13gzlg9" />
         <g id="khqmur4" class="pageMilestoneEnd g1a5fz4f" />
         <g id="m1y5v5j5" class="pgHead autogenerated" />
      </g>
   </svg>
</svg>
