<?xml version="1.0" encoding="UTF-8" standalone="no"?>
<svg width="920px" height="192px" version="1.1" xmlns="http://www.w3.org/2000/svg" xmlns:xlink="http://www.w3.org/1999/xlink" overflow="visible" id="ycwm9f0">
   <desc>Engraved by Verovio 6.1.0[undefined]</desc>
   <defs>
      <g id="E050-ycwm9f0">
         <path transform="scale(1,-1)" d="M441 -245c-23 -4 -48 -6 -76 -6c-59 0 -102 7 -130 20c-88 42 -150 93 -187 154c-26 44 -43 103 -48 176c0 6 -1 13 -1 19c0 54 15 111 45 170c29 57 65 106 110 148s96 85 153 127c-3 16 -8 46 -13 92c-4 43 -5 73 -5 89c0 117 16 172 69 257c34 54 64 82 89 82 c21 0 43 -30 69 -92s39 -115 41 -159v-15c0 -109 -21 -162 -67 -241c-13 -20 -63 -90 -98 -118c-13 -9 -25 -19 -37 -29l31 -181c8 1 18 2 28 2c58 0 102 -12 133 -35c59 -43 92 -104 98 -184c1 -7 1 -15 1 -22c0 -123 -87 -209 -181 -248c8 -57 17 -110 25 -162 c5 -31 6 -58 6 -80c0 -30 -5 -53 -14 -70c-35 -64 -88 -99 -158 -103c-5 0 -11 -1 -16 -1c-37 0 -72 10 -108 27c-50 24 -77 59 -80 105v11c0 29 7 55 20 76c18 28 45 42 79 44h6c49 0 93 -42 97 -87v-9c0 -51 -34 -86 -105 -106c17 -24 51 -36 102 -36c62 0 116 43 140 85 c9 16 13 41 13 74c0 20 -1 42 -5 67c-8 53 -18 106 -26 159zM461 939c-95 0 -135 -175 -135 -286c0 -24 2 -48 5 -71c50 39 92 82 127 128c40 53 60 100 60 140v8c-4 53 -22 81 -55 81h-2zM406 119l54 -326c73 25 110 78 110 161c0 7 0 15 -1 23c-7 95 -57 142 -151 142h-12 zM382 117c-72 -2 -128 -47 -128 -120v-7c2 -46 43 -99 75 -115c-3 -2 -7 -5 -10 -10c-70 33 -116 88 -123 172v11c0 68 44 126 88 159c23 17 49 29 78 36l-29 170c-21 -13 -52 -37 -92 -73c-50 -44 -86 -84 -109 -119c-45 -69 -67 -130 -67 -182v-13c5 -68 35 -127 93 -176 s125 -73 203 -73c25 0 50 3 75 9c-19 111 -36 221 -54 331z" />
      </g>
      <g id="E260-ycwm9f0">
         <path transform="scale(1,-1)" d="M20 110c32 16 54 27 93 27c26 0 35 -3 54 -13c13 -7 24 -20 27 -38l4 -25c0 -28 -16 -57 -45 -89c-23 -25 -39 -44 -65 -68l-88 -79v644h20v-359zM90 106c-32 0 -48 -10 -70 -29v-194c31 31 54 59 71 84c21 32 32 59 32 84c0 9 1 16 1 20c0 14 -3 21 -11 30l-8 3z" />
      </g>
      <g id="E084-ycwm9f0">
         <path transform="scale(1,-1)" d="M20 -78c84 97 114 180 134 329h170c-13 -32 -82 -132 -99 -151l-84 -97c-33 -36 -59 -63 -80 -81h162v102l127 123v-225h57v-39h-57v-34c0 -43 19 -65 57 -65v-34h-244v36c48 0 60 26 60 70v27h-203v39z" />
      </g>
      <g id="E4E2-ycwm9f0">
         <path transform="scale(1,-1)" d="M0 10v230c0 8 2 10 10 10h105c8 0 10 -2 10 -10v-230c0 -8 -2 -10 -10 -10h-105c-8 0 -10 2 -10 10z" />
      </g>
      <g id="E082-ycwm9f0">
         <path transform="scale(1,-1)" d="M124 -185c-18 0 -55 -14 -65 -65h-36l-3 30c0 25 6 45 18 63c11 19 22 30 39 43l121 82l37 29c15 11 27 29 38 54c12 24 18 47 18 70c0 40 -19 88 -94 88c-25 0 -32 0 -50 -8c-14 -5 -23 -12 -26 -22c3 -9 7 -15 10 -18l24 -17c12 -7 17 -11 27 -21c5 -7 7 -16 7 -27 c0 -12 0 -57 -79 -74c-30 0 -76 26 -76 94c0 66 81 135 197 135c72 0 181 -32 181 -150c0 -53 -32 -95 -113 -133l-91 -41c-26 -11 -45 -23 -57 -37l49 7c84 0 115 -41 148 -41c20 0 33 20 39 61h35c0 -152 -68 -168 -114 -168c-17 0 -65 0 -79 7h10l-28 17 c-49 37 -69 40 -87 42z" />
      </g>
      <g id="E4E6-ycwm9f0">
         <path transform="scale(1,-1)" d="M0 123c7 34 33 56 69 60c29 -3 43 -9 53 -29c4 -8 7 -15 10 -22c0 -21 -1 -25 -11 -35c-5 -8 -18 -14 -40 -20l12 -3l15 -1c44 0 97 26 122 56c10 11 18 26 24 42c7 1 15 2 22 3l-140 -424h-36l111 330c-10 -6 -27 -12 -53 -16l-52 -8h-10l-20 1c-1 0 -8 3 -21 6 c-37 9 -55 28 -55 60z" />
      </g>
      <g id="E0A4-ycwm9f0">
         <path transform="scale(1,-1)" d="M0 -39c0 68 73 172 200 172c66 0 114 -37 114 -95c0 -84 -106 -171 -218 -171c-64 0 -96 30 -96 94z" />
      </g>
      <g id="E241-ycwm9f0">
         <path transform="scale(1,-1)" d="M179 646c-4 8 -17 30 -18 33l-4 10c0 3 2 5 5 5s7 -2 13 -7c23 -33 46 -81 66 -132c22 -57 35 -125 35 -163c0 -104 -60 -183 -122 -241c-63 -59 -57 -53 -61 -56c-38 -34 -63 -95 -71 -95h-22v190c40 7 69 11 87 16c88 27 168 95 168 200c0 30 -12 89 -30 138 c-17 47 -31 73 -46 102z" />
      </g>
   </defs>
   <style type="text/css">#ycwm9f0 g.ending, #ycwm9f0 g.fing, #ycwm9f0 g.reh, #ycwm9f0 g.tempo {font-weight:bold;}#ycwm9f0 g.dir, #ycwm9f0 g.dynam, #ycwm9f0 g.mNum {font-style:italic;}#ycwm9f0 g.label {font-weight:normal;}#ycwm9f0 ellipse, #ycwm9f0 path, #ycwm9f0 polygon, #ycwm9f0 polyline, #ycwm9f0 rect {stroke:currentColor}</style>
   <svg class="definition-scale" color="black" font-family="Times, serif" viewBox="0 0 14140 2950">
      <g class="page-margin" transform="translate(50, 50)">
         <g id="z1js1sck" class="mdiv pageMilestone" />
         <g id="a1ubq6pc" class="score pageMilestone" />
         <g id="s15s19xp" class="system">
            <g id="pacjr8e" class="section systemMilestone" />
            <g id="qc08tjl" class="measure">
               <g id="zn4izew" class="staff">
                  <path d="M0 1594 L3118 1594" stroke-width="13" />
                  <path d="M0 1774 L3118 1774" stroke-width="13" />
                  <path d="M0 1954 L3118 1954" stroke-width="13" />
                  <path d="M0 2134 L3118 2134" stroke-width="13" />
                  <path d="M0 2314 L3118 2314" stroke-width="13" />
                  <g id="x8yurk" class="clef">
                     <use xlink:href="#E050-ycwm9f0" transform="translate(90, 2134) scale(0.72, 0.72)" />
                  </g>
                  <g id="y1es1q28" class="keySig">
                     <g id="z9flsed" class="keyAccid">
                        <use xlink:href="#E260-ycwm9f0" transform="translate(735, 1954) scale(0.72, 0.72)" />
                     </g>
                  </g>
                  <g id="a161x6t9" class="meterSig">
                     <use xlink:href="#E084-ycwm9f0" transform="translate(1043, 1774) scale(0.72, 0.72)" />
                     <use xlink:href="#E084-ycwm9f0" transform="translate(1043, 2134) scale(0.72, 0.72)" />
                  </g>
                  <g id="ar1y3jn" class="layer">
                     <g id="bb0a8py" class="multiRest">
                        <use xlink:href="#E4E2-ycwm9f0" transform="translate(2213, 1954) scale(0.72, 0.72)" />
                        <use xlink:href="#E082-ycwm9f0" transform="translate(2099, 1324) scale(0.72, 0.72)" />
                     </g>
                  </g>
               </g>
               <g id="y700hcp" class="barLine">
                  <path d="M3105 1594 L3105 2314" stroke-width="27" />
               </g>
            </g>
            <g id="c4o4wns" class="measure">
               <g id="l1okev15" class="staff">
                  <path d="M3118 1594 L6281 1594" stroke-width="13" />
                  <path d="M3118 1774 L6281 1774" stroke-width="13" />
                  <path d="M3118 1954 L6281 1954" stroke-width="13" />
                  <path d="M3118 2134 L6281 2134" stroke-width="13" />
                  <path d="M3118 2314 L6281 2314" stroke-width="13" />
                  <g class="ledgerLines above">
                     <path d="M3700 1414 L4022 1414" stroke-width="22" />
                     <path d="M4390 1414 L4712 1414" stroke-width="22" />
                     <path d="M5080 1414 L5402 1414" stroke-width="22" />
                     <path d="M3700 1234 L4022 1234" stroke-width="22" />
                  </g>
                  <g id="mrpukwa" class="layer">
                     <g id="n1wk463e" class="rest">
                        <use xlink:href="#E4E6-ycwm9f0" transform="translate(3298, 1954) scale(0.72, 0.72)" />
                     </g>
                     <g id="oo50nc5" class="note">
                        <g class="notehead">
                           <use xlink:href="#E0A4-ycwm9f0" transform="translate(3748, 1234) scale(0.72, 0.72)" />
                        </g>
                        <g id="uxn5x95" class="stem">
                           <path d="M3757 1262 L3757 1954" stroke-width="18" />
                        </g>
                     </g>
                     <g id="pg337mj" class="note">
                        <g class="notehead">
                           <use xlink:href="#E0A4-ycwm9f0" transform="translate(4438, 1324) scale(0.72, 0.72)" />
                        </g>
                        <g id="v1utnpr1" class="stem">
                           <path d="M4447 1352 L4447 1954" stroke-width="18" />
                        </g>
                        <g id="q1in1dol" class="accid" />
                     </g>
                     <g id="r1vshlqr" class="note">
                        <g class="notehead">
                           <use xlink:href="#E0A4-ycwm9f0" transform="translate(5128, 1414) scale(0.72, 0.72)" />
                        </g>
                        <g id="w1dk23dr" class="stem">
                           <path d="M5137 1442 L5137 2044" stroke-width="18" />
                        </g>
                     </g>
                     <g id="sksw546" class="note">
                        <g class="notehead">
                           <use xlink:href="#E0A4-ycwm9f0" transform="translate(5818, 1504) scale(0.72, 0.72)" />
                        </g>
                        <g id="x10jgmfh" class="stem">
                           <path d="M5827 1532 L5827 2134" stroke-width="18" />
                           <g id="y1qp42ho" class="flag">
                              <use xlink:href="#E241-ycwm9f0" transform="translate(5818, 2134) scale(0.72, 0.72)" />
                           </g>
                        </g>
                     </g>
                  </g>
               </g>
               <g id="t588689" class="tempo">
                  <text x="3298" y="1009" font-size="0px">
                     <tspan id="u9446o7" class="text">
                        <tspan font-size="405px">Allegro</tspan>
                     </tspan>
                  </text>
               </g>
               <g id="y1nlfyke" class="tie">
                  <path d="M6089,1459 C6156,1306 6344,1306 6416,1459 C6319,1353 6183,1353 6089,1459" stroke-width="9" stroke-linecap="round" stroke-linejoin="round" />
               </g>
               <g id="k1ptlnpz" class="barLine">
                  <path d="M6268 1594 L6268 2314" stroke-width="27" />
               </g>
            </g>
            <g id="v1fopp5q" class="measure">
               <g id="emw5od9" class="staff">
                  <path d="M6281 1594 L10256 1594" stroke-width="13" />
                  <path d="M6281 1774 L10256 1774" stroke-width="13" />
                  <path d="M6281 1954 L10256 1954" stroke-width="13" />
                  <path d="M6281 2134 L10256 2134" stroke-width="13" />
                  <path d="M6281 2314 L10256 2314" stroke-width="13" />
                  <g id="f12gogqb" class="layer">
                     <g id="g1lo0svc" class="beam">
                        <polygon points="6461,2179 6929,2224 6929,2134 6461,2089" />
                        <g id="h1503xv5" class="note">
                           <g class="notehead">
                              <use xlink:href="#E0A4-ycwm9f0" transform="translate(6461, 1504) scale(0.72, 0.72)" />
                           </g>
                           <g id="zamfdg4" class="stem">
                              <path d="M6470 1532 L6470 2161" stroke-width="18" />
                           </g>
                        </g>
                        <g id="iedooci" class="note">
                           <g class="notehead">
                              <use xlink:href="#E0A4-ycwm9f0" transform="translate(6911, 1594) scale(0.72, 0.72)" />
                           </g>
                           <g id="amsbp9x" class="stem">
                              <path d="M6920 1622 L6920 2206" stroke-width="18" />
                           </g>
                        </g>
                     </g>
                     <g id="j1jmgdtn" class="beam">
                        <polygon points="7361,2179 8145,2179 8145,2089 7361,2089" />
                        <polygon points="7820,2044 8145,2044 8145,1954 7820,1954" />
                        <g id="k1j45n3j" class="note">
                           <g class="notehead">
                              <use xlink:href="#E0A4-ycwm9f0" transform="translate(7361, 1594) scale(0.72, 0.72)" />
                           </g>
                           <g id="b1k6dnyk" class="stem">
                              <path d="M7370 1622 L7370 2161" stroke-width="18" />
                           </g>
                        </g>
                        <g id="lfbwrr8" class="note">
                           <g class="notehead">
                              <use xlink:href="#E0A4-ycwm9f0" transform="translate(7811, 1504) scale(0.72, 0.72)" />
                           </g>
                           <g id="c1p1ee5k" class="stem">
                              <path d="M7820 1532 L7820 2161" stroke-width="18" />
                           </g>
                        </g>
                        <g id="muql03e" class="note">
                           <g class="notehead">
                              <use xlink:href="#E0A4-ycwm9f0" transform="translate(8127, 1594) scale(0.72, 0.72)" />
                           </g>
                           <g id="d17cm9u8" class="stem">
                              <path d="M8136 1622 L8136 2161" stroke-width="18" />
                           </g>
                        </g>
                     </g>
                     <g id="n1kyv1ck" class="beam">
                        <polygon points="8443,2494 9811,2494 9811,2404 8443,2404" />
                        <g id="o18w0xxh" class="note">
                           <g class="notehead">
                              <use xlink:href="#E0A4-ycwm9f0" transform="translate(8443, 1684) scale(0.72, 0.72)" />
                           </g>
                           <g id="egr5c55" class="stem">
                              <path d="M8452 1712 L8452 2476" stroke-width="18" />
                           </g>
                        </g>
                        <g id="pbaty6h" class="note">
                           <g class="notehead">
                              <use xlink:href="#E0A4-ycwm9f0" transform="translate(8893, 1864) scale(0.72, 0.72)" />
                           </g>
                           <g id="f1v4o50p" class="stem">
                              <path d="M8902 1892 L8902 2476" stroke-width="18" />
                           </g>
                        </g>
                        <g id="q1flmnl1" class="note">
                           <g class="notehead">
                              <use xlink:href="#E0A4-ycwm9f0" transform="translate(9343, 1774) scale(0.72, 0.72)" />
                           </g>
                           <g id="gudg215" class="stem">
                              <path d="M9352 1802 L9352 2476" stroke-width="18" />
                           </g>
                        </g>
                        <g id="r1m8y6l6" class="note">
                           <g class="notehead">
                              <use xlink:href="#E0A4-ycwm9f0" transform="translate(9793, 1684) scale(0.72, 0.72)" />
                           </g>
                           <g id="h8b3e8n" class="stem">
                              <path d="M9802 1712 L9802 2476" stroke-width="18" />
                           </g>
                        </g>
                     </g>
                  </g>
               </g>
               <g id="dvs7man" class="barLine">
                  <path d="M10243 1594 L10243 2314" stroke-width="27" />
               </g>
            </g>
            <g id="sgyafyi" class="measure">
               <g id="b8gjnnb" class="staff">
                  <path d="M10256 1594 L14049 1594" stroke-width="13" />
                  <path d="M10256 1774 L14049 1774" stroke-width="13" />
                  <path d="M10256 1954 L14049 1954" stroke-width="13" />
                  <path d="M10256 2134 L14049 2134" stroke-width="13" />
                  <path d="M10256 2314 L14049 2314" stroke-width="13" />
                  <g class="ledgerLines above">
                     <path d="M11738 1414 L12060 1414" stroke-width="22" />
                     <path d="M12638 1414 L12960 1414" stroke-width="22" />
                     <path d="M13538 1414 L13860 1414" stroke-width="22" />
                     <path d="M11738 1234 L12060 1234" stroke-width="22" />
                  </g>
                  <g id="cxhlbov" class="layer">
                     <g id="d19noq1e" class="beam">
                        <polygon points="10436,2179 11804,2179 11804,2089 10436,2089" />
                        <g id="epyw97n" class="note">
                           <g class="notehead">
                              <use xlink:href="#E0A4-ycwm9f0" transform="translate(10436, 1594) scale(0.72, 0.72)" />
                           </g>
                           <g id="i171vxkl" class="stem">
                              <path d="M10445 1622 L10445 2161" stroke-width="18" />
                           </g>
                        </g>
                        <g id="f7dtims" class="note">
                           <g class="notehead">
                              <use xlink:href="#E0A4-ycwm9f0" transform="translate(10886, 1594) scale(0.72, 0.72)" />
                           </g>
                           <g id="jkxzhxw" class="stem">
                              <path d="M10895 1622 L10895 2161" stroke-width="18" />
                           </g>
                        </g>
                        <g id="g1tf64sm" class="note">
                           <g class="notehead">
                              <use xlink:href="#E0A4-ycwm9f0" transform="translate(11336, 1504) scale(0.72, 0.72)" />
                           </g>
                           <g id="k1fktr" class="stem">
                              <path d="M11345 1532 L11345 2161" stroke-width="18" />
                           </g>
                        </g>
                        <g id="h1rztkn6" class="note">
                           <g class="notehead">
                              <use xlink:href="#E0A4-ycwm9f0" transform="translate(11786, 1234) scale(0.72, 0.72)" />
                           </g>
                           <g id="lirtwc5" class="stem">
                              <path d="M11795 1262 L11795 2161" stroke-width="18" />
                           </g>
                        </g>
                     </g>
                     <g id="ifqsb1j" class="beam">
                        <polygon points="12236,2314 13604,2314 13604,2224 12236,2224" />
                        <g id="jvg7u5q" class="note">
                           <g class="notehead">
                              <use xlink:href="#E0A4-ycwm9f0" transform="translate(12236, 1594) scale(0.72, 0.72)" />
                           </g>
                           <g id="mhcjwq4" class="stem">
                              <path d="M12245 1622 L12245 2296" stroke-width="18" />
                           </g>
                        </g>
                        <g id="kcddn1" class="note">
                           <g class="notehead">
                              <use xlink:href="#E0A4-ycwm9f0" transform="translate(12686, 1324) scale(0.72, 0.72)" />
                           </g>
                           <g id="n1x9g7cy" class="stem">
                              <path d="M12695 1352 L12695 2296" stroke-width="18" />
                           </g>
                           <g id="lbz4ey9" class="accid" />
                        </g>
                        <g id="m19gha9r" class="note">
                           <g class="notehead">
                              <use xlink:href="#E0A4-ycwm9f0" transform="translate(13136, 1684) scale(0.72, 0.72)" />
                           </g>
                           <g id="o17s16fm" class="stem">
                              <path d="M13145 1712 L13145 2296" stroke-width="18" />
                           </g>
                        </g>
                        <g id="n83nokv" class="note">
                           <g class="notehead">
                              <use xlink:href="#E0A4-ycwm9f0" transform="translate(13586, 1414) scale(0.72, 0.72)" />
                           </g>
                           <g id="p1sg2kib" class="stem">
                              <path d="M13595 1442 L13595 2296" stroke-width="18" />
                           </g>
                        </g>
                     </g>
                  </g>
               </g>
               <g id="acqrwnz" class="barLine">
                  <path d="M14036 1594 L14036 2314" stroke-width="27" />
               </g>
            </g>
            <g id="vo2oztu" class="systemMilestoneEnd pacjr8e" />
         </g>
         <g id="w11e0qnl" class="pageMilestoneEnd a1ubq6pc" />
         <g id="x1nvea2o" class="pageMilestoneEnd z1js1sck" />
         <g id="zb5emt6" class="pgHead autogenerated">
            <text font-size="0px">
               <tspan id="atmugfg" class="rend" x="10450" y="417" text-anchor="middle">
                  <title class="labelAttr">title</title>
                  <tspan id="b1mckgjl" class="rend">
                     <tspan id="c13j2kl3" class="text">
                        <tspan font-size="607px">S1_M2_Vl1_RISM</tspan>
                     </tspan>
                  </tspan>
               </tspan>
            </text>
         </g>
      </g>
   </svg>
</svg>
