<?xml version="1.0" encoding="UTF-8" standalone="no"?>
<svg width="1002px" height="124px" version="1.1" xmlns="http://www.w3.org/2000/svg" xmlns:xlink="http://www.w3.org/1999/xlink" overflow="visible" id="t4750kt">
   <desc>Engraved by Verovio 6.1.0[undefined]</desc>
   <defs>
      <g id="E050-t4750kt">
         <path transform="scale(1,-1)" d="M441 -245c-23 -4 -48 -6 -76 -6c-59 0 -102 7 -130 20c-88 42 -150 93 -187 154c-26 44 -43 103 -48 176c0 6 -1 13 -1 19c0 54 15 111 45 170c29 57 65 106 110 148s96 85 153 127c-3 16 -8 46 -13 92c-4 43 -5 73 -5 89c0 117 16 172 69 257c34 54 64 82 89 82 c21 0 43 -30 69 -92s39 -115 41 -159v-15c0 -109 -21 -162 -67 -241c-13 -20 -63 -90 -98 -118c-13 -9 -25 -19 -37 -29l31 -181c8 1 18 2 28 2c58 0 102 -12 133 -35c59 -43 92 -104 98 -184c1 -7 1 -15 1 -22c0 -123 -87 -209 -181 -248c8 -57 17 -110 25 -162 c5 -31 6 -58 6 -80c0 -30 -5 -53 -14 -70c-35 -64 -88 -99 -158 -103c-5 0 -11 -1 -16 -1c-37 0 -72 10 -108 27c-50 24 -77 59 -80 105v11c0 29 7 55 20 76c18 28 45 42 79 44h6c49 0 93 -42 97 -87v-9c0 -51 -34 -86 -105 -106c17 -24 51 -36 102 -36c62 0 116 43 140 85 c9 16 13 41 13 74c0 20 -1 42 -5 67c-8 53 -18 106 -26 159zM461 939c-95 0 -135 -175 -135 -286c0 -24 2 -48 5 -71c50 39 92 82 127 128c40 53 60 100 60 140v8c-4 53 -22 81 -55 81h-2zM406 119l54 -326c73 25 110 78 110 161c0 7 0 15 -1 23c-7 95 -57 142 -151 142h-12 zM382 117c-72 -2 -128 -47 -128 -120v-7c2 -46 43 -99 75 -115c-3 -2 -7 -5 -10 -10c-70 33 -116 88 -123 172v11c0 68 44 126 88 159c23 17 49 29 78 36l-29 170c-21 -13 -52 -37 -92 -73c-50 -44 -86 -84 -109 -119c-45 -69 -67 -130 -67 -182v-13c5 -68 35 -127 93 -176 s125 -73 203 -73c25 0 50 3 75 9c-19 111 -36 221 -54 331z" />
      </g>
      <g id="E260-t4750kt">
         <path transform="scale(1,-1)" d="M20 110c32 16 54 27 93 27c26 0 35 -3 54 -13c13 -7 24 -20 27 -38l4 -25c0 -28 -16 -57 -45 -89c-23 -25 -39 -44 -65 -68l-88 -79v644h20v-359zM90 106c-32 0 -48 -10 -70 -29v-194c31 31 54 59 71 84c21 32 32 59 32 84c0 9 1 16 1 20c0 14 -3 21 -11 30l-8 3z" />
      </g>
      <g id="E083-t4750kt">
         <path transform="scale(1,-1)" d="M208 250c97 0 177 -52 177 -116c0 -69 -40 -111 -118 -125c56 -5 125 -44 125 -116c0 -31 -10 -57 -31 -78c-19 -21 -45 -38 -78 -49l-50 -11c-15 -3 -36 -7 -55 -7c-50 0 -86 16 -113 38c-16 10 -23 18 -34 34c-7 13 -11 25 -11 38c0 43 27 83 68 83l3 -2 c61 0 75 -42 75 -70c0 -19 -24 -42 -26 -57c7 -17 20 -25 37 -25c44 0 94 29 94 78c0 75 -34 125 -138 125v36c84 0 131 22 131 98c0 54 -37 88 -87 88c-26 0 -43 -7 -51 -22c15 -22 44 -16 44 -70c0 -37 -37 -62 -71 -62c-22 0 -69 15 -69 76c0 79 101 116 178 116z" />
      </g>
      <g id="E082-t4750kt">
         <path transform="scale(1,-1)" d="M124 -185c-18 0 -55 -14 -65 -65h-36l-3 30c0 25 6 45 18 63c11 19 22 30 39 43l121 82l37 29c15 11 27 29 38 54c12 24 18 47 18 70c0 40 -19 88 -94 88c-25 0 -32 0 -50 -8c-14 -5 -23 -12 -26 -22c3 -9 7 -15 10 -18l24 -17c12 -7 17 -11 27 -21c5 -7 7 -16 7 -27 c0 -12 0 -57 -79 -74c-30 0 -76 26 -76 94c0 66 81 135 197 135c72 0 181 -32 181 -150c0 -53 -32 -95 -113 -133l-91 -41c-26 -11 -45 -23 -57 -37l49 7c84 0 115 -41 148 -41c20 0 33 20 39 61h35c0 -152 -68 -168 -114 -168c-17 0 -65 0 -79 7h10l-28 17 c-49 37 -69 40 -87 42z" />
      </g>
      <g id="E0A3-t4750kt">
         <path transform="scale(1,-1)" d="M278 64c0 22 -17 39 -43 39c-12 0 -26 -3 -41 -10c-85 -43 -165 -94 -165 -156c5 -25 15 -32 49 -32c67 11 200 95 200 159zM0 -36c0 68 73 174 200 174c66 0 114 -39 114 -97c0 -84 -106 -173 -218 -173c-64 0 -96 32 -96 96z" />
      </g>
      <g id="E0A4-t4750kt">
         <path transform="scale(1,-1)" d="M0 -39c0 68 73 172 200 172c66 0 114 -37 114 -95c0 -84 -106 -171 -218 -171c-64 0 -96 30 -96 94z" />
      </g>
      <g id="E0A2-t4750kt">
         <path transform="scale(1,-1)" d="M198 133c102 0 207 -45 207 -133c0 -92 -118 -133 -227 -133c-101 0 -178 46 -178 133c0 88 93 133 198 133zM293 -21c0 14 -3 29 -8 44c-7 20 -18 38 -33 54c-20 21 -43 31 -68 31l-20 -2c-15 -5 -27 -14 -36 -28c-4 -9 -6 -17 -8 -24s-3 -16 -3 -27c0 -15 3 -34 9 -57 s18 -41 34 -55c15 -15 36 -23 62 -23c4 0 10 1 18 2c19 5 32 15 40 30s13 34 13 55z" />
      </g>
      <g id="E262-t4750kt">
         <path transform="scale(1,-1)" d="M136 186v169h17v-164l44 14v-91l-44 -14v-165l44 12v-91l-44 -13v-155h-17v150l-76 -22v-155h-17v149l-43 -13v90l43 14v167l-43 -14v92l43 13v169h17v-163zM60 73v-167l76 22v168z" />
      </g>
   </defs>
   <style type="text/css">#t4750kt g.ending, #t4750kt g.fing, #t4750kt g.reh, #t4750kt g.tempo {font-weight:bold;}#t4750kt g.dir, #t4750kt g.dynam, #t4750kt g.mNum {font-style:italic;}#t4750kt g.label {font-weight:normal;}#t4750kt ellipse, #t4750kt path, #t4750kt polygon, #t4750kt polyline, #t4750kt rect {stroke:currentColor}</style>
   <svg class="definition-scale" color="black" font-family="Times, serif" viewBox="0 0 15410 1900">
      <g class="page-margin" transform="translate(50, 50)">
         <g id="u1x0fp4z" class="mdiv pageMilestone" />
         <g id="v1sjd9k5" class="score pageMilestone" />
         <g id="c1115ji9" class="system">
            <g id="k7vyw3h" class="section systemMilestone" />
            <g id="l1bcmiql" class="measure">
               <g id="uzevu8e" class="staff">
                  <path d="M0 540 L5459 540" stroke-width="13" />
                  <path d="M0 720 L5459 720" stroke-width="13" />
                  <path d="M0 900 L5459 900" stroke-width="13" />
                  <path d="M0 1080 L5459 1080" stroke-width="13" />
                  <path d="M0 1260 L5459 1260" stroke-width="13" />
                  <g id="y1enxtya" class="clef">
                     <use xlink:href="#E050-t4750kt" transform="translate(90, 1080) scale(0.72, 0.72)" />
                  </g>
                  <g id="zys5vcc" class="keySig">
                     <g id="awnuah3" class="keyAccid">
                        <use xlink:href="#E260-t4750kt" transform="translate(735, 900) scale(0.72, 0.72)" />
                     </g>
                  </g>
                  <g id="borodti" class="meterSig">
                     <use xlink:href="#E083-t4750kt" transform="translate(1054, 720) scale(0.72, 0.72)" />
                     <use xlink:href="#E082-t4750kt" transform="translate(1043, 1080) scale(0.72, 0.72)" />
                  </g>
                  <g class="ledgerLines above">
                     <path d="M4498 360 L4820 360" stroke-width="22" />
                     <path d="M4948 360 L5270 360" stroke-width="22" />
                  </g>
                  <g id="v191tvvf" class="layer">
                     <g id="w2nrq47" class="note">
                        <g class="notehead">
                           <use xlink:href="#E0A3-t4750kt" transform="translate(1616, 720) scale(0.72, 0.72)" />
                        </g>
                        <g id="c17uhtxf" class="dots">
                           <ellipse cx="1932" cy="630" rx="36" ry="36" />
                        </g>
                        <g id="b1ahu3nt" class="stem">
                           <path d="M1625 745 L1625 1350" stroke-width="18" />
                        </g>
                     </g>
                     <g id="xihedub" class="beam">
                        <polygon points="2956,1305 3424,1260 3424,1170 2956,1215" />
                        <g id="y15lwj9w" class="note">
                           <g class="notehead">
                              <use xlink:href="#E0A4-t4750kt" transform="translate(2956, 630) scale(0.72, 0.72)" />
                           </g>
                           <g id="dk3cnkc" class="stem">
                              <path d="M2965 658 L2965 1287" stroke-width="18" />
                           </g>
                        </g>
                        <g id="zeph39t" class="note">
                           <g class="notehead">
                              <use xlink:href="#E0A4-t4750kt" transform="translate(3406, 540) scale(0.72, 0.72)" />
                           </g>
                           <g id="e1d8mgsq" class="stem">
                              <path d="M3415 568 L3415 1242" stroke-width="18" />
                           </g>
                        </g>
                     </g>
                     <g id="a1k00sdu" class="note">
                        <g class="notehead">
                           <use xlink:href="#E0A4-t4750kt" transform="translate(3856, 450) scale(0.72, 0.72)" />
                        </g>
                        <g id="fpd34zk" class="stem">
                           <path d="M3865 478 L3865 1080" stroke-width="18" />
                        </g>
                     </g>
                     <g id="b8htx3y" class="beam">
                        <polygon points="4546,990 5014,945 5014,855 4546,900" />
                        <g id="c1phuns5" class="note">
                           <g class="notehead">
                              <use xlink:href="#E0A4-t4750kt" transform="translate(4546, 360) scale(0.72, 0.72)" />
                           </g>
                           <g id="g3qdq62" class="stem">
                              <path d="M4555 388 L4555 972" stroke-width="18" />
                           </g>
                        </g>
                        <g id="d11a6wdt" class="note">
                           <g class="notehead">
                              <use xlink:href="#E0A4-t4750kt" transform="translate(4996, 270) scale(0.72, 0.72)" />
                           </g>
                           <g id="h15uv1zy" class="stem">
                              <path d="M5005 298 L5005 927" stroke-width="18" />
                           </g>
                           <g id="e11sejk" class="accid" />
                        </g>
                     </g>
                  </g>
               </g>
               <g id="f41r6eg" class="tempo">
                  <text x="1043" y="411" font-size="0px">
                     <tspan id="g1a92ovu" class="text">
                        <tspan font-size="405px">Adagio</tspan>
                     </tspan>
                  </text>
               </g>
               <g id="t4cm3j2" class="barLine">
                  <path d="M5446 540 L5446 1260" stroke-width="27" />
               </g>
            </g>
            <g id="hd7wp40" class="measure">
               <g id="q1mqgqjn" class="staff">
                  <path d="M5459 540 L8478 540" stroke-width="13" />
                  <path d="M5459 720 L8478 720" stroke-width="13" />
                  <path d="M5459 900 L8478 900" stroke-width="13" />
                  <path d="M5459 1080 L8478 1080" stroke-width="13" />
                  <path d="M5459 1260 L8478 1260" stroke-width="13" />
                  <g id="r1o35h1t" class="layer">
                     <g id="s14vuchk" class="note">
                        <g class="notehead">
                           <use xlink:href="#E0A2-t4750kt" transform="translate(5825, 810) scale(0.72, 0.72)" />
                        </g>
                        <g id="ting7bt" class="accid">
                           <use xlink:href="#E262-t4750kt" transform="translate(5639, 810) scale(0.72, 0.72)" />
                        </g>
                     </g>
                     <g id="u1ygn7n9" class="note">
                        <g class="notehead">
                           <use xlink:href="#E0A3-t4750kt" transform="translate(7415, 450) scale(0.72, 0.72)" />
                        </g>
                        <g id="jxu7m29" class="stem">
                           <path d="M7424 475 L7424 1080" stroke-width="18" />
                        </g>
                     </g>
                  </g>
               </g>
               <g id="ir6ns2o" class="tie">
                  <path d="M7686,405 C7910,252 8385,252 8613,405 C8372,300 7923,300 7686,405" stroke-width="9" stroke-linecap="round" stroke-linejoin="round" />
               </g>
               <g id="p14h7wrc" class="barLine">
                  <path d="M8465 540 L8465 1260" stroke-width="27" />
               </g>
            </g>
            <g id="v1aiihlq" class="measure">
               <g id="ecqbuen" class="staff">
                  <path d="M8478 540 L12151 540" stroke-width="13" />
                  <path d="M8478 720 L12151 720" stroke-width="13" />
                  <path d="M8478 900 L12151 900" stroke-width="13" />
                  <path d="M8478 1080 L12151 1080" stroke-width="13" />
                  <path d="M8478 1260 L12151 1260" stroke-width="13" />
                  <g id="fkccp90" class="layer">
                     <g id="g3ktzqv" class="note">
                        <g class="notehead">
                           <use xlink:href="#E0A3-t4750kt" transform="translate(8658, 450) scale(0.72, 0.72)" />
                        </g>
                        <g id="k7pbxag" class="stem">
                           <path d="M8667 475 L8667 1080" stroke-width="18" />
                        </g>
                     </g>
                     <g id="h1px1ulo" class="note">
                        <g class="notehead">
                           <use xlink:href="#E0A3-t4750kt" transform="translate(9708, 540) scale(0.72, 0.72)" />
                        </g>
                        <g id="l1og1b3q" class="stem">
                           <path d="M9717 565 L9717 1170" stroke-width="18" />
                        </g>
                     </g>
                     <g id="ix4m04z" class="note">
                        <g class="notehead">
                           <use xlink:href="#E0A4-t4750kt" transform="translate(10758, 630) scale(0.72, 0.72)" />
                        </g>
                        <g id="m1erp8yq" class="stem">
                           <path d="M10767 658 L10767 1260" stroke-width="18" />
                        </g>
                     </g>
                     <g id="jkrjkh9" class="note">
                        <g class="notehead">
                           <use xlink:href="#E0A4-t4750kt" transform="translate(11448, 720) scale(0.72, 0.72)" />
                        </g>
                        <g id="n11xh5ft" class="stem">
                           <path d="M11457 748 L11457 1350" stroke-width="18" />
                        </g>
                     </g>
                  </g>
               </g>
               <g id="d1spkvcy" class="barLine">
                  <path d="M12138 540 L12138 1260" stroke-width="27" />
               </g>
            </g>
            <g id="k17bgrrn" class="measure">
               <g id="t13x1g19" class="staff">
                  <path d="M12151 540 L15314 540" stroke-width="13" />
                  <path d="M12151 720 L15314 720" stroke-width="13" />
                  <path d="M12151 900 L15314 900" stroke-width="13" />
                  <path d="M12151 1080 L15314 1080" stroke-width="13" />
                  <path d="M12151 1260 L15314 1260" stroke-width="13" />
                  <g class="ledgerLines above">
                     <path d="M13663 360 L14049 360" stroke-width="22" />
                  </g>
                  <g id="u14lrpc8" class="layer">
                     <g id="vta0h4i" class="note">
                        <g class="notehead">
                           <use xlink:href="#E0A4-t4750kt" transform="translate(12331, 630) scale(0.72, 0.72)" />
                        </g>
                        <g id="oeq3jvw" class="stem">
                           <path d="M12340 658 L12340 1260" stroke-width="18" />
                        </g>
                     </g>
                     <g id="wy0g8d9" class="note">
                        <g class="notehead">
                           <use xlink:href="#E0A4-t4750kt" transform="translate(13021, 990) scale(0.72, 0.72)" />
                        </g>
                        <g id="p1qgz9xy" class="stem">
                           <path d="M13238 962 L13238 360" stroke-width="18" />
                        </g>
                     </g>
                     <g id="xwi7lv" class="note">
                        <g class="notehead">
                           <use xlink:href="#E0A2-t4750kt" transform="translate(13711, 360) scale(0.72, 0.72)" />
                        </g>
                     </g>
                  </g>
               </g>
               <g id="szc2f0y" class="barLine">
                  <path d="M15301 540 L15301 1260" stroke-width="27" />
               </g>
            </g>
            <g id="f1aglmgp" class="systemMilestoneEnd k7vyw3h" />
         </g>
         <g id="gsqc2gr" class="pageMilestoneEnd v1sjd9k5" />
         <g id="h1ru5bhp" class="pageMilestoneEnd u1x0fp4z" />
         <g id="j2dnqol" class="pgHead autogenerated" />
      </g>
   </svg>
</svg>
