<?xml version="1.0" encoding="UTF-8" standalone="no"?>
<svg width="1241px" height="127px" version="1.1" xmlns="http://www.w3.org/2000/svg" xmlns:xlink="http://www.w3.org/1999/xlink" overflow="visible" id="c1605eef">
   <desc>Engraved by Verovio 6.1.0[undefined]</desc>
   <defs>
      <g id="E050-c1605eef">
         <path transform="scale(1,-1)" d="M441 -245c-23 -4 -48 -6 -76 -6c-59 0 -102 7 -130 20c-88 42 -150 93 -187 154c-26 44 -43 103 -48 176c0 6 -1 13 -1 19c0 54 15 111 45 170c29 57 65 106 110 148s96 85 153 127c-3 16 -8 46 -13 92c-4 43 -5 73 -5 89c0 117 16 172 69 257c34 54 64 82 89 82 c21 0 43 -30 69 -92s39 -115 41 -159v-15c0 -109 -21 -162 -67 -241c-13 -20 -63 -90 -98 -118c-13 -9 -25 -19 -37 -29l31 -181c8 1 18 2 28 2c58 0 102 -12 133 -35c59 -43 92 -104 98 -184c1 -7 1 -15 1 -22c0 -123 -87 -209 -181 -248c8 -57 17 -110 25 -162 c5 -31 6 -58 6 -80c0 -30 -5 -53 -14 -70c-35 -64 -88 -99 -158 -103c-5 0 -11 -1 -16 -1c-37 0 -72 10 -108 27c-50 24 -77 59 -80 105v11c0 29 7 55 20 76c18 28 45 42 79 44h6c49 0 93 -42 97 -87v-9c0 -51 -34 -86 -105 -106c17 -24 51 -36 102 -36c62 0 116 43 140 85 c9 16 13 41 13 74c0 20 -1 42 -5 67c-8 53 -18 106 -26 159zM461 939c-95 0 -135 -175 -135 -286c0 -24 2 -48 5 -71c50 39 92 82 127 128c40 53 60 100 60 140v8c-4 53 -22 81 -55 81h-2zM406 119l54 -326c73 25 110 78 110 161c0 7 0 15 -1 23c-7 95 -57 142 -151 142h-12 zM382 117c-72 -2 -128 -47 -128 -120v-7c2 -46 43 -99 75 -115c-3 -2 -7 -5 -10 -10c-70 33 -116 88 -123 172v11c0 68 44 126 88 159c23 17 49 29 78 36l-29 170c-21 -13 -52 -37 -92 -73c-50 -44 -86 -84 -109 -119c-45 -69 -67 -130 -67 -182v-13c5 -68 35 -127 93 -176 s125 -73 203 -73c25 0 50 3 75 9c-19 111 -36 221 -54 331z" />
      </g>
      <g id="E262-c1605eef">
         <path transform="scale(1,-1)" d="M136 186v169h17v-164l44 14v-91l-44 -14v-165l44 12v-91l-44 -13v-155h-17v150l-76 -22v-155h-17v149l-43 -13v90l43 14v167l-43 -14v92l43 13v169h17v-163zM60 73v-167l76 22v168z" />
      </g>
      <g id="E084-c1605eef">
         <path transform="scale(1,-1)" d="M20 -78c84 97 114 180 134 329h170c-13 -32 -82 -132 -99 -151l-84 -97c-33 -36 -59 -63 -80 -81h162v102l127 123v-225h57v-39h-57v-34c0 -43 19 -65 57 -65v-34h-244v36c48 0 60 26 60 70v27h-203v39z" />
      </g>
      <g id="E4E6-c1605eef">
         <path transform="scale(1,-1)" d="M0 123c7 34 33 56 69 60c29 -3 43 -9 53 -29c4 -8 7 -15 10 -22c0 -21 -1 -25 -11 -35c-5 -8 -18 -14 -40 -20l12 -3l15 -1c44 0 97 26 122 56c10 11 18 26 24 42c7 1 15 2 22 3l-140 -424h-36l111 330c-10 -6 -27 -12 -53 -16l-52 -8h-10l-20 1c-1 0 -8 3 -21 6 c-37 9 -55 28 -55 60z" />
      </g>
      <g id="E0A4-c1605eef">
         <path transform="scale(1,-1)" d="M0 -39c0 68 73 172 200 172c66 0 114 -37 114 -95c0 -84 -106 -171 -218 -171c-64 0 -96 30 -96 94z" />
      </g>
   </defs>
   <style type="text/css">#c1605eef g.ending, #c1605eef g.fing, #c1605eef g.reh, #c1605eef g.tempo {font-weight:bold;}#c1605eef g.dir, #c1605eef g.dynam, #c1605eef g.mNum {font-style:italic;}#c1605eef g.label {font-weight:normal;}#c1605eef ellipse, #c1605eef path, #c1605eef polygon, #c1605eef polyline, #c1605eef rect {stroke:currentColor}</style>
   <svg class="definition-scale" color="black" font-family="Times, serif" viewBox="0 0 19080 1950">
      <g class="page-margin" transform="translate(50, 50)">
         <g id="dmpirtc" class="mdiv pageMilestone" />
         <g id="ecj9frr" class="score pageMilestone" />
         <g id="h1l5p9i8" class="system">
            <g id="txupobf" class="section systemMilestone" />
            <g id="u1a80s8m" class="measure">
               <g id="d1gxni4l" class="staff">
                  <path d="M0 595 L5333 595" stroke-width="13" />
                  <path d="M0 775 L5333 775" stroke-width="13" />
                  <path d="M0 955 L5333 955" stroke-width="13" />
                  <path d="M0 1135 L5333 1135" stroke-width="13" />
                  <path d="M0 1315 L5333 1315" stroke-width="13" />
                  <g id="g1d9ffth" class="clef">
                     <use xlink:href="#E050-c1605eef" transform="translate(90, 1135) scale(0.72, 0.72)" />
                  </g>
                  <g id="h1done47" class="keySig">
                     <g id="i1lim3re" class="keyAccid">
                        <use xlink:href="#E262-c1605eef" transform="translate(735, 595) scale(0.72, 0.72)" />
                     </g>
                  </g>
                  <g id="jk2psm3" class="meterSig">
                     <use xlink:href="#E084-c1605eef" transform="translate(1042, 775) scale(0.72, 0.72)" />
                     <use xlink:href="#E084-c1605eef" transform="translate(1042, 1135) scale(0.72, 0.72)" />
                  </g>
                  <g id="evuvxqt" class="layer">
                     <g id="f18moa5g" class="rest">
                        <use xlink:href="#E4E6-c1605eef" transform="translate(1604, 955) scale(0.72, 0.72)" />
                     </g>
                     <g id="g1nhmzfx" class="beam">
                        <polygon points="2054,1135 2972,1135 2972,1045 2054,1045" />
                        <g id="hie0hd3" class="note">
                           <g class="notehead">
                              <use xlink:href="#E0A4-c1605eef" transform="translate(2054, 505) scale(0.72, 0.72)" />
                           </g>
                           <g id="fbhpb3v" class="stem">
                              <path d="M2063 533 L2063 1117" stroke-width="18" />
                           </g>
                        </g>
                        <g id="il7f617" class="note">
                           <g class="notehead">
                              <use xlink:href="#E0A4-c1605eef" transform="translate(2504, 505) scale(0.72, 0.72)" />
                           </g>
                           <g id="gcgbyz8" class="stem">
                              <path d="M2513 533 L2513 1117" stroke-width="18" />
                           </g>
                        </g>
                        <g id="j9l6rqx" class="note">
                           <g class="notehead">
                              <use xlink:href="#E0A4-c1605eef" transform="translate(2954, 505) scale(0.72, 0.72)" />
                           </g>
                           <g id="hg586po" class="stem">
                              <path d="M2963 533 L2963 1117" stroke-width="18" />
                           </g>
                        </g>
                     </g>
                     <g id="kp1yn67" class="note">
                        <g class="notehead">
                           <use xlink:href="#E0A4-c1605eef" transform="translate(3404, 505) scale(0.72, 0.72)" />
                        </g>
                        <g id="i1ypgj0m" class="stem">
                           <path d="M3413 533 L3413 1135" stroke-width="18" />
                        </g>
                     </g>
                     <g id="l16xn3y4" class="beam">
                        <polygon points="4094,1495 5008,1495 5008,1405 4094,1405" />
                        <polygon points="4683,1360 5008,1360 5008,1270 4683,1270" />
                        <polygon points="4683,1225 5008,1225 5008,1135 4683,1135" />
                        <g id="mn3l7kx" class="note">
                           <g class="notehead">
                              <use xlink:href="#E0A4-c1605eef" transform="translate(4094, 595) scale(0.72, 0.72)" />
                           </g>
                           <g id="k15b0vin" class="dots">
                              <ellipse cx="4410" cy="505" rx="36" ry="36" />
                           </g>
                           <g id="j156n8t4" class="stem">
                              <path d="M4103 623 L4103 1477" stroke-width="18" />
                           </g>
                           <g id="n1jk0pj2" class="accid" />
                        </g>
                        <g id="o1kv1eq4" class="note">
                           <g class="notehead">
                              <use xlink:href="#E0A4-c1605eef" transform="translate(4674, 685) scale(0.72, 0.72)" />
                           </g>
                           <g id="ltqplet" class="stem">
                              <path d="M4683 713 L4683 1477" stroke-width="18" />
                           </g>
                        </g>
                        <g id="pv2r7rg" class="note">
                           <g class="notehead">
                              <use xlink:href="#E0A4-c1605eef" transform="translate(4990, 595) scale(0.72, 0.72)" />
                           </g>
                           <g id="mmv5sau" class="stem">
                              <path d="M4999 623 L4999 1477" stroke-width="18" />
                           </g>
                           <g id="q5nt08k" class="accid" />
                        </g>
                     </g>
                  </g>
               </g>
               <g id="r1b78otv" class="tempo">
                  <text x="1042" y="280" font-size="0px">
                     <tspan id="spmgj8t" class="text">
                        <tspan font-size="405px">Allegro</tspan>
                     </tspan>
                  </text>
               </g>
               <g id="c1fjkume" class="barLine">
                  <path d="M5320 595 L5320 1315" stroke-width="27" />
               </g>
            </g>
            <g id="tt9vi6t" class="measure">
               <g id="c6tfwjh" class="staff">
                  <path d="M5333 595 L10232 595" stroke-width="13" />
                  <path d="M5333 775 L10232 775" stroke-width="13" />
                  <path d="M5333 955 L10232 955" stroke-width="13" />
                  <path d="M5333 1135 L10232 1135" stroke-width="13" />
                  <path d="M5333 1315 L10232 1315" stroke-width="13" />
                  <g id="dpeldg2" class="layer">
                     <g id="e1a5q1ih" class="beam">
                        <polygon points="5513,1135 6297,1225 6297,1135 5513,1045" />
                        <polygon points="5972,1053 6297,1090 6297,1000 5972,963" />
                        <g id="faj5hhv" class="note">
                           <g class="notehead">
                              <use xlink:href="#E0A4-c1605eef" transform="translate(5513, 505) scale(0.72, 0.72)" />
                           </g>
                           <g id="nljl9ix" class="stem">
                              <path d="M5522 533 L5522 1117" stroke-width="18" />
                           </g>
                        </g>
                        <g id="ghp890" class="note">
                           <g class="notehead">
                              <use xlink:href="#E0A4-c1605eef" transform="translate(5963, 505) scale(0.72, 0.72)" />
                           </g>
                           <g id="o1uad0qs" class="stem">
                              <path d="M5972 533 L5972 1170" stroke-width="18" />
                           </g>
                        </g>
                        <g id="hhaufie" class="note">
                           <g class="notehead">
                              <use xlink:href="#E0A4-c1605eef" transform="translate(6279, 595) scale(0.72, 0.72)" />
                           </g>
                           <g id="pnqkdzi" class="stem">
                              <path d="M6288 623 L6288 1207" stroke-width="18" />
                           </g>
                           <g id="i1mobs8m" class="accid" />
                        </g>
                     </g>
                     <g id="j1un6yba" class="beam">
                        <polygon points="6595,1405 7561,1585 7561,1495 6595,1315" />
                        <polygon points="6595,1270 6920,1330 6920,1240 6595,1180" />
                        <polygon points="6920,1330 7236,1390 7236,1300 6920,1240" />
                        <polygon points="7236,1390 7561,1450 7561,1360 7236,1300" />
                        <g id="k13l2w63" class="note">
                           <g class="notehead">
                              <use xlink:href="#E0A4-c1605eef" transform="translate(6595, 685) scale(0.72, 0.72)" />
                           </g>
                           <g id="q13u9stu" class="stem">
                              <path d="M6604 713 L6604 1387" stroke-width="18" />
                           </g>
                        </g>
                        <g id="ltkubyz" class="note">
                           <g class="notehead">
                              <use xlink:href="#E0A4-c1605eef" transform="translate(6911, 775) scale(0.72, 0.72)" />
                           </g>
                           <g id="r1c0erks" class="stem">
                              <path d="M6920 803 L6920 1447" stroke-width="18" />
                           </g>
                        </g>
                        <g id="m1p79ugt" class="note">
                           <g class="notehead">
                              <use xlink:href="#E0A4-c1605eef" transform="translate(7227, 865) scale(0.72, 0.72)" />
                           </g>
                           <g id="s5x6h51" class="stem">
                              <path d="M7236 893 L7236 1507" stroke-width="18" />
                           </g>
                        </g>
                        <g id="n1iu9zmj" class="note">
                           <g class="notehead">
                              <use xlink:href="#E0A4-c1605eef" transform="translate(7543, 955) scale(0.72, 0.72)" />
                           </g>
                           <g id="t1nlwg6u" class="stem">
                              <path d="M7552 983 L7552 1567" stroke-width="18" />
                           </g>
                        </g>
                     </g>
                     <g id="oble11f" class="beam">
                        <polygon points="7859,1585 8643,1405 8643,1315 7859,1495" />
                        <polygon points="8318,1345 8643,1270 8643,1180 8318,1255" />
                        <g id="puuzvqy" class="note">
                           <g class="notehead">
                              <use xlink:href="#E0A4-c1605eef" transform="translate(7859, 1045) scale(0.72, 0.72)" />
                           </g>
                           <g id="urrm9o4" class="stem">
                              <path d="M7868 1073 L7868 1567" stroke-width="18" />
                           </g>
                        </g>
                        <g id="q171a3qd" class="note">
                           <g class="notehead">
                              <use xlink:href="#E0A4-c1605eef" transform="translate(8309, 685) scale(0.72, 0.72)" />
                           </g>
                           <g id="v11lelkd" class="stem">
                              <path d="M8318 713 L8318 1462" stroke-width="18" />
                           </g>
                        </g>
                        <g id="rt0maoh" class="note">
                           <g class="notehead">
                              <use xlink:href="#E0A4-c1605eef" transform="translate(8625, 775) scale(0.72, 0.72)" />
                           </g>
                           <g id="w5mzyni" class="stem">
                              <path d="M8634 803 L8634 1387" stroke-width="18" />
                           </g>
                        </g>
                     </g>
                     <g id="snw5g9a" class="beam">
                        <polygon points="9149,235 10115,415 10115,505 9149,325" />
                        <polygon points="9149,370 9474,430 9474,520 9149,460" />
                        <polygon points="9474,430 9790,490 9790,580 9474,520" />
                        <polygon points="9790,490 10115,550 10115,640 9790,580" />
                        <g id="tqc9zhz" class="note">
                           <g class="notehead">
                              <use xlink:href="#E0A4-c1605eef" transform="translate(8941, 865) scale(0.72, 0.72)" />
                           </g>
                           <g id="xkpcmwk" class="stem">
                              <path d="M9158 837 L9158 253" stroke-width="18" />
                           </g>
                        </g>
                        <g id="u12npfro" class="note">
                           <g class="notehead">
                              <use xlink:href="#E0A4-c1605eef" transform="translate(9257, 955) scale(0.72, 0.72)" />
                           </g>
                           <g id="yf6e1ni" class="stem">
                              <path d="M9474 927 L9474 313" stroke-width="18" />
                           </g>
                        </g>
                        <g id="vngnuj0" class="note">
                           <g class="notehead">
                              <use xlink:href="#E0A4-c1605eef" transform="translate(9573, 1045) scale(0.72, 0.72)" />
                           </g>
                           <g id="znxdddw" class="stem">
                              <path d="M9790 1017 L9790 373" stroke-width="18" />
                           </g>
                        </g>
                        <g id="w1w8tpc2" class="note">
                           <g class="notehead">
                              <use xlink:href="#E0A4-c1605eef" transform="translate(9889, 1135) scale(0.72, 0.72)" />
                           </g>
                           <g id="akdunpk" class="stem">
                              <path d="M10106 1107 L10106 433" stroke-width="18" />
                           </g>
                        </g>
                     </g>
                  </g>
               </g>
               <g id="b1l2964r" class="barLine">
                  <path d="M10219 595 L10219 1315" stroke-width="27" />
               </g>
            </g>
            <g id="x1cpskp5" class="measure">
               <g id="gfla2hl" class="staff">
                  <path d="M10232 595 L15495 595" stroke-width="13" />
                  <path d="M10232 775 L15495 775" stroke-width="13" />
                  <path d="M10232 955 L15495 955" stroke-width="13" />
                  <path d="M10232 1135 L15495 1135" stroke-width="13" />
                  <path d="M10232 1315 L15495 1315" stroke-width="13" />
                  <g class="ledgerLines above">
                     <path d="M13524 415 L13846 415" stroke-width="22" />
                     <path d="M14472 415 L14794 415" stroke-width="22" />
                     <path d="M15104 415 L15426 415" stroke-width="22" />
                  </g>
                  <g id="h1kct6aj" class="layer">
                     <g id="i1as2j88" class="beam">
                        <polygon points="10412,1855 11378,1495 11378,1405 10412,1765" />
                        <polygon points="10412,1720 10737,1600 10737,1510 10412,1630" />
                        <polygon points="10737,1600 11053,1480 11053,1390 10737,1510" />
                        <polygon points="11053,1480 11378,1360 11378,1270 11053,1390" />
                        <g id="jm4vuxd" class="note">
                           <g class="notehead">
                              <use xlink:href="#E0A4-c1605eef" transform="translate(10412, 1225) scale(0.72, 0.72)" />
                           </g>
                           <g id="b89fer8" class="stem">
                              <path d="M10421 1253 L10421 1837" stroke-width="18" />
                           </g>
                           <g id="kqo3lhz" class="accid" />
                        </g>
                        <g id="lr4pp51" class="note">
                           <g class="notehead">
                              <use xlink:href="#E0A4-c1605eef" transform="translate(10728, 595) scale(0.72, 0.72)" />
                           </g>
                           <g id="c9ntg9u" class="stem">
                              <path d="M10737 623 L10737 1717" stroke-width="18" />
                           </g>
                           <g id="mi9kgb5" class="accid" />
                        </g>
                        <g id="n1uc17mi" class="note">
                           <g class="notehead">
                              <use xlink:href="#E0A4-c1605eef" transform="translate(11044, 685) scale(0.72, 0.72)" />
                           </g>
                           <g id="d164cdw8" class="stem">
                              <path d="M11053 713 L11053 1597" stroke-width="18" />
                           </g>
                        </g>
                        <g id="o3emkfw" class="note">
                           <g class="notehead">
                              <use xlink:href="#E0A4-c1605eef" transform="translate(11360, 595) scale(0.72, 0.72)" />
                           </g>
                           <g id="e7rls5o" class="stem">
                              <path d="M11369 623 L11369 1477" stroke-width="18" />
                           </g>
                           <g id="p34fjgb" class="accid" />
                        </g>
                     </g>
                     <g id="qttqr8z" class="beam">
                        <polygon points="11676,1675 12642,1315 12642,1225 11676,1585" />
                        <polygon points="11676,1540 12001,1420 12001,1330 11676,1450" />
                        <polygon points="12001,1420 12317,1300 12317,1210 12001,1330" />
                        <polygon points="12317,1300 12642,1180 12642,1090 12317,1210" />
                        <g id="rdzxjw6" class="note">
                           <g class="notehead">
                              <use xlink:href="#E0A4-c1605eef" transform="translate(11676, 1045) scale(0.72, 0.72)" />
                           </g>
                           <g id="f1nfukyz" class="stem">
                              <path d="M11685 1073 L11685 1657" stroke-width="18" />
                           </g>
                        </g>
                        <g id="s1sghvv1" class="note">
                           <g class="notehead">
                              <use xlink:href="#E0A4-c1605eef" transform="translate(11992, 595) scale(0.72, 0.72)" />
                           </g>
                           <g id="gr4i0t8" class="stem">
                              <path d="M12001 623 L12001 1537" stroke-width="18" />
                           </g>
                           <g id="ttnmaqh" class="accid" />
                        </g>
                        <g id="u1aw7boc" class="note">
                           <g class="notehead">
                              <use xlink:href="#E0A4-c1605eef" transform="translate(12308, 685) scale(0.72, 0.72)" />
                           </g>
                           <g id="hzbpcon" class="stem">
                              <path d="M12317 713 L12317 1417" stroke-width="18" />
                           </g>
                        </g>
                        <g id="v9as2wb" class="note">
                           <g class="notehead">
                              <use xlink:href="#E0A4-c1605eef" transform="translate(12624, 595) scale(0.72, 0.72)" />
                           </g>
                           <g id="izw06yg" class="stem">
                              <path d="M12633 623 L12633 1297" stroke-width="18" />
                           </g>
                           <g id="w15w9d6c" class="accid" />
                        </g>
                     </g>
                     <g id="x5ryjh4" class="beam">
                        <polygon points="12940,1135 13906,1135 13906,1045 12940,1045" />
                        <polygon points="12940,1000 13265,1000 13265,910 12940,910" />
                        <polygon points="13265,1000 13581,1000 13581,910 13265,910" />
                        <polygon points="13581,1000 13906,1000 13906,910 13581,910" />
                        <g id="y1ioj799" class="note">
                           <g class="notehead">
                              <use xlink:href="#E0A4-c1605eef" transform="translate(12940, 505) scale(0.72, 0.72)" />
                           </g>
                           <g id="j1u13hmz" class="stem">
                              <path d="M12949 533 L12949 1117" stroke-width="18" />
                           </g>
                        </g>
                        <g id="z1u7w49g" class="note">
                           <g class="notehead">
                              <use xlink:href="#E0A4-c1605eef" transform="translate(13256, 505) scale(0.72, 0.72)" />
                           </g>
                           <g id="k4ig6wq" class="stem">
                              <path d="M13265 533 L13265 1117" stroke-width="18" />
                           </g>
                        </g>
                        <g id="agiizvy" class="note">
                           <g class="notehead">
                              <use xlink:href="#E0A4-c1605eef" transform="translate(13572, 325) scale(0.72, 0.72)" />
                           </g>
                           <g id="l1is3ltv" class="stem">
                              <path d="M13581 353 L13581 1117" stroke-width="18" />
                           </g>
                        </g>
                        <g id="b1vf5w02" class="note">
                           <g class="notehead">
                              <use xlink:href="#E0A4-c1605eef" transform="translate(13888, 505) scale(0.72, 0.72)" />
                           </g>
                           <g id="mx9jhmh" class="stem">
                              <path d="M13897 533 L13897 1117" stroke-width="18" />
                           </g>
                        </g>
                     </g>
                     <g id="c5v91q5" class="beam">
                        <polygon points="14204,1315 15170,1135 15170,1045 14204,1225" />
                        <polygon points="14204,1180 14529,1120 14529,1030 14204,1090" />
                        <polygon points="14529,1120 14845,1060 14845,970 14529,1030" />
                        <polygon points="14845,1060 15170,1000 15170,910 14845,970" />
                        <g id="d1xqvj55" class="note">
                           <g class="notehead">
                              <use xlink:href="#E0A4-c1605eef" transform="translate(14204, 685) scale(0.72, 0.72)" />
                           </g>
                           <g id="n1q8agnk" class="stem">
                              <path d="M14213 713 L14213 1297" stroke-width="18" />
                           </g>
                        </g>
                        <g id="e1fxvgu6" class="note">
                           <g class="notehead">
                              <use xlink:href="#E0A4-c1605eef" transform="translate(14520, 415) scale(0.72, 0.72)" />
                           </g>
                           <g id="o1lrx2t1" class="stem">
                              <path d="M14529 443 L14529 1237" stroke-width="18" />
                           </g>
                        </g>
                        <g id="fymyvve" class="note">
                           <g class="notehead">
                              <use xlink:href="#E0A4-c1605eef" transform="translate(14836, 505) scale(0.72, 0.72)" />
                           </g>
                           <g id="p1rf7486" class="stem">
                              <path d="M14845 533 L14845 1177" stroke-width="18" />
                           </g>
                        </g>
                        <g id="g99a4py" class="note">
                           <g class="notehead">
                              <use xlink:href="#E0A4-c1605eef" transform="translate(15152, 415) scale(0.72, 0.72)" />
                           </g>
                           <g id="qhcdwn3" class="stem">
                              <path d="M15161 443 L15161 1117" stroke-width="18" />
                           </g>
                        </g>
                     </g>
                  </g>
               </g>
               <g id="f1d7v0nn" class="barLine">
                  <path d="M15482 595 L15482 1315" stroke-width="27" />
               </g>
            </g>
            <g id="hv96zwe" class="measure">
               <g id="q916dio" class="staff">
                  <path d="M15495 595 L18986 595" stroke-width="13" />
                  <path d="M15495 775 L18986 775" stroke-width="13" />
                  <path d="M15495 955 L18986 955" stroke-width="13" />
                  <path d="M15495 1135 L18986 1135" stroke-width="13" />
                  <path d="M15495 1315 L18986 1315" stroke-width="13" />
                  <g class="ledgerLines above">
                     <path d="M16317 415 L16639 415" stroke-width="22" />
                     <path d="M17197 415 L17519 415" stroke-width="22" />
                     <path d="M17829 415 L18151 415" stroke-width="22" />
                  </g>
                  <g id="r18srzcc" class="layer">
                     <g id="stxs2jz" class="note">
                        <g class="notehead">
                           <use xlink:href="#E0A4-c1605eef" transform="translate(15675, 595) scale(0.72, 0.72)" />
                        </g>
                        <g id="r6zzjde" class="stem">
                           <path d="M15684 623 L15684 1225" stroke-width="18" />
                        </g>
                        <g id="t1xwdaof" class="accid" />
                     </g>
                     <g id="u1cm9pdr" class="note">
                        <g class="notehead">
                           <use xlink:href="#E0A4-c1605eef" transform="translate(16365, 325) scale(0.72, 0.72)" />
                        </g>
                        <g id="th444l2" class="dots">
                           <ellipse cx="16681" cy="325" rx="36" ry="36" />
                        </g>
                        <g id="s1bbvibn" class="stem">
                           <path d="M16374 353 L16374 955" stroke-width="18" />
                        </g>
                     </g>
                     <g id="v1izy37t" class="beam">
                        <polygon points="17245,1135 17579,1180 17579,1090 17245,1045" />
                        <polygon points="17245,1000 17579,1045 17579,955 17245,910" />
                        <g id="wl24130" class="note">
                           <g class="notehead">
                              <use xlink:href="#E0A4-c1605eef" transform="translate(17245, 415) scale(0.72, 0.72)" />
                           </g>
                           <g id="utf64ni" class="stem">
                              <path d="M17254 443 L17254 1117" stroke-width="18" />
                           </g>
                        </g>
                        <g id="x1fqci0o" class="note">
                           <g class="notehead">
                              <use xlink:href="#E0A4-c1605eef" transform="translate(17561, 505) scale(0.72, 0.72)" />
                           </g>
                           <g id="v51tly1" class="stem">
                              <path d="M17570 533 L17570 1162" stroke-width="18" />
                           </g>
                        </g>
                     </g>
                     <g id="y15u3rdt" class="beam">
                        <polygon points="17877,1000 18661,1180 18661,1090 17877,910" />
                        <polygon points="18336,971 18661,1045 18661,955 18336,881" />
                        <g id="zjcfb25" class="note">
                           <g class="notehead">
                              <use xlink:href="#E0A4-c1605eef" transform="translate(17877, 415) scale(0.72, 0.72)" />
                           </g>
                           <g id="w16p02rj" class="stem">
                              <path d="M17886 443 L17886 982" stroke-width="18" />
                           </g>
                        </g>
                        <g id="ackmsr6" class="note">
                           <g class="notehead">
                              <use xlink:href="#E0A4-c1605eef" transform="translate(18327, 505) scale(0.72, 0.72)" />
                           </g>
                           <g id="xitw0yt" class="stem">
                              <path d="M18336 533 L18336 1088" stroke-width="18" />
                           </g>
                        </g>
                        <g id="b7fxf3d" class="note">
                           <g class="notehead">
                              <use xlink:href="#E0A4-c1605eef" transform="translate(18643, 595) scale(0.72, 0.72)" />
                           </g>
                           <g id="y14gf2ps" class="stem">
                              <path d="M18652 623 L18652 1162" stroke-width="18" />
                           </g>
                           <g id="c1hstspt" class="accid" />
                        </g>
                     </g>
                  </g>
               </g>
               <g id="p1kk95f" class="barLine">
                  <path d="M18973 595 L18973 1315" stroke-width="27" />
               </g>
            </g>
            <g id="k47kb50" class="systemMilestoneEnd txupobf" />
         </g>
         <g id="l173onh3" class="pageMilestoneEnd ecj9frr" />
         <g id="m1t24tt8" class="pageMilestoneEnd dmpirtc" />
         <g id="niw0eng" class="pgHead autogenerated" />
      </g>
   </svg>
</svg>
