<?xml version="1.0" encoding="UTF-8" standalone="no"?>
<svg width="945px" height="124px" version="1.1" xmlns="http://www.w3.org/2000/svg" xmlns:xlink="http://www.w3.org/1999/xlink" overflow="visible" id="zp4672c">
   <desc>Engraved by Verovio 6.1.0[undefined]</desc>
   <defs>
      <g id="E050-zp4672c">
         <path transform="scale(1,-1)" d="M441 -245c-23 -4 -48 -6 -76 -6c-59 0 -102 7 -130 20c-88 42 -150 93 -187 154c-26 44 -43 103 -48 176c0 6 -1 13 -1 19c0 54 15 111 45 170c29 57 65 106 110 148s96 85 153 127c-3 16 -8 46 -13 92c-4 43 -5 73 -5 89c0 117 16 172 69 257c34 54 64 82 89 82 c21 0 43 -30 69 -92s39 -115 41 -159v-15c0 -109 -21 -162 -67 -241c-13 -20 -63 -90 -98 -118c-13 -9 -25 -19 -37 -29l31 -181c8 1 18 2 28 2c58 0 102 -12 133 -35c59 -43 92 -104 98 -184c1 -7 1 -15 1 -22c0 -123 -87 -209 -181 -248c8 -57 17 -110 25 -162 c5 -31 6 -58 6 -80c0 -30 -5 -53 -14 -70c-35 -64 -88 -99 -158 -103c-5 0 -11 -1 -16 -1c-37 0 -72 10 -108 27c-50 24 -77 59 -80 105v11c0 29 7 55 20 76c18 28 45 42 79 44h6c49 0 93 -42 97 -87v-9c0 -51 -34 -86 -105 -106c17 -24 51 -36 102 -36c62 0 116 43 140 85 c9 16 13 41 13 74c0 20 -1 42 -5 67c-8 53 -18 106 -26 159zM461 939c-95 0 -135 -175 -135 -286c0 -24 2 -48 5 -71c50 39 92 82 127 128c40 53 60 100 60 140v8c-4 53 -22 81 -55 81h-2zM406 119l54 -326c73 25 110 78 110 161c0 7 0 15 -1 23c-7 95 -57 142 -151 142h-12 zM382 117c-72 -2 -128 -47 -128 -120v-7c2 -46 43 -99 75 -115c-3 -2 -7 -5 -10 -10c-70 33 -116 88 -123 172v11c0 68 44 126 88 159c23 17 49 29 78 36l-29 170c-21 -13 -52 -37 -92 -73c-50 -44 -86 -84 -109 -119c-45 -69 -67 -130 -67 -182v-13c5 -68 35 -127 93 -176 s125 -73 203 -73c25 0 50 3 75 9c-19 111 -36 221 -54 331z" />
      </g>
      <g id="E262-zp4672c">
         <path transform="scale(1,-1)" d="M136 186v169h17v-164l44 14v-91l-44 -14v-165l44 12v-91l-44 -13v-155h-17v150l-76 -22v-155h-17v149l-43 -13v90l43 14v167l-43 -14v92l43 13v169h17v-163zM60 73v-167l76 22v168z" />
      </g>
      <g id="E084-zp4672c">
         <path transform="scale(1,-1)" d="M20 -78c84 97 114 180 134 329h170c-13 -32 -82 -132 -99 -151l-84 -97c-33 -36 -59 -63 -80 -81h162v102l127 123v-225h57v-39h-57v-34c0 -43 19 -65 57 -65v-34h-244v36c48 0 60 26 60 70v27h-203v39z" />
      </g>
      <g id="E4E4-zp4672c">
         <path transform="scale(1,-1)" d="M0 10v105c0 9 1 10 10 10h280c9 0 10 -1 10 -10v-105c0 -9 -1 -10 -10 -10h-280c-9 0 -10 1 -10 10z" />
      </g>
      <g id="E0A3-zp4672c">
         <path transform="scale(1,-1)" d="M278 64c0 22 -17 39 -43 39c-12 0 -26 -3 -41 -10c-85 -43 -165 -94 -165 -156c5 -25 15 -32 49 -32c67 11 200 95 200 159zM0 -36c0 68 73 174 200 174c66 0 114 -39 114 -97c0 -84 -106 -173 -218 -173c-64 0 -96 32 -96 96z" />
      </g>
      <g id="E0A4-zp4672c">
         <path transform="scale(1,-1)" d="M0 -39c0 68 73 172 200 172c66 0 114 -37 114 -95c0 -84 -106 -171 -218 -171c-64 0 -96 30 -96 94z" />
      </g>
   </defs>
   <style type="text/css">#zp4672c g.ending, #zp4672c g.fing, #zp4672c g.reh, #zp4672c g.tempo {font-weight:bold;}#zp4672c g.dir, #zp4672c g.dynam, #zp4672c g.mNum {font-style:italic;}#zp4672c g.label {font-weight:normal;}#zp4672c ellipse, #zp4672c path, #zp4672c polygon, #zp4672c polyline, #zp4672c rect {stroke:currentColor}</style>
   <svg class="definition-scale" color="black" font-family="Times, serif" viewBox="0 0 14530 1900">
      <g class="page-margin" transform="translate(50, 50)">
         <g id="am72cx5" class="mdiv pageMilestone" />
         <g id="b1ruwien" class="score pageMilestone" />
         <g id="s1looaod" class="system">
            <g id="qcu3b1e" class="section systemMilestone" />
            <g id="r1hczoug" class="measure">
               <g id="atquv6y" class="staff">
                  <path d="M0 540 L3717 540" stroke-width="13" />
                  <path d="M0 720 L3717 720" stroke-width="13" />
                  <path d="M0 900 L3717 900" stroke-width="13" />
                  <path d="M0 1080 L3717 1080" stroke-width="13" />
                  <path d="M0 1260 L3717 1260" stroke-width="13" />
                  <g id="vibosvv" class="clef">
                     <use xlink:href="#E050-zp4672c" transform="translate(90, 1080) scale(0.72, 0.72)" />
                  </g>
                  <g id="w1qvhtgo" class="keySig">
                     <g id="xuul32n" class="keyAccid">
                        <use xlink:href="#E262-zp4672c" transform="translate(735, 540) scale(0.72, 0.72)" />
                     </g>
                  </g>
                  <g id="y1eodgeq" class="meterSig">
                     <use xlink:href="#E084-zp4672c" transform="translate(1042, 720) scale(0.72, 0.72)" />
                     <use xlink:href="#E084-zp4672c" transform="translate(1042, 1080) scale(0.72, 0.72)" />
                  </g>
                  <g id="b1cb6d1q" class="layer">
                     <g id="cfa9l0y" class="rest">
                        <use xlink:href="#E4E4-zp4672c" transform="translate(1604, 900) scale(0.72, 0.72)" />
                        <g class="ledgerLines" />
                     </g>
                     <g id="dq9yefz" class="note">
                        <g class="notehead">
                           <use xlink:href="#E0A3-zp4672c" transform="translate(2654, 450) scale(0.72, 0.72)" />
                        </g>
                        <g id="r4e8898" class="stem">
                           <path d="M2663 475 L2663 1080" stroke-width="18" />
                        </g>
                     </g>
                  </g>
               </g>
               <g id="egh0qal" class="tempo">
                  <text x="1042" y="412" font-size="0px">
                     <tspan id="f1v1lpm" class="text">
                        <tspan font-size="405px">Grave</tspan>
                     </tspan>
                  </text>
               </g>
               <g id="yh4ggvk" class="tie">
                  <path d="M2925,405 C3149,252 3624,252 3852,405 C3611,300 3162,300 2925,405" stroke-width="9" stroke-linecap="round" stroke-linejoin="round" />
               </g>
               <g id="z28tssm" class="barLine">
                  <path d="M3704 540 L3704 1260" stroke-width="27" />
               </g>
            </g>
            <g id="g1s3b7uv" class="measure">
               <g id="p123xuig" class="staff">
                  <path d="M3717 540 L7478 540" stroke-width="13" />
                  <path d="M3717 720 L7478 720" stroke-width="13" />
                  <path d="M3717 900 L7478 900" stroke-width="13" />
                  <path d="M3717 1080 L7478 1080" stroke-width="13" />
                  <path d="M3717 1260 L7478 1260" stroke-width="13" />
                  <g id="q1e9qhz8" class="layer">
                     <g id="r1rqvjnb" class="beam">
                        <polygon points="3897,1305 4681,1305 4681,1215 3897,1215" />
                        <polygon points="4356,1170 4681,1170 4681,1080 4356,1080" />
                        <g id="s1yw6slq" class="note">
                           <g class="notehead">
                              <use xlink:href="#E0A4-zp4672c" transform="translate(3897, 450) scale(0.72, 0.72)" />
                           </g>
                           <g id="s1v6vbxi" class="stem">
                              <path d="M3906 478 L3906 1287" stroke-width="18" />
                           </g>
                        </g>
                        <g id="t1kwbw0h" class="note">
                           <g class="notehead">
                              <use xlink:href="#E0A4-zp4672c" transform="translate(4347, 720) scale(0.72, 0.72)" />
                           </g>
                           <g id="t1hmr5vm" class="stem">
                              <path d="M4356 748 L4356 1287" stroke-width="18" />
                           </g>
                        </g>
                        <g id="uy3ibot" class="note">
                           <g class="notehead">
                              <use xlink:href="#E0A4-zp4672c" transform="translate(4663, 630) scale(0.72, 0.72)" />
                           </g>
                           <g id="u11buzmo" class="stem">
                              <path d="M4672 658 L4672 1287" stroke-width="18" />
                           </g>
                        </g>
                     </g>
                     <g id="v1px3hw4" class="beam">
                        <polygon points="4979,1440 5577,1530 5577,1440 4979,1350" />
                        <polygon points="5351,1363 5577,1395 5577,1305 5351,1273" />
                        <g id="w6g906d" class="note">
                           <g class="notehead">
                              <use xlink:href="#E0A4-zp4672c" transform="translate(4979, 810) scale(0.72, 0.72)" />
                           </g>
                           <g id="wevy017" class="dots">
                              <ellipse cx="5295" cy="810" rx="36" ry="36" />
                           </g>
                           <g id="v3b0vyp" class="stem">
                              <path d="M4988 838 L4988 1422" stroke-width="18" />
                           </g>
                        </g>
                        <g id="x13tp9xm" class="note">
                           <g class="notehead">
                              <use xlink:href="#E0A4-zp4672c" transform="translate(5559, 900) scale(0.72, 0.72)" />
                           </g>
                           <g id="xrz6o3i" class="stem">
                              <path d="M5568 928 L5568 1512" stroke-width="18" />
                           </g>
                        </g>
                     </g>
                     <g id="ybc6uzh" class="note">
                        <g class="notehead">
                           <use xlink:href="#E0A4-zp4672c" transform="translate(5875, 900) scale(0.72, 0.72)" />
                        </g>
                        <g id="yn7ouwd" class="stem">
                           <path d="M5884 928 L5884 1500" stroke-width="18" />
                        </g>
                     </g>
                     <g id="z1on33cb" class="beam">
                        <polygon points="6565,1305 7033,1305 7033,1215 6565,1215" />
                        <g id="a1pwi4t4" class="note">
                           <g class="notehead">
                              <use xlink:href="#E0A4-zp4672c" transform="translate(6565, 720) scale(0.72, 0.72)" />
                           </g>
                           <g id="z3gep9k" class="stem">
                              <path d="M6574 748 L6574 1287" stroke-width="18" />
                           </g>
                        </g>
                        <g id="bmuf48f" class="note">
                           <g class="notehead">
                              <use xlink:href="#E0A4-zp4672c" transform="translate(7015, 720) scale(0.72, 0.72)" />
                           </g>
                           <g id="amtkaux" class="stem">
                              <path d="M7024 748 L7024 1287" stroke-width="18" />
                           </g>
                        </g>
                     </g>
                  </g>
               </g>
               <g id="om0wwa" class="barLine">
                  <path d="M7465 540 L7465 1260" stroke-width="27" />
               </g>
            </g>
            <g id="c148j6pl" class="measure">
               <g id="l7t7ix0" class="staff">
                  <path d="M7478 540 L11061 540" stroke-width="13" />
                  <path d="M7478 720 L11061 720" stroke-width="13" />
                  <path d="M7478 900 L11061 900" stroke-width="13" />
                  <path d="M7478 1080 L11061 1080" stroke-width="13" />
                  <path d="M7478 1260 L11061 1260" stroke-width="13" />
                  <g id="m1god8m6" class="layer">
                     <g id="n16ggk1s" class="beam">
                        <polygon points="7658,1305 9026,1305 9026,1215 7658,1215" />
                        <g id="o1168hxj" class="note">
                           <g class="notehead">
                              <use xlink:href="#E0A4-zp4672c" transform="translate(7658, 630) scale(0.72, 0.72)" />
                           </g>
                           <g id="b16d4pzw" class="stem">
                              <path d="M7667 658 L7667 1287" stroke-width="18" />
                           </g>
                        </g>
                        <g id="ptknm7i" class="note">
                           <g class="notehead">
                              <use xlink:href="#E0A4-zp4672c" transform="translate(8108, 720) scale(0.72, 0.72)" />
                           </g>
                           <g id="ca3vn3d" class="stem">
                              <path d="M8117 748 L8117 1287" stroke-width="18" />
                           </g>
                        </g>
                        <g id="q8q3wla" class="note">
                           <g class="notehead">
                              <use xlink:href="#E0A4-zp4672c" transform="translate(8558, 630) scale(0.72, 0.72)" />
                           </g>
                           <g id="d1iwabba" class="stem">
                              <path d="M8567 658 L8567 1287" stroke-width="18" />
                           </g>
                        </g>
                        <g id="r175fgg0" class="note">
                           <g class="notehead">
                              <use xlink:href="#E0A4-zp4672c" transform="translate(9008, 720) scale(0.72, 0.72)" />
                           </g>
                           <g id="e11n8o9a" class="stem">
                              <path d="M9017 748 L9017 1287" stroke-width="18" />
                           </g>
                        </g>
                     </g>
                     <g id="s4xs34n" class="note">
                        <g class="notehead">
                           <use xlink:href="#E0A4-zp4672c" transform="translate(9458, 630) scale(0.72, 0.72)" />
                        </g>
                        <g id="f1f6jcai" class="stem">
                           <path d="M9467 658 L9467 1260" stroke-width="18" />
                        </g>
                     </g>
                     <g id="t2i7rss" class="beam">
                        <polygon points="10148,1395 10616,1350 10616,1260 10148,1305" />
                        <g id="u15scijs" class="note">
                           <g class="notehead">
                              <use xlink:href="#E0A4-zp4672c" transform="translate(10148, 720) scale(0.72, 0.72)" />
                           </g>
                           <g id="g1qcwao4" class="stem">
                              <path d="M10157 748 L10157 1377" stroke-width="18" />
                           </g>
                        </g>
                        <g id="vuupzd4" class="note">
                           <g class="notehead">
                              <use xlink:href="#E0A4-zp4672c" transform="translate(10598, 450) scale(0.72, 0.72)" />
                           </g>
                           <g id="hokxe22" class="stem">
                              <path d="M10607 478 L10607 1332" stroke-width="18" />
                           </g>
                        </g>
                     </g>
                  </g>
               </g>
               <g id="krbbk4l" class="barLine">
                  <path d="M11048 540 L11048 1260" stroke-width="27" />
               </g>
            </g>
            <g id="wnd1un2" class="measure">
               <g id="f1lqky9q" class="staff">
                  <path d="M11061 540 L14434 540" stroke-width="13" />
                  <path d="M11061 720 L14434 720" stroke-width="13" />
                  <path d="M11061 900 L14434 900" stroke-width="13" />
                  <path d="M11061 1080 L14434 1080" stroke-width="13" />
                  <path d="M11061 1260 L14434 1260" stroke-width="13" />
                  <g class="ledgerLines above">
                     <path d="M11193 360 L11515 360" stroke-width="22" />
                     <path d="M12093 360 L12415 360" stroke-width="22" />
                     <path d="M12993 360 L13315 360" stroke-width="22" />
                  </g>
                  <g id="g1yz8a2p" class="layer">
                     <g id="h1hurxlq" class="beam">
                        <polygon points="11241,1080 12609,1080 12609,990 11241,990" />
                        <g id="inm9ejq" class="note">
                           <g class="notehead">
                              <use xlink:href="#E0A4-zp4672c" transform="translate(11241, 360) scale(0.72, 0.72)" />
                           </g>
                           <g id="ir7usql" class="stem">
                              <path d="M11250 388 L11250 1062" stroke-width="18" />
                           </g>
                        </g>
                        <g id="jutj7va" class="note">
                           <g class="notehead">
                              <use xlink:href="#E0A4-zp4672c" transform="translate(11691, 450) scale(0.72, 0.72)" />
                           </g>
                           <g id="j1bml0v6" class="stem">
                              <path d="M11700 478 L11700 1062" stroke-width="18" />
                           </g>
                        </g>
                        <g id="k2qlb16" class="note">
                           <g class="notehead">
                              <use xlink:href="#E0A4-zp4672c" transform="translate(12141, 360) scale(0.72, 0.72)" />
                           </g>
                           <g id="k1s4mwj0" class="stem">
                              <path d="M12150 388 L12150 1062" stroke-width="18" />
                           </g>
                        </g>
                        <g id="lcwq7ii" class="note">
                           <g class="notehead">
                              <use xlink:href="#E0A4-zp4672c" transform="translate(12591, 450) scale(0.72, 0.72)" />
                           </g>
                           <g id="l968622" class="stem">
                              <path d="M12600 478 L12600 1062" stroke-width="18" />
                           </g>
                        </g>
                     </g>
                     <g id="m12r1m8i" class="note">
                        <g class="notehead">
                           <use xlink:href="#E0A4-zp4672c" transform="translate(13041, 360) scale(0.72, 0.72)" />
                        </g>
                        <g id="m1rysr0o" class="stem">
                           <path d="M13050 388 L13050 990" stroke-width="18" />
                        </g>
                     </g>
                     <g id="nbgz44i" class="note">
                        <g class="notehead">
                           <use xlink:href="#E0A4-zp4672c" transform="translate(13731, 450) scale(0.72, 0.72)" />
                        </g>
                        <g id="n14pspof" class="stem">
                           <path d="M13740 478 L13740 1080" stroke-width="18" />
                        </g>
                     </g>
                  </g>
               </g>
               <g id="eer5bi" class="barLine">
                  <path d="M14421 540 L14421 1260" stroke-width="27" />
               </g>
            </g>
            <g id="v10jp4l4" class="systemMilestoneEnd qcu3b1e" />
         </g>
         <g id="w1vnkm59" class="pageMilestoneEnd b1ruwien" />
         <g id="x1pi5ai2" class="pageMilestoneEnd am72cx5" />
         <g id="zrsvb0j" class="pgHead autogenerated" />
      </g>
   </svg>
</svg>
