<?xml version="1.0" encoding="UTF-8" standalone="no"?>
<svg width="966px" height="124px" version="1.1" xmlns="http://www.w3.org/2000/svg" xmlns:xlink="http://www.w3.org/1999/xlink" overflow="visible" id="l14kjhmj">
   <desc>Engraved by Verovio 6.1.0[undefined]</desc>
   <defs>
      <g id="E050-l14kjhmj">
         <path transform="scale(1,-1)" d="M441 -245c-23 -4 -48 -6 -76 -6c-59 0 -102 7 -130 20c-88 42 -150 93 -187 154c-26 44 -43 103 -48 176c0 6 -1 13 -1 19c0 54 15 111 45 170c29 57 65 106 110 148s96 85 153 127c-3 16 -8 46 -13 92c-4 43 -5 73 -5 89c0 117 16 172 69 257c34 54 64 82 89 82 c21 0 43 -30 69 -92s39 -115 41 -159v-15c0 -109 -21 -162 -67 -241c-13 -20 -63 -90 -98 -118c-13 -9 -25 -19 -37 -29l31 -181c8 1 18 2 28 2c58 0 102 -12 133 -35c59 -43 92 -104 98 -184c1 -7 1 -15 1 -22c0 -123 -87 -209 -181 -248c8 -57 17 -110 25 -162 c5 -31 6 -58 6 -80c0 -30 -5 -53 -14 -70c-35 -64 -88 -99 -158 -103c-5 0 -11 -1 -16 -1c-37 0 -72 10 -108 27c-50 24 -77 59 -80 105v11c0 29 7 55 20 76c18 28 45 42 79 44h6c49 0 93 -42 97 -87v-9c0 -51 -34 -86 -105 -106c17 -24 51 -36 102 -36c62 0 116 43 140 85 c9 16 13 41 13 74c0 20 -1 42 -5 67c-8 53 -18 106 -26 159zM461 939c-95 0 -135 -175 -135 -286c0 -24 2 -48 5 -71c50 39 92 82 127 128c40 53 60 100 60 140v8c-4 53 -22 81 -55 81h-2zM406 119l54 -326c73 25 110 78 110 161c0 7 0 15 -1 23c-7 95 -57 142 -151 142h-12 zM382 117c-72 -2 -128 -47 -128 -120v-7c2 -46 43 -99 75 -115c-3 -2 -7 -5 -10 -10c-70 33 -116 88 -123 172v11c0 68 44 126 88 159c23 17 49 29 78 36l-29 170c-21 -13 -52 -37 -92 -73c-50 -44 -86 -84 -109 -119c-45 -69 -67 -130 -67 -182v-13c5 -68 35 -127 93 -176 s125 -73 203 -73c25 0 50 3 75 9c-19 111 -36 221 -54 331z" />
      </g>
      <g id="E262-l14kjhmj">
         <path transform="scale(1,-1)" d="M136 186v169h17v-164l44 14v-91l-44 -14v-165l44 12v-91l-44 -13v-155h-17v150l-76 -22v-155h-17v149l-43 -13v90l43 14v167l-43 -14v92l43 13v169h17v-163zM60 73v-167l76 22v168z" />
      </g>
      <g id="E086-l14kjhmj">
         <path transform="scale(1,-1)" d="M284 -91c0 37 -28 92 -67 92c-35 0 -65 -54 -65 -111c0 -52 22 -104 68 -104c47 0 64 68 64 123zM230 214c-36 0 -90 -33 -90 -184l2 -36c40 24 81 36 120 36c80 0 140 -48 140 -121c0 -99 -99 -159 -182 -159c-160 0 -200 173 -200 244c0 21 2 43 7 71l10 35 c26 85 73 115 98 126c41 19 74 24 103 24c93 0 142 -63 142 -105c0 -58 -52 -72 -73 -72c-33 0 -59 24 -65 35c-3 5 -6 14 -7 25l11 30c6 15 9 27 9 35c0 11 -9 16 -25 16z" />
      </g>
      <g id="E088-l14kjhmj">
         <path transform="scale(1,-1)" d="M195 -214c76 0 88 58 90 68c0 34 -35 60 -57 73l-52 29c-21 10 -32 17 -34 20c-39 -33 -58 -54 -62 -92c5 -23 23 -98 115 -98zM301 135c0 61 -72 76 -113 76c-40 0 -77 -17 -77 -51c3 -21 15 -38 26 -50c17 -15 33 -26 48 -34l65 -28c34 27 51 56 51 87zM176 -250 c-57 0 -166 26 -166 132c0 47 30 86 89 116c-33 15 -79 60 -79 119c0 79 85 132 178 132h18c5 0 21 1 28 -1c25 0 126 -30 126 -110c0 -37 -23 -76 -69 -116c43 -25 83 -71 83 -119c0 -101 -118 -153 -208 -153z" />
      </g>
      <g id="E4E6-l14kjhmj">
         <path transform="scale(1,-1)" d="M0 123c7 34 33 56 69 60c29 -3 43 -9 53 -29c4 -8 7 -15 10 -22c0 -21 -1 -25 -11 -35c-5 -8 -18 -14 -40 -20l12 -3l15 -1c44 0 97 26 122 56c10 11 18 26 24 42c7 1 15 2 22 3l-140 -424h-36l111 330c-10 -6 -27 -12 -53 -16l-52 -8h-10l-20 1c-1 0 -8 3 -21 6 c-37 9 -55 28 -55 60z" />
      </g>
      <g id="E0A4-l14kjhmj">
         <path transform="scale(1,-1)" d="M0 -39c0 68 73 172 200 172c66 0 114 -37 114 -95c0 -84 -106 -171 -218 -171c-64 0 -96 30 -96 94z" />
      </g>
   </defs>
   <style type="text/css">#l14kjhmj g.ending, #l14kjhmj g.fing, #l14kjhmj g.reh, #l14kjhmj g.tempo {font-weight:bold;}#l14kjhmj g.dir, #l14kjhmj g.dynam, #l14kjhmj g.mNum {font-style:italic;}#l14kjhmj g.label {font-weight:normal;}#l14kjhmj ellipse, #l14kjhmj path, #l14kjhmj polygon, #l14kjhmj polyline, #l14kjhmj rect {stroke:currentColor}</style>
   <svg class="definition-scale" color="black" font-family="Times, serif" viewBox="0 0 14850 1900">
      <g class="page-margin" transform="translate(50, 50)">
         <g id="m1b49ihh" class="mdiv pageMilestone" />
         <g id="n9w4ai8" class="score pageMilestone" />
         <g id="w10e2l1c" class="system">
            <g id="c1y13ww" class="section systemMilestone" />
            <g id="d6ihap9" class="measure">
               <g id="m1mlseqx" class="staff">
                  <path d="M0 540 L4688 540" stroke-width="13" />
                  <path d="M0 720 L4688 720" stroke-width="13" />
                  <path d="M0 900 L4688 900" stroke-width="13" />
                  <path d="M0 1080 L4688 1080" stroke-width="13" />
                  <path d="M0 1260 L4688 1260" stroke-width="13" />
                  <g id="k1hqqvv5" class="clef">
                     <use xlink:href="#E050-l14kjhmj" transform="translate(90, 1080) scale(0.72, 0.72)" />
                  </g>
                  <g id="l1gox9cp" class="keySig">
                     <g id="mfd76mg" class="keyAccid">
                        <use xlink:href="#E262-l14kjhmj" transform="translate(735, 540) scale(0.72, 0.72)" />
                     </g>
                  </g>
                  <g id="n1hihccr" class="meterSig">
                     <use xlink:href="#E086-l14kjhmj" transform="translate(1042, 720) scale(0.72, 0.72)" />
                     <use xlink:href="#E088-l14kjhmj" transform="translate(1049, 1080) scale(0.72, 0.72)" />
                  </g>
                  <g id="n18kn67t" class="layer">
                     <g id="o18j46s5" class="rest">
                        <use xlink:href="#E4E6-l14kjhmj" transform="translate(1601, 900) scale(0.72, 0.72)" />
                     </g>
                     <g id="pueeoag" class="beam">
                        <polygon points="2259,495 2857,495 2857,585 2259,585" />
                        <polygon points="2631,630 2857,630 2857,720 2631,720" />
                        <g id="qulixmw" class="note">
                           <g class="notehead">
                              <use xlink:href="#E0A4-l14kjhmj" transform="translate(2051, 1080) scale(0.72, 0.72)" />
                           </g>
                           <g id="vrfajv9" class="dots">
                              <ellipse cx="2367" cy="990" rx="36" ry="36" />
                           </g>
                           <g id="u133j8fh" class="stem">
                              <path d="M2268 1052 L2268 513" stroke-width="18" />
                           </g>
                        </g>
                        <g id="rzytz26" class="note">
                           <g class="notehead">
                              <use xlink:href="#E0A4-l14kjhmj" transform="translate(2631, 1080) scale(0.72, 0.72)" />
                           </g>
                           <g id="wol0s73" class="stem">
                              <path d="M2848 1052 L2848 513" stroke-width="18" />
                           </g>
                        </g>
                     </g>
                     <g id="s13zf2h6" class="beam">
                        <polygon points="2947,1575 4363,1575 4363,1485 2947,1485" />
                        <polygon points="3406,1440 3722,1440 3722,1350 3406,1350" />
                        <polygon points="3722,1440 4038,1440 4038,1350 3722,1350" />
                        <polygon points="4038,1440 4363,1440 4363,1350 4038,1350" />
                        <g id="tx3ugaj" class="note">
                           <g class="notehead">
                              <use xlink:href="#E0A4-l14kjhmj" transform="translate(2947, 990) scale(0.72, 0.72)" />
                           </g>
                           <g id="x1lhxwkp" class="stem">
                              <path d="M2956 1018 L2956 1557" stroke-width="18" />
                           </g>
                        </g>
                        <g id="u1hk1294" class="note">
                           <g class="notehead">
                              <use xlink:href="#E0A4-l14kjhmj" transform="translate(3397, 720) scale(0.72, 0.72)" />
                           </g>
                           <g id="y1sk1dwm" class="stem">
                              <path d="M3406 748 L3406 1557" stroke-width="18" />
                           </g>
                        </g>
                        <g id="v1rib72" class="note">
                           <g class="notehead">
                              <use xlink:href="#E0A4-l14kjhmj" transform="translate(3713, 990) scale(0.72, 0.72)" />
                           </g>
                           <g id="z18mhx9t" class="stem">
                              <path d="M3722 1018 L3722 1557" stroke-width="18" />
                           </g>
                        </g>
                        <g id="wjfsjv0" class="note">
                           <g class="notehead">
                              <use xlink:href="#E0A4-l14kjhmj" transform="translate(4029, 900) scale(0.72, 0.72)" />
                           </g>
                           <g id="aom5adn" class="stem">
                              <path d="M4038 928 L4038 1557" stroke-width="18" />
                           </g>
                        </g>
                        <g id="x1b9lf07" class="note">
                           <g class="notehead">
                              <use xlink:href="#E0A4-l14kjhmj" transform="translate(4345, 810) scale(0.72, 0.72)" />
                           </g>
                           <g id="b1j5hs3m" class="stem">
                              <path d="M4354 838 L4354 1557" stroke-width="18" />
                           </g>
                        </g>
                     </g>
                  </g>
               </g>
               <g id="y1j3hu7b" class="tempo">
                  <text x="1049" y="366" font-size="0px">
                     <tspan id="z1m69xch" class="text">
                        <tspan font-size="405px">Allegro</tspan>
                     </tspan>
                  </text>
               </g>
               <g id="lt9y5x6" class="barLine">
                  <path d="M4675 540 L4675 1260" stroke-width="27" />
               </g>
            </g>
            <g id="a1fgvlyo" class="measure">
               <g id="j13a2eo8" class="staff">
                  <path d="M4688 540 L7907 540" stroke-width="13" />
                  <path d="M4688 720 L7907 720" stroke-width="13" />
                  <path d="M4688 900 L7907 900" stroke-width="13" />
                  <path d="M4688 1080 L7907 1080" stroke-width="13" />
                  <path d="M4688 1260 L7907 1260" stroke-width="13" />
                  <g id="ktaylvm" class="layer">
                     <g id="l1t86asi" class="beam">
                        <polygon points="4868,1485 5786,1305 5786,1215 4868,1395" />
                        <g id="mgp1863" class="note">
                           <g class="notehead">
                              <use xlink:href="#E0A4-l14kjhmj" transform="translate(4868, 900) scale(0.72, 0.72)" />
                           </g>
                           <g id="cxdnda7" class="stem">
                              <path d="M4877 928 L4877 1467" stroke-width="18" />
                           </g>
                        </g>
                        <g id="ny652sc" class="note">
                           <g class="notehead">
                              <use xlink:href="#E0A4-l14kjhmj" transform="translate(5318, 450) scale(0.72, 0.72)" />
                           </g>
                           <g id="d1lynp51" class="stem">
                              <path d="M5327 478 L5327 1377" stroke-width="18" />
                           </g>
                        </g>
                        <g id="o1pknjfi" class="note">
                           <g class="notehead">
                              <use xlink:href="#E0A4-l14kjhmj" transform="translate(5768, 450) scale(0.72, 0.72)" />
                           </g>
                           <g id="e1yq3gjd" class="stem">
                              <path d="M5777 478 L5777 1287" stroke-width="18" />
                           </g>
                        </g>
                     </g>
                     <g id="pupmr82" class="beam">
                        <polygon points="6218,1440 7582,1440 7582,1350 6218,1350" />
                        <polygon points="7257,1305 7582,1305 7582,1215 7257,1215" />
                        <polygon points="7257,1170 7582,1170 7582,1080 7257,1080" />
                        <g id="qn4bs1y" class="note">
                           <g class="notehead">
                              <use xlink:href="#E0A4-l14kjhmj" transform="translate(6218, 450) scale(0.72, 0.72)" />
                           </g>
                           <g id="fll1026" class="stem">
                              <path d="M6227 478 L6227 1422" stroke-width="18" />
                           </g>
                        </g>
                        <g id="rr6i3js" class="note">
                           <g class="notehead">
                              <use xlink:href="#E0A4-l14kjhmj" transform="translate(6668, 540) scale(0.72, 0.72)" />
                           </g>
                           <g id="h1ql6od0" class="dots">
                              <ellipse cx="6984" cy="450" rx="36" ry="36" />
                           </g>
                           <g id="ga3hm4o" class="stem">
                              <path d="M6677 568 L6677 1422" stroke-width="18" />
                           </g>
                           <g id="s1b71lci" class="accid" />
                        </g>
                        <g id="tlh2oi6" class="note">
                           <g class="notehead">
                              <use xlink:href="#E0A4-l14kjhmj" transform="translate(7248, 630) scale(0.72, 0.72)" />
                           </g>
                           <g id="i6ot7yf" class="stem">
                              <path d="M7257 658 L7257 1422" stroke-width="18" />
                           </g>
                        </g>
                        <g id="uas9qzl" class="note">
                           <g class="notehead">
                              <use xlink:href="#E0A4-l14kjhmj" transform="translate(7564, 540) scale(0.72, 0.72)" />
                           </g>
                           <g id="jw1inbm" class="stem">
                              <path d="M7573 568 L7573 1422" stroke-width="18" />
                           </g>
                           <g id="v98rm84" class="accid" />
                        </g>
                     </g>
                  </g>
               </g>
               <g id="i12am04a" class="barLine">
                  <path d="M7894 540 L7894 1260" stroke-width="27" />
               </g>
            </g>
            <g id="w3c7grn" class="measure">
               <g id="f1cd3nai" class="staff">
                  <path d="M7907 540 L11672 540" stroke-width="13" />
                  <path d="M7907 720 L11672 720" stroke-width="13" />
                  <path d="M7907 900 L11672 900" stroke-width="13" />
                  <path d="M7907 1080 L11672 1080" stroke-width="13" />
                  <path d="M7907 1260 L11672 1260" stroke-width="13" />
                  <g class="ledgerLines above">
                     <path d="M9139 360 L9425 360" stroke-width="22" />
                     <path d="M9455 360 L9741 360" stroke-width="22" />
                  </g>
                  <g id="gnsbmyp" class="layer">
                     <g id="h1ebu56x" class="beam">
                        <polygon points="8087,1125 9503,1125 9503,1035 8087,1035" />
                        <polygon points="8546,990 8862,990 8862,900 8546,900" />
                        <polygon points="8862,990 9178,990 9178,900 8862,900" />
                        <polygon points="9178,990 9503,990 9503,900 9178,900" />
                        <g id="isheu10" class="note">
                           <g class="notehead">
                              <use xlink:href="#E0A4-l14kjhmj" transform="translate(8087, 450) scale(0.72, 0.72)" />
                           </g>
                           <g id="k12nuv4u" class="stem">
                              <path d="M8096 478 L8096 1107" stroke-width="18" />
                           </g>
                        </g>
                        <g id="j12aqwnm" class="note">
                           <g class="notehead">
                              <use xlink:href="#E0A4-l14kjhmj" transform="translate(8537, 540) scale(0.72, 0.72)" />
                           </g>
                           <g id="l6cwd46" class="stem">
                              <path d="M8546 568 L8546 1107" stroke-width="18" />
                           </g>
                           <g id="k1lu7woo" class="accid" />
                        </g>
                        <g id="lvikyr8" class="note">
                           <g class="notehead">
                              <use xlink:href="#E0A4-l14kjhmj" transform="translate(8853, 450) scale(0.72, 0.72)" />
                           </g>
                           <g id="m1vdyrmt" class="stem">
                              <path d="M8862 478 L8862 1107" stroke-width="18" />
                           </g>
                        </g>
                        <g id="m19sbs41" class="note">
                           <g class="notehead">
                              <use xlink:href="#E0A4-l14kjhmj" transform="translate(9169, 360) scale(0.72, 0.72)" />
                           </g>
                           <g id="n9lghwc" class="stem">
                              <path d="M9178 388 L9178 1107" stroke-width="18" />
                           </g>
                        </g>
                        <g id="n1iv1o13" class="note">
                           <g class="notehead">
                              <use xlink:href="#E0A4-l14kjhmj" transform="translate(9485, 270) scale(0.72, 0.72)" />
                           </g>
                           <g id="o9f7q8b" class="stem">
                              <path d="M9494 298 L9494 1107" stroke-width="18" />
                           </g>
                        </g>
                     </g>
                     <g id="ozd3wse" class="beam">
                        <polygon points="9801,1125 10135,1170 10135,1080 9801,1035" />
                        <polygon points="9801,990 10135,1035 10135,945 9801,900" />
                        <g id="pc1ass6" class="note">
                           <g class="notehead">
                              <use xlink:href="#E0A4-l14kjhmj" transform="translate(9801, 450) scale(0.72, 0.72)" />
                           </g>
                           <g id="p74i882" class="stem">
                              <path d="M9810 478 L9810 1107" stroke-width="18" />
                           </g>
                        </g>
                        <g id="qfu5n33" class="note">
                           <g class="notehead">
                              <use xlink:href="#E0A4-l14kjhmj" transform="translate(10117, 540) scale(0.72, 0.72)" />
                           </g>
                           <g id="q18yadg9" class="stem">
                              <path d="M10126 568 L10126 1152" stroke-width="18" />
                           </g>
                           <g id="rtivlpq" class="accid" />
                        </g>
                     </g>
                     <g id="s1hjahl2" class="beam">
                        <polygon points="10433,1440 11347,1440 11347,1350 10433,1350" />
                        <polygon points="11022,1305 11347,1305 11347,1215 11022,1215" />
                        <polygon points="11022,1170 11347,1170 11347,1080 11022,1080" />
                        <g id="t4eg9l7" class="note">
                           <g class="notehead">
                              <use xlink:href="#E0A4-l14kjhmj" transform="translate(10433, 630) scale(0.72, 0.72)" />
                           </g>
                           <g id="s1ptqokf" class="dots">
                              <ellipse cx="10749" cy="630" rx="36" ry="36" />
                           </g>
                           <g id="rw0thsj" class="stem">
                              <path d="M10442 658 L10442 1422" stroke-width="18" />
                           </g>
                        </g>
                        <g id="u5o59m0" class="note">
                           <g class="notehead">
                              <use xlink:href="#E0A4-l14kjhmj" transform="translate(11013, 720) scale(0.72, 0.72)" />
                           </g>
                           <g id="t9uky6y" class="stem">
                              <path d="M11022 748 L11022 1422" stroke-width="18" />
                           </g>
                        </g>
                        <g id="vuj0tm0" class="note">
                           <g class="notehead">
                              <use xlink:href="#E0A4-l14kjhmj" transform="translate(11329, 630) scale(0.72, 0.72)" />
                           </g>
                           <g id="u1l3fbjo" class="stem">
                              <path d="M11338 658 L11338 1422" stroke-width="18" />
                           </g>
                        </g>
                     </g>
                  </g>
               </g>
               <g id="e15c4d4k" class="barLine">
                  <path d="M11659 540 L11659 1260" stroke-width="27" />
               </g>
            </g>
            <g id="w9lb2g0" class="measure">
               <g id="fr7qdyf" class="staff">
                  <path d="M11672 540 L14757 540" stroke-width="13" />
                  <path d="M11672 720 L14757 720" stroke-width="13" />
                  <path d="M11672 900 L14757 900" stroke-width="13" />
                  <path d="M11672 1080 L14757 1080" stroke-width="13" />
                  <path d="M11672 1260 L14757 1260" stroke-width="13" />
                  <g id="g1u7gu4o" class="layer">
                     <g id="h1ldsdrz" class="beam">
                        <polygon points="11852,1305 12770,1305 12770,1215 11852,1215" />
                        <g id="i1sazrig" class="note">
                           <g class="notehead">
                              <use xlink:href="#E0A4-l14kjhmj" transform="translate(11852, 540) scale(0.72, 0.72)" />
                           </g>
                           <g id="vbnpgli" class="stem">
                              <path d="M11861 568 L11861 1287" stroke-width="18" />
                           </g>
                           <g id="j95ce5p" class="accid" />
                        </g>
                        <g id="k13a6pza" class="note">
                           <g class="notehead">
                              <use xlink:href="#E0A4-l14kjhmj" transform="translate(12302, 720) scale(0.72, 0.72)" />
                           </g>
                           <g id="w11ztjyi" class="stem">
                              <path d="M12311 748 L12311 1287" stroke-width="18" />
                           </g>
                        </g>
                        <g id="l1diht43" class="note">
                           <g class="notehead">
                              <use xlink:href="#E0A4-l14kjhmj" transform="translate(12752, 630) scale(0.72, 0.72)" />
                           </g>
                           <g id="x1rsb16z" class="stem">
                              <path d="M12761 658 L12761 1287" stroke-width="18" />
                           </g>
                        </g>
                     </g>
                     <g id="mk224im" class="beam">
                        <polygon points="13202,1620 13536,1665 13536,1575 13202,1530" />
                        <polygon points="13202,1485 13536,1530 13536,1440 13202,1395" />
                        <g id="n1esxs6e" class="note">
                           <g class="notehead">
                              <use xlink:href="#E0A4-l14kjhmj" transform="translate(13202, 810) scale(0.72, 0.72)" />
                           </g>
                           <g id="y1cj9c0m" class="stem">
                              <path d="M13211 838 L13211 1602" stroke-width="18" />
                           </g>
                        </g>
                        <g id="oc091tq" class="note">
                           <g class="notehead">
                              <use xlink:href="#E0A4-l14kjhmj" transform="translate(13518, 990) scale(0.72, 0.72)" />
                           </g>
                           <g id="z13v7fcp" class="stem">
                              <path d="M13527 1018 L13527 1647" stroke-width="18" />
                           </g>
                        </g>
                     </g>
                     <g id="p1clquz9" class="beam">
                        <polygon points="13834,1350 14432,1440 14432,1350 13834,1260" />
                        <polygon points="14206,1273 14432,1305 14432,1215 14206,1183" />
                        <g id="q1vwhaaw" class="note">
                           <g class="notehead">
                              <use xlink:href="#E0A4-l14kjhmj" transform="translate(13834, 720) scale(0.72, 0.72)" />
                           </g>
                           <g id="b1qwcdp2" class="dots">
                              <ellipse cx="14150" cy="630" rx="36" ry="36" />
                           </g>
                           <g id="a1ax4o5t" class="stem">
                              <path d="M13843 748 L13843 1332" stroke-width="18" />
                           </g>
                        </g>
                        <g id="r1veqt98" class="note">
                           <g class="notehead">
                              <use xlink:href="#E0A4-l14kjhmj" transform="translate(14414, 810) scale(0.72, 0.72)" />
                           </g>
                           <g id="c1e34iwd" class="stem">
                              <path d="M14423 838 L14423 1422" stroke-width="18" />
                           </g>
                        </g>
                     </g>
                  </g>
               </g>
               <g id="e123erpf" class="barLine">
                  <path d="M14744 540 L14744 1260" stroke-width="27" />
               </g>
            </g>
            <g id="z18e1no4" class="systemMilestoneEnd c1y13ww" />
         </g>
         <g id="a1fcjd3r" class="pageMilestoneEnd n9w4ai8" />
         <g id="bbo6tt" class="pageMilestoneEnd m1b49ihh" />
         <g id="c1fmu6d3" class="pgHead autogenerated" />
      </g>
   </svg>
</svg>
