<?xml version="1.0" encoding="UTF-8" standalone="no"?>
<svg width="966px" height="171px" version="1.1" xmlns="http://www.w3.org/2000/svg" xmlns:xlink="http://www.w3.org/1999/xlink" overflow="visible" id="i1tp38ib">
   <desc>Engraved by Verovio 6.1.0[undefined]</desc>
   <defs>
      <g id="E050-i1tp38ib">
         <path transform="scale(1,-1)" d="M441 -245c-23 -4 -48 -6 -76 -6c-59 0 -102 7 -130 20c-88 42 -150 93 -187 154c-26 44 -43 103 -48 176c0 6 -1 13 -1 19c0 54 15 111 45 170c29 57 65 106 110 148s96 85 153 127c-3 16 -8 46 -13 92c-4 43 -5 73 -5 89c0 117 16 172 69 257c34 54 64 82 89 82 c21 0 43 -30 69 -92s39 -115 41 -159v-15c0 -109 -21 -162 -67 -241c-13 -20 -63 -90 -98 -118c-13 -9 -25 -19 -37 -29l31 -181c8 1 18 2 28 2c58 0 102 -12 133 -35c59 -43 92 -104 98 -184c1 -7 1 -15 1 -22c0 -123 -87 -209 -181 -248c8 -57 17 -110 25 -162 c5 -31 6 -58 6 -80c0 -30 -5 -53 -14 -70c-35 -64 -88 -99 -158 -103c-5 0 -11 -1 -16 -1c-37 0 -72 10 -108 27c-50 24 -77 59 -80 105v11c0 29 7 55 20 76c18 28 45 42 79 44h6c49 0 93 -42 97 -87v-9c0 -51 -34 -86 -105 -106c17 -24 51 -36 102 -36c62 0 116 43 140 85 c9 16 13 41 13 74c0 20 -1 42 -5 67c-8 53 -18 106 -26 159zM461 939c-95 0 -135 -175 -135 -286c0 -24 2 -48 5 -71c50 39 92 82 127 128c40 53 60 100 60 140v8c-4 53 -22 81 -55 81h-2zM406 119l54 -326c73 25 110 78 110 161c0 7 0 15 -1 23c-7 95 -57 142 -151 142h-12 zM382 117c-72 -2 -128 -47 -128 -120v-7c2 -46 43 -99 75 -115c-3 -2 -7 -5 -10 -10c-70 33 -116 88 -123 172v11c0 68 44 126 88 159c23 17 49 29 78 36l-29 170c-21 -13 -52 -37 -92 -73c-50 -44 -86 -84 -109 -119c-45 -69 -67 -130 -67 -182v-13c5 -68 35 -127 93 -176 s125 -73 203 -73c25 0 50 3 75 9c-19 111 -36 221 -54 331z" />
      </g>
      <g id="E262-i1tp38ib">
         <path transform="scale(1,-1)" d="M136 186v169h17v-164l44 14v-91l-44 -14v-165l44 12v-91l-44 -13v-155h-17v150l-76 -22v-155h-17v149l-43 -13v90l43 14v167l-43 -14v92l43 13v169h17v-163zM60 73v-167l76 22v168z" />
      </g>
      <g id="E086-i1tp38ib">
         <path transform="scale(1,-1)" d="M284 -91c0 37 -28 92 -67 92c-35 0 -65 -54 -65 -111c0 -52 22 -104 68 -104c47 0 64 68 64 123zM230 214c-36 0 -90 -33 -90 -184l2 -36c40 24 81 36 120 36c80 0 140 -48 140 -121c0 -99 -99 -159 -182 -159c-160 0 -200 173 -200 244c0 21 2 43 7 71l10 35 c26 85 73 115 98 126c41 19 74 24 103 24c93 0 142 -63 142 -105c0 -58 -52 -72 -73 -72c-33 0 -59 24 -65 35c-3 5 -6 14 -7 25l11 30c6 15 9 27 9 35c0 11 -9 16 -25 16z" />
      </g>
      <g id="E088-i1tp38ib">
         <path transform="scale(1,-1)" d="M195 -214c76 0 88 58 90 68c0 34 -35 60 -57 73l-52 29c-21 10 -32 17 -34 20c-39 -33 -58 -54 -62 -92c5 -23 23 -98 115 -98zM301 135c0 61 -72 76 -113 76c-40 0 -77 -17 -77 -51c3 -21 15 -38 26 -50c17 -15 33 -26 48 -34l65 -28c34 27 51 56 51 87zM176 -250 c-57 0 -166 26 -166 132c0 47 30 86 89 116c-33 15 -79 60 -79 119c0 79 85 132 178 132h18c5 0 21 1 28 -1c25 0 126 -30 126 -110c0 -37 -23 -76 -69 -116c43 -25 83 -71 83 -119c0 -101 -118 -153 -208 -153z" />
      </g>
      <g id="E4E6-i1tp38ib">
         <path transform="scale(1,-1)" d="M0 123c7 34 33 56 69 60c29 -3 43 -9 53 -29c4 -8 7 -15 10 -22c0 -21 -1 -25 -11 -35c-5 -8 -18 -14 -40 -20l12 -3l15 -1c44 0 97 26 122 56c10 11 18 26 24 42c7 1 15 2 22 3l-140 -424h-36l111 330c-10 -6 -27 -12 -53 -16l-52 -8h-10l-20 1c-1 0 -8 3 -21 6 c-37 9 -55 28 -55 60z" />
      </g>
      <g id="E0A4-i1tp38ib">
         <path transform="scale(1,-1)" d="M0 -39c0 68 73 172 200 172c66 0 114 -37 114 -95c0 -84 -106 -171 -218 -171c-64 0 -96 30 -96 94z" />
      </g>
   </defs>
   <style type="text/css">#i1tp38ib g.ending, #i1tp38ib g.fing, #i1tp38ib g.reh, #i1tp38ib g.tempo {font-weight:bold;}#i1tp38ib g.dir, #i1tp38ib g.dynam, #i1tp38ib g.mNum {font-style:italic;}#i1tp38ib g.label {font-weight:normal;}#i1tp38ib ellipse, #i1tp38ib path, #i1tp38ib polygon, #i1tp38ib polyline, #i1tp38ib rect {stroke:currentColor}</style>
   <svg class="definition-scale" color="black" font-family="Times, serif" viewBox="0 0 14850 2620">
      <g class="page-margin" transform="translate(50, 50)">
         <g id="j15agbxi" class="mdiv pageMilestone" />
         <g id="k6ylm7j" class="score pageMilestone" />
         <g id="t1wuq0lo" class="system">
            <g id="z1c27kff" class="section systemMilestone" />
            <g id="a10n2mw5" class="measure">
               <g id="j19hzifl" class="staff">
                  <path d="M0 1269 L4688 1269" stroke-width="13" />
                  <path d="M0 1449 L4688 1449" stroke-width="13" />
                  <path d="M0 1629 L4688 1629" stroke-width="13" />
                  <path d="M0 1809 L4688 1809" stroke-width="13" />
                  <path d="M0 1989 L4688 1989" stroke-width="13" />
                  <g id="kjzalvg" class="clef">
                     <use xlink:href="#E050-i1tp38ib" transform="translate(90, 1809) scale(0.72, 0.72)" />
                  </g>
                  <g id="lnzr367" class="keySig">
                     <g id="m1vzubry" class="keyAccid">
                        <use xlink:href="#E262-i1tp38ib" transform="translate(735, 1269) scale(0.72, 0.72)" />
                     </g>
                  </g>
                  <g id="nleew8i" class="meterSig">
                     <use xlink:href="#E086-i1tp38ib" transform="translate(1042, 1449) scale(0.72, 0.72)" />
                     <use xlink:href="#E088-i1tp38ib" transform="translate(1049, 1809) scale(0.72, 0.72)" />
                  </g>
                  <g id="kzk5e50" class="layer">
                     <g id="lhn105m" class="rest">
                        <use xlink:href="#E4E6-i1tp38ib" transform="translate(1601, 1629) scale(0.72, 0.72)" />
                     </g>
                     <g id="mu0wb80" class="beam">
                        <polygon points="2259,1224 2857,1224 2857,1314 2259,1314" />
                        <polygon points="2631,1359 2857,1359 2857,1449 2631,1449" />
                        <g id="n19q9rry" class="note">
                           <g class="notehead">
                              <use xlink:href="#E0A4-i1tp38ib" transform="translate(2051, 1809) scale(0.72, 0.72)" />
                           </g>
                           <g id="v1lclmdx" class="dots">
                              <ellipse cx="2367" cy="1719" rx="36" ry="36" />
                           </g>
                           <g id="u169uc1z" class="stem">
                              <path d="M2268 1781 L2268 1242" stroke-width="18" />
                           </g>
                        </g>
                        <g id="odii1e5" class="note">
                           <g class="notehead">
                              <use xlink:href="#E0A4-i1tp38ib" transform="translate(2631, 1809) scale(0.72, 0.72)" />
                           </g>
                           <g id="wu58mgn" class="stem">
                              <path d="M2848 1781 L2848 1242" stroke-width="18" />
                           </g>
                        </g>
                     </g>
                     <g id="pgrjy86" class="beam">
                        <polygon points="2947,2304 4363,2304 4363,2214 2947,2214" />
                        <polygon points="3406,2169 3722,2169 3722,2079 3406,2079" />
                        <polygon points="3722,2169 4038,2169 4038,2079 3722,2079" />
                        <polygon points="4038,2169 4363,2169 4363,2079 4038,2079" />
                        <g id="q1x7z12f" class="note">
                           <g class="notehead">
                              <use xlink:href="#E0A4-i1tp38ib" transform="translate(2947, 1719) scale(0.72, 0.72)" />
                           </g>
                           <g id="x1q1lju8" class="stem">
                              <path d="M2956 1747 L2956 2286" stroke-width="18" />
                           </g>
                        </g>
                        <g id="rtlyqho" class="note">
                           <g class="notehead">
                              <use xlink:href="#E0A4-i1tp38ib" transform="translate(3397, 1449) scale(0.72, 0.72)" />
                           </g>
                           <g id="y1gdnjo1" class="stem">
                              <path d="M3406 1477 L3406 2286" stroke-width="18" />
                           </g>
                        </g>
                        <g id="s17f8l13" class="note">
                           <g class="notehead">
                              <use xlink:href="#E0A4-i1tp38ib" transform="translate(3713, 1719) scale(0.72, 0.72)" />
                           </g>
                           <g id="z17t4j6y" class="stem">
                              <path d="M3722 1747 L3722 2286" stroke-width="18" />
                           </g>
                        </g>
                        <g id="t11qtn7f" class="note">
                           <g class="notehead">
                              <use xlink:href="#E0A4-i1tp38ib" transform="translate(4029, 1629) scale(0.72, 0.72)" />
                           </g>
                           <g id="a58hdb" class="stem">
                              <path d="M4038 1657 L4038 2286" stroke-width="18" />
                           </g>
                        </g>
                        <g id="u13sde5v" class="note">
                           <g class="notehead">
                              <use xlink:href="#E0A4-i1tp38ib" transform="translate(4345, 1539) scale(0.72, 0.72)" />
                           </g>
                           <g id="b3ahuyw" class="stem">
                              <path d="M4354 1567 L4354 2286" stroke-width="18" />
                           </g>
                        </g>
                     </g>
                  </g>
               </g>
               <g id="vjp0w8g" class="tempo">
                  <text x="1049" y="1095" font-size="0px">
                     <tspan id="w1pltf0c" class="text">
                        <tspan font-size="405px">Allegro</tspan>
                     </tspan>
                  </text>
               </g>
               <g id="imb3b7o" class="barLine">
                  <path d="M4675 1269 L4675 1989" stroke-width="27" />
               </g>
            </g>
            <g id="x1unucqi" class="measure">
               <g id="glq46py" class="staff">
                  <path d="M4688 1269 L7907 1269" stroke-width="13" />
                  <path d="M4688 1449 L7907 1449" stroke-width="13" />
                  <path d="M4688 1629 L7907 1629" stroke-width="13" />
                  <path d="M4688 1809 L7907 1809" stroke-width="13" />
                  <path d="M4688 1989 L7907 1989" stroke-width="13" />
                  <g id="h189yt1q" class="layer">
                     <g id="ijj7er7" class="beam">
                        <polygon points="4868,2214 5786,2034 5786,1944 4868,2124" />
                        <g id="jynxgwf" class="note">
                           <g class="notehead">
                              <use xlink:href="#E0A4-i1tp38ib" transform="translate(4868, 1629) scale(0.72, 0.72)" />
                           </g>
                           <g id="c1k840r" class="stem">
                              <path d="M4877 1657 L4877 2196" stroke-width="18" />
                           </g>
                        </g>
                        <g id="kjr6lat" class="note">
                           <g class="notehead">
                              <use xlink:href="#E0A4-i1tp38ib" transform="translate(5318, 1179) scale(0.72, 0.72)" />
                           </g>
                           <g id="dnud3yf" class="stem">
                              <path d="M5327 1207 L5327 2106" stroke-width="18" />
                           </g>
                        </g>
                        <g id="lt1d1f6" class="note">
                           <g class="notehead">
                              <use xlink:href="#E0A4-i1tp38ib" transform="translate(5768, 1179) scale(0.72, 0.72)" />
                           </g>
                           <g id="e99b4vb" class="stem">
                              <path d="M5777 1207 L5777 2016" stroke-width="18" />
                           </g>
                        </g>
                     </g>
                     <g id="m2ics4p" class="beam">
                        <polygon points="6218,2169 7582,2169 7582,2079 6218,2079" />
                        <polygon points="7257,2034 7582,2034 7582,1944 7257,1944" />
                        <polygon points="7257,1899 7582,1899 7582,1809 7257,1809" />
                        <g id="n1bux4hx" class="note">
                           <g class="notehead">
                              <use xlink:href="#E0A4-i1tp38ib" transform="translate(6218, 1179) scale(0.72, 0.72)" />
                           </g>
                           <g id="fv8a12j" class="stem">
                              <path d="M6227 1207 L6227 2151" stroke-width="18" />
                           </g>
                        </g>
                        <g id="onosoiu" class="note">
                           <g class="notehead">
                              <use xlink:href="#E0A4-i1tp38ib" transform="translate(6668, 1269) scale(0.72, 0.72)" />
                           </g>
                           <g id="h1lpd63n" class="dots">
                              <ellipse cx="6984" cy="1179" rx="36" ry="36" />
                           </g>
                           <g id="gs350nr" class="stem">
                              <path d="M6677 1297 L6677 2151" stroke-width="18" />
                           </g>
                           <g id="phgjb2a" class="accid" />
                        </g>
                        <g id="q1iw9bi9" class="note">
                           <g class="notehead">
                              <use xlink:href="#E0A4-i1tp38ib" transform="translate(7248, 1359) scale(0.72, 0.72)" />
                           </g>
                           <g id="iszs2du" class="stem">
                              <path d="M7257 1387 L7257 2151" stroke-width="18" />
                           </g>
                        </g>
                        <g id="rag06i9" class="note">
                           <g class="notehead">
                              <use xlink:href="#E0A4-i1tp38ib" transform="translate(7564, 1269) scale(0.72, 0.72)" />
                           </g>
                           <g id="j8v6k0t" class="stem">
                              <path d="M7573 1297 L7573 2151" stroke-width="18" />
                           </g>
                           <g id="siqvhwy" class="accid" />
                        </g>
                     </g>
                  </g>
               </g>
               <g id="f100905h" class="barLine">
                  <path d="M7894 1269 L7894 1989" stroke-width="27" />
               </g>
            </g>
            <g id="tcredcn" class="measure">
               <g id="c1ygcmj7" class="staff">
                  <path d="M7907 1269 L11672 1269" stroke-width="13" />
                  <path d="M7907 1449 L11672 1449" stroke-width="13" />
                  <path d="M7907 1629 L11672 1629" stroke-width="13" />
                  <path d="M7907 1809 L11672 1809" stroke-width="13" />
                  <path d="M7907 1989 L11672 1989" stroke-width="13" />
                  <g class="ledgerLines above">
                     <path d="M9139 1089 L9425 1089" stroke-width="22" />
                     <path d="M9455 1089 L9741 1089" stroke-width="22" />
                  </g>
                  <g id="d1x7gynm" class="layer">
                     <g id="exc0qps" class="beam">
                        <polygon points="8087,1854 9503,1854 9503,1764 8087,1764" />
                        <polygon points="8546,1719 8862,1719 8862,1629 8546,1629" />
                        <polygon points="8862,1719 9178,1719 9178,1629 8862,1629" />
                        <polygon points="9178,1719 9503,1719 9503,1629 9178,1629" />
                        <g id="ft73m3u" class="note">
                           <g class="notehead">
                              <use xlink:href="#E0A4-i1tp38ib" transform="translate(8087, 1179) scale(0.72, 0.72)" />
                           </g>
                           <g id="kl9ssws" class="stem">
                              <path d="M8096 1207 L8096 1836" stroke-width="18" />
                           </g>
                        </g>
                        <g id="gwjoizu" class="note">
                           <g class="notehead">
                              <use xlink:href="#E0A4-i1tp38ib" transform="translate(8537, 1269) scale(0.72, 0.72)" />
                           </g>
                           <g id="li437hy" class="stem">
                              <path d="M8546 1297 L8546 1836" stroke-width="18" />
                           </g>
                           <g id="hbezq06" class="accid" />
                        </g>
                        <g id="i1gmstzp" class="note">
                           <g class="notehead">
                              <use xlink:href="#E0A4-i1tp38ib" transform="translate(8853, 1179) scale(0.72, 0.72)" />
                           </g>
                           <g id="mtugk5l" class="stem">
                              <path d="M8862 1207 L8862 1836" stroke-width="18" />
                           </g>
                        </g>
                        <g id="j159e6l" class="note">
                           <g class="notehead">
                              <use xlink:href="#E0A4-i1tp38ib" transform="translate(9169, 1089) scale(0.72, 0.72)" />
                           </g>
                           <g id="n1hnk8w5" class="stem">
                              <path d="M9178 1117 L9178 1836" stroke-width="18" />
                           </g>
                        </g>
                        <g id="kbaglxu" class="note">
                           <g class="notehead">
                              <use xlink:href="#E0A4-i1tp38ib" transform="translate(9485, 999) scale(0.72, 0.72)" />
                           </g>
                           <g id="o1njd4u4" class="stem">
                              <path d="M9494 1027 L9494 1836" stroke-width="18" />
                           </g>
                        </g>
                     </g>
                     <g id="lmorwnl" class="beam">
                        <polygon points="9801,1854 10135,1899 10135,1809 9801,1764" />
                        <polygon points="9801,1719 10135,1764 10135,1674 9801,1629" />
                        <g id="m46gcu9" class="note">
                           <g class="notehead">
                              <use xlink:href="#E0A4-i1tp38ib" transform="translate(9801, 1179) scale(0.72, 0.72)" />
                           </g>
                           <g id="puahdcb" class="stem">
                              <path d="M9810 1207 L9810 1836" stroke-width="18" />
                           </g>
                        </g>
                        <g id="noyjtkl" class="note">
                           <g class="notehead">
                              <use xlink:href="#E0A4-i1tp38ib" transform="translate(10117, 1269) scale(0.72, 0.72)" />
                           </g>
                           <g id="qzbkjl7" class="stem">
                              <path d="M10126 1297 L10126 1881" stroke-width="18" />
                           </g>
                           <g id="of9k12d" class="accid" />
                        </g>
                     </g>
                     <g id="p184jcic" class="beam">
                        <polygon points="10433,2169 11347,2169 11347,2079 10433,2079" />
                        <polygon points="11022,2034 11347,2034 11347,1944 11022,1944" />
                        <polygon points="11022,1899 11347,1899 11347,1809 11022,1809" />
                        <g id="qh0mdj" class="note">
                           <g class="notehead">
                              <use xlink:href="#E0A4-i1tp38ib" transform="translate(10433, 1359) scale(0.72, 0.72)" />
                           </g>
                           <g id="s19nyrzk" class="dots">
                              <ellipse cx="10749" cy="1359" rx="36" ry="36" />
                           </g>
                           <g id="r1u4ulbs" class="stem">
                              <path d="M10442 1387 L10442 2151" stroke-width="18" />
                           </g>
                        </g>
                        <g id="r8z5dh4" class="note">
                           <g class="notehead">
                              <use xlink:href="#E0A4-i1tp38ib" transform="translate(11013, 1449) scale(0.72, 0.72)" />
                           </g>
                           <g id="t1m8504i" class="stem">
                              <path d="M11022 1477 L11022 2151" stroke-width="18" />
                           </g>
                        </g>
                        <g id="sqjiezy" class="note">
                           <g class="notehead">
                              <use xlink:href="#E0A4-i1tp38ib" transform="translate(11329, 1359) scale(0.72, 0.72)" />
                           </g>
                           <g id="u2m52k3" class="stem">
                              <path d="M11338 1387 L11338 2151" stroke-width="18" />
                           </g>
                        </g>
                     </g>
                  </g>
               </g>
               <g id="bjnob4" class="barLine">
                  <path d="M11659 1269 L11659 1989" stroke-width="27" />
               </g>
            </g>
            <g id="t1byl1zb" class="measure">
               <g id="c1q49bsw" class="staff">
                  <path d="M11672 1269 L14757 1269" stroke-width="13" />
                  <path d="M11672 1449 L14757 1449" stroke-width="13" />
                  <path d="M11672 1629 L14757 1629" stroke-width="13" />
                  <path d="M11672 1809 L14757 1809" stroke-width="13" />
                  <path d="M11672 1989 L14757 1989" stroke-width="13" />
                  <g id="dezji6z" class="layer">
                     <g id="eshubjg" class="beam">
                        <polygon points="11852,2034 12770,2034 12770,1944 11852,1944" />
                        <g id="fiut40v" class="note">
                           <g class="notehead">
                              <use xlink:href="#E0A4-i1tp38ib" transform="translate(11852, 1269) scale(0.72, 0.72)" />
                           </g>
                           <g id="vhil1u2" class="stem">
                              <path d="M11861 1297 L11861 2016" stroke-width="18" />
                           </g>
                           <g id="g17c8p66" class="accid" />
                        </g>
                        <g id="h1g92zmp" class="note">
                           <g class="notehead">
                              <use xlink:href="#E0A4-i1tp38ib" transform="translate(12302, 1449) scale(0.72, 0.72)" />
                           </g>
                           <g id="wkby5hk" class="stem">
                              <path d="M12311 1477 L12311 2016" stroke-width="18" />
                           </g>
                        </g>
                        <g id="i1xi5frn" class="note">
                           <g class="notehead">
                              <use xlink:href="#E0A4-i1tp38ib" transform="translate(12752, 1359) scale(0.72, 0.72)" />
                           </g>
                           <g id="x1g9nxfw" class="stem">
                              <path d="M12761 1387 L12761 2016" stroke-width="18" />
                           </g>
                        </g>
                     </g>
                     <g id="j1l0uy5j" class="beam">
                        <polygon points="13202,2349 13536,2394 13536,2304 13202,2259" />
                        <polygon points="13202,2214 13536,2259 13536,2169 13202,2124" />
                        <g id="k1ddf1eu" class="note">
                           <g class="notehead">
                              <use xlink:href="#E0A4-i1tp38ib" transform="translate(13202, 1539) scale(0.72, 0.72)" />
                           </g>
                           <g id="yc43q0i" class="stem">
                              <path d="M13211 1567 L13211 2331" stroke-width="18" />
                           </g>
                        </g>
                        <g id="l1qy4cu2" class="note">
                           <g class="notehead">
                              <use xlink:href="#E0A4-i1tp38ib" transform="translate(13518, 1719) scale(0.72, 0.72)" />
                           </g>
                           <g id="z1g0a0x9" class="stem">
                              <path d="M13527 1747 L13527 2376" stroke-width="18" />
                           </g>
                        </g>
                     </g>
                     <g id="m14puvfm" class="beam">
                        <polygon points="13834,2079 14432,2169 14432,2079 13834,1989" />
                        <polygon points="14206,2002 14432,2034 14432,1944 14206,1912" />
                        <g id="n1u3pkpu" class="note">
                           <g class="notehead">
                              <use xlink:href="#E0A4-i1tp38ib" transform="translate(13834, 1449) scale(0.72, 0.72)" />
                           </g>
                           <g id="b3wgmk4" class="dots">
                              <ellipse cx="14150" cy="1359" rx="36" ry="36" />
                           </g>
                           <g id="amgcq9k" class="stem">
                              <path d="M13843 1477 L13843 2061" stroke-width="18" />
                           </g>
                        </g>
                        <g id="oq45kwv" class="note">
                           <g class="notehead">
                              <use xlink:href="#E0A4-i1tp38ib" transform="translate(14414, 1539) scale(0.72, 0.72)" />
                           </g>
                           <g id="c1ytpn6e" class="stem">
                              <path d="M14423 1567 L14423 2151" stroke-width="18" />
                           </g>
                        </g>
                     </g>
                  </g>
               </g>
               <g id="buc35o7" class="barLine">
                  <path d="M14744 1269 L14744 1989" stroke-width="27" />
               </g>
            </g>
            <g id="w1h5k97h" class="systemMilestoneEnd z1c27kff" />
         </g>
         <g id="xh6utpl" class="pageMilestoneEnd k6ylm7j" />
         <g id="y1bpx5ie" class="pageMilestoneEnd j15agbxi" />
         <g id="z1dcc1jo" class="pgHead autogenerated">
            <text font-size="0px">
               <tspan id="a1yva1n7" class="rend" x="10450" y="417" text-anchor="middle">
                  <title class="labelAttr">title</title>
                  <tspan id="bm0n34d" class="rend">
                     <tspan id="c1e6v5tf" class="text">
                        <tspan font-size="607px">S2_M4_Vl1_RISM</tspan>
                     </tspan>
                  </tspan>
               </tspan>
            </text>
         </g>
      </g>
   </svg>
</svg>
