<?xml version="1.0" encoding="UTF-8" standalone="no"?>
<svg width="945px" height="171px" version="1.1" xmlns="http://www.w3.org/2000/svg" xmlns:xlink="http://www.w3.org/1999/xlink" overflow="visible" id="w1pzj77x">
   <desc>Engraved by Verovio 6.1.0[undefined]</desc>
   <defs>
      <g id="E050-w1pzj77x">
         <path transform="scale(1,-1)" d="M441 -245c-23 -4 -48 -6 -76 -6c-59 0 -102 7 -130 20c-88 42 -150 93 -187 154c-26 44 -43 103 -48 176c0 6 -1 13 -1 19c0 54 15 111 45 170c29 57 65 106 110 148s96 85 153 127c-3 16 -8 46 -13 92c-4 43 -5 73 -5 89c0 117 16 172 69 257c34 54 64 82 89 82 c21 0 43 -30 69 -92s39 -115 41 -159v-15c0 -109 -21 -162 -67 -241c-13 -20 -63 -90 -98 -118c-13 -9 -25 -19 -37 -29l31 -181c8 1 18 2 28 2c58 0 102 -12 133 -35c59 -43 92 -104 98 -184c1 -7 1 -15 1 -22c0 -123 -87 -209 -181 -248c8 -57 17 -110 25 -162 c5 -31 6 -58 6 -80c0 -30 -5 -53 -14 -70c-35 -64 -88 -99 -158 -103c-5 0 -11 -1 -16 -1c-37 0 -72 10 -108 27c-50 24 -77 59 -80 105v11c0 29 7 55 20 76c18 28 45 42 79 44h6c49 0 93 -42 97 -87v-9c0 -51 -34 -86 -105 -106c17 -24 51 -36 102 -36c62 0 116 43 140 85 c9 16 13 41 13 74c0 20 -1 42 -5 67c-8 53 -18 106 -26 159zM461 939c-95 0 -135 -175 -135 -286c0 -24 2 -48 5 -71c50 39 92 82 127 128c40 53 60 100 60 140v8c-4 53 -22 81 -55 81h-2zM406 119l54 -326c73 25 110 78 110 161c0 7 0 15 -1 23c-7 95 -57 142 -151 142h-12 zM382 117c-72 -2 -128 -47 -128 -120v-7c2 -46 43 -99 75 -115c-3 -2 -7 -5 -10 -10c-70 33 -116 88 -123 172v11c0 68 44 126 88 159c23 17 49 29 78 36l-29 170c-21 -13 -52 -37 -92 -73c-50 -44 -86 -84 -109 -119c-45 -69 -67 -130 -67 -182v-13c5 -68 35 -127 93 -176 s125 -73 203 -73c25 0 50 3 75 9c-19 111 -36 221 -54 331z" />
      </g>
      <g id="E262-w1pzj77x">
         <path transform="scale(1,-1)" d="M136 186v169h17v-164l44 14v-91l-44 -14v-165l44 12v-91l-44 -13v-155h-17v150l-76 -22v-155h-17v149l-43 -13v90l43 14v167l-43 -14v92l43 13v169h17v-163zM60 73v-167l76 22v168z" />
      </g>
      <g id="E084-w1pzj77x">
         <path transform="scale(1,-1)" d="M20 -78c84 97 114 180 134 329h170c-13 -32 -82 -132 -99 -151l-84 -97c-33 -36 -59 -63 -80 -81h162v102l127 123v-225h57v-39h-57v-34c0 -43 19 -65 57 -65v-34h-244v36c48 0 60 26 60 70v27h-203v39z" />
      </g>
      <g id="E4E4-w1pzj77x">
         <path transform="scale(1,-1)" d="M0 10v105c0 9 1 10 10 10h280c9 0 10 -1 10 -10v-105c0 -9 -1 -10 -10 -10h-280c-9 0 -10 1 -10 10z" />
      </g>
      <g id="E0A3-w1pzj77x">
         <path transform="scale(1,-1)" d="M278 64c0 22 -17 39 -43 39c-12 0 -26 -3 -41 -10c-85 -43 -165 -94 -165 -156c5 -25 15 -32 49 -32c67 11 200 95 200 159zM0 -36c0 68 73 174 200 174c66 0 114 -39 114 -97c0 -84 -106 -173 -218 -173c-64 0 -96 32 -96 96z" />
      </g>
      <g id="E0A4-w1pzj77x">
         <path transform="scale(1,-1)" d="M0 -39c0 68 73 172 200 172c66 0 114 -37 114 -95c0 -84 -106 -171 -218 -171c-64 0 -96 30 -96 94z" />
      </g>
   </defs>
   <style type="text/css">#w1pzj77x g.ending, #w1pzj77x g.fing, #w1pzj77x g.reh, #w1pzj77x g.tempo {font-weight:bold;}#w1pzj77x g.dir, #w1pzj77x g.dynam, #w1pzj77x g.mNum {font-style:italic;}#w1pzj77x g.label {font-weight:normal;}#w1pzj77x ellipse, #w1pzj77x path, #w1pzj77x polygon, #w1pzj77x polyline, #w1pzj77x rect {stroke:currentColor}</style>
   <svg class="definition-scale" color="black" font-family="Times, serif" viewBox="0 0 14530 2620">
      <g class="page-margin" transform="translate(50, 50)">
         <g id="x13sq5mv" class="mdiv pageMilestone" />
         <g id="ydept3g" class="score pageMilestone" />
         <g id="po1qzwj" class="system">
            <g id="n135nrl" class="section systemMilestone" />
            <g id="o1qg5bng" class="measure">
               <g id="x1m6io82" class="staff">
                  <path d="M0 1269 L3717 1269" stroke-width="13" />
                  <path d="M0 1449 L3717 1449" stroke-width="13" />
                  <path d="M0 1629 L3717 1629" stroke-width="13" />
                  <path d="M0 1809 L3717 1809" stroke-width="13" />
                  <path d="M0 1989 L3717 1989" stroke-width="13" />
                  <g id="v1i9xobp" class="clef">
                     <use xlink:href="#E050-w1pzj77x" transform="translate(90, 1809) scale(0.72, 0.72)" />
                  </g>
                  <g id="w1tu93b9" class="keySig">
                     <g id="xao8wvj" class="keyAccid">
                        <use xlink:href="#E262-w1pzj77x" transform="translate(735, 1269) scale(0.72, 0.72)" />
                     </g>
                  </g>
                  <g id="yd6s4gn" class="meterSig">
                     <use xlink:href="#E084-w1pzj77x" transform="translate(1042, 1449) scale(0.72, 0.72)" />
                     <use xlink:href="#E084-w1pzj77x" transform="translate(1042, 1809) scale(0.72, 0.72)" />
                  </g>
                  <g id="y18okg25" class="layer">
                     <g id="zyouqc" class="rest">
                        <use xlink:href="#E4E4-w1pzj77x" transform="translate(1604, 1629) scale(0.72, 0.72)" />
                        <g class="ledgerLines" />
                     </g>
                     <g id="am6md09" class="note">
                        <g class="notehead">
                           <use xlink:href="#E0A3-w1pzj77x" transform="translate(2654, 1179) scale(0.72, 0.72)" />
                        </g>
                        <g id="r1nsh3dl" class="stem">
                           <path d="M2663 1204 L2663 1809" stroke-width="18" />
                        </g>
                     </g>
                  </g>
               </g>
               <g id="b19r5gzb" class="tempo">
                  <text x="1042" y="1141" font-size="0px">
                     <tspan id="cmsnom6" class="text">
                        <tspan font-size="405px">Grave</tspan>
                     </tspan>
                  </text>
               </g>
               <g id="v18ev4ek" class="tie">
                  <path d="M2925,1134 C3149,981 3624,981 3852,1134 C3611,1029 3162,1029 2925,1134" stroke-width="9" stroke-linecap="round" stroke-linejoin="round" />
               </g>
               <g id="w678mz1" class="barLine">
                  <path d="M3704 1269 L3704 1989" stroke-width="27" />
               </g>
            </g>
            <g id="d1gvb747" class="measure">
               <g id="m11wzk45" class="staff">
                  <path d="M3717 1269 L7478 1269" stroke-width="13" />
                  <path d="M3717 1449 L7478 1449" stroke-width="13" />
                  <path d="M3717 1629 L7478 1629" stroke-width="13" />
                  <path d="M3717 1809 L7478 1809" stroke-width="13" />
                  <path d="M3717 1989 L7478 1989" stroke-width="13" />
                  <g id="n1m9j6f1" class="layer">
                     <g id="oejl20s" class="beam">
                        <polygon points="3897,2034 4681,2034 4681,1944 3897,1944" />
                        <polygon points="4356,1899 4681,1899 4681,1809 4356,1809" />
                        <g id="p12nhke9" class="note">
                           <g class="notehead">
                              <use xlink:href="#E0A4-w1pzj77x" transform="translate(3897, 1179) scale(0.72, 0.72)" />
                           </g>
                           <g id="s1q3l1po" class="stem">
                              <path d="M3906 1207 L3906 2016" stroke-width="18" />
                           </g>
                        </g>
                        <g id="qd4zg9u" class="note">
                           <g class="notehead">
                              <use xlink:href="#E0A4-w1pzj77x" transform="translate(4347, 1449) scale(0.72, 0.72)" />
                           </g>
                           <g id="t1jzkdb8" class="stem">
                              <path d="M4356 1477 L4356 2016" stroke-width="18" />
                           </g>
                        </g>
                        <g id="rsf2hyz" class="note">
                           <g class="notehead">
                              <use xlink:href="#E0A4-w1pzj77x" transform="translate(4663, 1359) scale(0.72, 0.72)" />
                           </g>
                           <g id="uxsynty" class="stem">
                              <path d="M4672 1387 L4672 2016" stroke-width="18" />
                           </g>
                        </g>
                     </g>
                     <g id="s9fljdj" class="beam">
                        <polygon points="4979,2169 5577,2259 5577,2169 4979,2079" />
                        <polygon points="5351,2092 5577,2124 5577,2034 5351,2002" />
                        <g id="t1avtudj" class="note">
                           <g class="notehead">
                              <use xlink:href="#E0A4-w1pzj77x" transform="translate(4979, 1539) scale(0.72, 0.72)" />
                           </g>
                           <g id="ws18fgd" class="dots">
                              <ellipse cx="5295" cy="1539" rx="36" ry="36" />
                           </g>
                           <g id="v1stfql1" class="stem">
                              <path d="M4988 1567 L4988 2151" stroke-width="18" />
                           </g>
                        </g>
                        <g id="ul73cl0" class="note">
                           <g class="notehead">
                              <use xlink:href="#E0A4-w1pzj77x" transform="translate(5559, 1629) scale(0.72, 0.72)" />
                           </g>
                           <g id="x1oee7t9" class="stem">
                              <path d="M5568 1657 L5568 2241" stroke-width="18" />
                           </g>
                        </g>
                     </g>
                     <g id="vtp46lh" class="note">
                        <g class="notehead">
                           <use xlink:href="#E0A4-w1pzj77x" transform="translate(5875, 1629) scale(0.72, 0.72)" />
                        </g>
                        <g id="yt5rwos" class="stem">
                           <path d="M5884 1657 L5884 2229" stroke-width="18" />
                        </g>
                     </g>
                     <g id="w11hxirk" class="beam">
                        <polygon points="6565,2034 7033,2034 7033,1944 6565,1944" />
                        <g id="xzpeb7j" class="note">
                           <g class="notehead">
                              <use xlink:href="#E0A4-w1pzj77x" transform="translate(6565, 1449) scale(0.72, 0.72)" />
                           </g>
                           <g id="z1ij000o" class="stem">
                              <path d="M6574 1477 L6574 2016" stroke-width="18" />
                           </g>
                        </g>
                        <g id="y1uvz9vy" class="note">
                           <g class="notehead">
                              <use xlink:href="#E0A4-w1pzj77x" transform="translate(7015, 1449) scale(0.72, 0.72)" />
                           </g>
                           <g id="a1afqwgn" class="stem">
                              <path d="M7024 1477 L7024 2016" stroke-width="18" />
                           </g>
                        </g>
                     </g>
                  </g>
               </g>
               <g id="lzpdjez" class="barLine">
                  <path d="M7465 1269 L7465 1989" stroke-width="27" />
               </g>
            </g>
            <g id="zfjb9jy" class="measure">
               <g id="i16pkifw" class="staff">
                  <path d="M7478 1269 L11061 1269" stroke-width="13" />
                  <path d="M7478 1449 L11061 1449" stroke-width="13" />
                  <path d="M7478 1629 L11061 1629" stroke-width="13" />
                  <path d="M7478 1809 L11061 1809" stroke-width="13" />
                  <path d="M7478 1989 L11061 1989" stroke-width="13" />
                  <g id="jbnm0tl" class="layer">
                     <g id="kpqt0da" class="beam">
                        <polygon points="7658,2034 9026,2034 9026,1944 7658,1944" />
                        <g id="l7cpx2z" class="note">
                           <g class="notehead">
                              <use xlink:href="#E0A4-w1pzj77x" transform="translate(7658, 1359) scale(0.72, 0.72)" />
                           </g>
                           <g id="b1r10qkp" class="stem">
                              <path d="M7667 1387 L7667 2016" stroke-width="18" />
                           </g>
                        </g>
                        <g id="m194zeg9" class="note">
                           <g class="notehead">
                              <use xlink:href="#E0A4-w1pzj77x" transform="translate(8108, 1449) scale(0.72, 0.72)" />
                           </g>
                           <g id="c1pqollu" class="stem">
                              <path d="M8117 1477 L8117 2016" stroke-width="18" />
                           </g>
                        </g>
                        <g id="n1cgebq1" class="note">
                           <g class="notehead">
                              <use xlink:href="#E0A4-w1pzj77x" transform="translate(8558, 1359) scale(0.72, 0.72)" />
                           </g>
                           <g id="d17l3eqp" class="stem">
                              <path d="M8567 1387 L8567 2016" stroke-width="18" />
                           </g>
                        </g>
                        <g id="o2alai1" class="note">
                           <g class="notehead">
                              <use xlink:href="#E0A4-w1pzj77x" transform="translate(9008, 1449) scale(0.72, 0.72)" />
                           </g>
                           <g id="etvvit2" class="stem">
                              <path d="M9017 1477 L9017 2016" stroke-width="18" />
                           </g>
                        </g>
                     </g>
                     <g id="pm1le6k" class="note">
                        <g class="notehead">
                           <use xlink:href="#E0A4-w1pzj77x" transform="translate(9458, 1359) scale(0.72, 0.72)" />
                        </g>
                        <g id="fo1w1j" class="stem">
                           <path d="M9467 1387 L9467 1989" stroke-width="18" />
                        </g>
                     </g>
                     <g id="q11cdszi" class="beam">
                        <polygon points="10148,2124 10616,2079 10616,1989 10148,2034" />
                        <g id="rj76tdi" class="note">
                           <g class="notehead">
                              <use xlink:href="#E0A4-w1pzj77x" transform="translate(10148, 1449) scale(0.72, 0.72)" />
                           </g>
                           <g id="g125msif" class="stem">
                              <path d="M10157 1477 L10157 2106" stroke-width="18" />
                           </g>
                        </g>
                        <g id="s141a4f0" class="note">
                           <g class="notehead">
                              <use xlink:href="#E0A4-w1pzj77x" transform="translate(10598, 1179) scale(0.72, 0.72)" />
                           </g>
                           <g id="h12dnvsc" class="stem">
                              <path d="M10607 1207 L10607 2061" stroke-width="18" />
                           </g>
                        </g>
                     </g>
                  </g>
               </g>
               <g id="h1a6wfrz" class="barLine">
                  <path d="M11048 1269 L11048 1989" stroke-width="27" />
               </g>
            </g>
            <g id="taw15fn" class="measure">
               <g id="c7bq9l5" class="staff">
                  <path d="M11061 1269 L14434 1269" stroke-width="13" />
                  <path d="M11061 1449 L14434 1449" stroke-width="13" />
                  <path d="M11061 1629 L14434 1629" stroke-width="13" />
                  <path d="M11061 1809 L14434 1809" stroke-width="13" />
                  <path d="M11061 1989 L14434 1989" stroke-width="13" />
                  <g class="ledgerLines above">
                     <path d="M11193 1089 L11515 1089" stroke-width="22" />
                     <path d="M12093 1089 L12415 1089" stroke-width="22" />
                     <path d="M12993 1089 L13315 1089" stroke-width="22" />
                  </g>
                  <g id="d10owk9m" class="layer">
                     <g id="e5zv7pj" class="beam">
                        <polygon points="11241,1809 12609,1809 12609,1719 11241,1719" />
                        <g id="f1h4ts9s" class="note">
                           <g class="notehead">
                              <use xlink:href="#E0A4-w1pzj77x" transform="translate(11241, 1089) scale(0.72, 0.72)" />
                           </g>
                           <g id="i1b2sfai" class="stem">
                              <path d="M11250 1117 L11250 1791" stroke-width="18" />
                           </g>
                        </g>
                        <g id="g1n56vso" class="note">
                           <g class="notehead">
                              <use xlink:href="#E0A4-w1pzj77x" transform="translate(11691, 1179) scale(0.72, 0.72)" />
                           </g>
                           <g id="jy90td7" class="stem">
                              <path d="M11700 1207 L11700 1791" stroke-width="18" />
                           </g>
                        </g>
                        <g id="h6vpuju" class="note">
                           <g class="notehead">
                              <use xlink:href="#E0A4-w1pzj77x" transform="translate(12141, 1089) scale(0.72, 0.72)" />
                           </g>
                           <g id="k1yxhhq6" class="stem">
                              <path d="M12150 1117 L12150 1791" stroke-width="18" />
                           </g>
                        </g>
                        <g id="ieodz0f" class="note">
                           <g class="notehead">
                              <use xlink:href="#E0A4-w1pzj77x" transform="translate(12591, 1179) scale(0.72, 0.72)" />
                           </g>
                           <g id="l1g1hbov" class="stem">
                              <path d="M12600 1207 L12600 1791" stroke-width="18" />
                           </g>
                        </g>
                     </g>
                     <g id="j141q6o0" class="note">
                        <g class="notehead">
                           <use xlink:href="#E0A4-w1pzj77x" transform="translate(13041, 1089) scale(0.72, 0.72)" />
                        </g>
                        <g id="m1vjfxjd" class="stem">
                           <path d="M13050 1117 L13050 1719" stroke-width="18" />
                        </g>
                     </g>
                     <g id="k1iegwgc" class="note">
                        <g class="notehead">
                           <use xlink:href="#E0A4-w1pzj77x" transform="translate(13731, 1179) scale(0.72, 0.72)" />
                        </g>
                        <g id="nlqbwiq" class="stem">
                           <path d="M13740 1207 L13740 1809" stroke-width="18" />
                        </g>
                     </g>
                  </g>
               </g>
               <g id="b1u1uot1" class="barLine">
                  <path d="M14421 1269 L14421 1989" stroke-width="27" />
               </g>
            </g>
            <g id="s1uq59xo" class="systemMilestoneEnd n135nrl" />
         </g>
         <g id="tr1j4s7" class="pageMilestoneEnd ydept3g" />
         <g id="uou885k" class="pageMilestoneEnd x13sq5mv" />
         <g id="wjnn1ea" class="pgHead autogenerated">
            <text font-size="0px">
               <tspan id="x7mqdl5" class="rend" x="10450" y="417" text-anchor="middle">
                  <title class="labelAttr">title</title>
                  <tspan id="y1pgbr50" class="rend">
                     <tspan id="zef3gus" class="text">
                        <tspan font-size="607px">S2_M1_Vl1_RISM</tspan>
                     </tspan>
                  </tspan>
               </tspan>
            </text>
         </g>
      </g>
   </svg>
</svg>
