<?xml version="1.0" encoding="UTF-8" standalone="no"?>
<svg width="1241px" height="175px" version="1.1" xmlns="http://www.w3.org/2000/svg" xmlns:xlink="http://www.w3.org/1999/xlink" overflow="visible" id="s1yxh2pn">
   <desc>Engraved by Verovio 6.1.0[undefined]</desc>
   <defs>
      <g id="E050-s1yxh2pn">
         <path transform="scale(1,-1)" d="M441 -245c-23 -4 -48 -6 -76 -6c-59 0 -102 7 -130 20c-88 42 -150 93 -187 154c-26 44 -43 103 -48 176c0 6 -1 13 -1 19c0 54 15 111 45 170c29 57 65 106 110 148s96 85 153 127c-3 16 -8 46 -13 92c-4 43 -5 73 -5 89c0 117 16 172 69 257c34 54 64 82 89 82 c21 0 43 -30 69 -92s39 -115 41 -159v-15c0 -109 -21 -162 -67 -241c-13 -20 -63 -90 -98 -118c-13 -9 -25 -19 -37 -29l31 -181c8 1 18 2 28 2c58 0 102 -12 133 -35c59 -43 92 -104 98 -184c1 -7 1 -15 1 -22c0 -123 -87 -209 -181 -248c8 -57 17 -110 25 -162 c5 -31 6 -58 6 -80c0 -30 -5 -53 -14 -70c-35 -64 -88 -99 -158 -103c-5 0 -11 -1 -16 -1c-37 0 -72 10 -108 27c-50 24 -77 59 -80 105v11c0 29 7 55 20 76c18 28 45 42 79 44h6c49 0 93 -42 97 -87v-9c0 -51 -34 -86 -105 -106c17 -24 51 -36 102 -36c62 0 116 43 140 85 c9 16 13 41 13 74c0 20 -1 42 -5 67c-8 53 -18 106 -26 159zM461 939c-95 0 -135 -175 -135 -286c0 -24 2 -48 5 -71c50 39 92 82 127 128c40 53 60 100 60 140v8c-4 53 -22 81 -55 81h-2zM406 119l54 -326c73 25 110 78 110 161c0 7 0 15 -1 23c-7 95 -57 142 -151 142h-12 zM382 117c-72 -2 -128 -47 -128 -120v-7c2 -46 43 -99 75 -115c-3 -2 -7 -5 -10 -10c-70 33 -116 88 -123 172v11c0 68 44 126 88 159c23 17 49 29 78 36l-29 170c-21 -13 -52 -37 -92 -73c-50 -44 -86 -84 -109 -119c-45 -69 -67 -130 -67 -182v-13c5 -68 35 -127 93 -176 s125 -73 203 -73c25 0 50 3 75 9c-19 111 -36 221 -54 331z" />
      </g>
      <g id="E262-s1yxh2pn">
         <path transform="scale(1,-1)" d="M136 186v169h17v-164l44 14v-91l-44 -14v-165l44 12v-91l-44 -13v-155h-17v150l-76 -22v-155h-17v149l-43 -13v90l43 14v167l-43 -14v92l43 13v169h17v-163zM60 73v-167l76 22v168z" />
      </g>
      <g id="E084-s1yxh2pn">
         <path transform="scale(1,-1)" d="M20 -78c84 97 114 180 134 329h170c-13 -32 -82 -132 -99 -151l-84 -97c-33 -36 -59 -63 -80 -81h162v102l127 123v-225h57v-39h-57v-34c0 -43 19 -65 57 -65v-34h-244v36c48 0 60 26 60 70v27h-203v39z" />
      </g>
      <g id="E4E6-s1yxh2pn">
         <path transform="scale(1,-1)" d="M0 123c7 34 33 56 69 60c29 -3 43 -9 53 -29c4 -8 7 -15 10 -22c0 -21 -1 -25 -11 -35c-5 -8 -18 -14 -40 -20l12 -3l15 -1c44 0 97 26 122 56c10 11 18 26 24 42c7 1 15 2 22 3l-140 -424h-36l111 330c-10 -6 -27 -12 -53 -16l-52 -8h-10l-20 1c-1 0 -8 3 -21 6 c-37 9 -55 28 -55 60z" />
      </g>
      <g id="E0A4-s1yxh2pn">
         <path transform="scale(1,-1)" d="M0 -39c0 68 73 172 200 172c66 0 114 -37 114 -95c0 -84 -106 -171 -218 -171c-64 0 -96 30 -96 94z" />
      </g>
   </defs>
   <style type="text/css">#s1yxh2pn g.ending, #s1yxh2pn g.fing, #s1yxh2pn g.reh, #s1yxh2pn g.tempo {font-weight:bold;}#s1yxh2pn g.dir, #s1yxh2pn g.dynam, #s1yxh2pn g.mNum {font-style:italic;}#s1yxh2pn g.label {font-weight:normal;}#s1yxh2pn ellipse, #s1yxh2pn path, #s1yxh2pn polygon, #s1yxh2pn polyline, #s1yxh2pn rect {stroke:currentColor}</style>
   <svg class="definition-scale" color="black" font-family="Times, serif" viewBox="0 0 19080 2680">
      <g class="page-margin" transform="translate(50, 50)">
         <g id="t1gxv6b8" class="mdiv pageMilestone" />
         <g id="uwfapqq" class="score pageMilestone" />
         <g id="x93376i" class="system">
            <g id="j1w2ssa5" class="section systemMilestone" />
            <g id="k29rexb" class="measure">
               <g id="t1jewmsi" class="staff">
                  <path d="M0 1324 L5333 1324" stroke-width="13" />
                  <path d="M0 1504 L5333 1504" stroke-width="13" />
                  <path d="M0 1684 L5333 1684" stroke-width="13" />
                  <path d="M0 1864 L5333 1864" stroke-width="13" />
                  <path d="M0 2044 L5333 2044" stroke-width="13" />
                  <g id="z3kvdfv" class="clef">
                     <use xlink:href="#E050-s1yxh2pn" transform="translate(90, 1864) scale(0.72, 0.72)" />
                  </g>
                  <g id="a12orymd" class="keySig">
                     <g id="bshdloh" class="keyAccid">
                        <use xlink:href="#E262-s1yxh2pn" transform="translate(735, 1324) scale(0.72, 0.72)" />
                     </g>
                  </g>
                  <g id="c1gbce6w" class="meterSig">
                     <use xlink:href="#E084-s1yxh2pn" transform="translate(1042, 1504) scale(0.72, 0.72)" />
                     <use xlink:href="#E084-s1yxh2pn" transform="translate(1042, 1864) scale(0.72, 0.72)" />
                  </g>
                  <g id="u2owlcu" class="layer">
                     <g id="v1iuygwc" class="rest">
                        <use xlink:href="#E4E6-s1yxh2pn" transform="translate(1604, 1684) scale(0.72, 0.72)" />
                     </g>
                     <g id="woban9f" class="beam">
                        <polygon points="2054,1864 2972,1864 2972,1774 2054,1774" />
                        <g id="x2x3cwn" class="note">
                           <g class="notehead">
                              <use xlink:href="#E0A4-s1yxh2pn" transform="translate(2054, 1234) scale(0.72, 0.72)" />
                           </g>
                           <g id="ycs1vct" class="stem">
                              <path d="M2063 1262 L2063 1846" stroke-width="18" />
                           </g>
                        </g>
                        <g id="y11yjmd6" class="note">
                           <g class="notehead">
                              <use xlink:href="#E0A4-s1yxh2pn" transform="translate(2504, 1234) scale(0.72, 0.72)" />
                           </g>
                           <g id="zs8f865" class="stem">
                              <path d="M2513 1262 L2513 1846" stroke-width="18" />
                           </g>
                        </g>
                        <g id="zlxa88o" class="note">
                           <g class="notehead">
                              <use xlink:href="#E0A4-s1yxh2pn" transform="translate(2954, 1234) scale(0.72, 0.72)" />
                           </g>
                           <g id="a1jnufgf" class="stem">
                              <path d="M2963 1262 L2963 1846" stroke-width="18" />
                           </g>
                        </g>
                     </g>
                     <g id="afahsdy" class="note">
                        <g class="notehead">
                           <use xlink:href="#E0A4-s1yxh2pn" transform="translate(3404, 1234) scale(0.72, 0.72)" />
                        </g>
                        <g id="b16956ca" class="stem">
                           <path d="M3413 1262 L3413 1864" stroke-width="18" />
                        </g>
                     </g>
                     <g id="bqo8wy6" class="beam">
                        <polygon points="4094,2224 5008,2224 5008,2134 4094,2134" />
                        <polygon points="4683,2089 5008,2089 5008,1999 4683,1999" />
                        <polygon points="4683,1954 5008,1954 5008,1864 4683,1864" />
                        <g id="cve7umg" class="note">
                           <g class="notehead">
                              <use xlink:href="#E0A4-s1yxh2pn" transform="translate(4094, 1324) scale(0.72, 0.72)" />
                           </g>
                           <g id="d13e7zln" class="dots">
                              <ellipse cx="4410" cy="1234" rx="36" ry="36" />
                           </g>
                           <g id="c1jh5xn9" class="stem">
                              <path d="M4103 1352 L4103 2206" stroke-width="18" />
                           </g>
                           <g id="d1or3z3q" class="accid" />
                        </g>
                        <g id="e3sqehw" class="note">
                           <g class="notehead">
                              <use xlink:href="#E0A4-s1yxh2pn" transform="translate(4674, 1414) scale(0.72, 0.72)" />
                           </g>
                           <g id="e1s00hmb" class="stem">
                              <path d="M4683 1442 L4683 2206" stroke-width="18" />
                           </g>
                        </g>
                        <g id="fkrj0e3" class="note">
                           <g class="notehead">
                              <use xlink:href="#E0A4-s1yxh2pn" transform="translate(4990, 1324) scale(0.72, 0.72)" />
                           </g>
                           <g id="f1c2fowq" class="stem">
                              <path d="M4999 1352 L4999 2206" stroke-width="18" />
                           </g>
                           <g id="gt48za3" class="accid" />
                        </g>
                     </g>
                  </g>
               </g>
               <g id="hjpl29q" class="tempo">
                  <text x="1042" y="1009" font-size="0px">
                     <tspan id="i12qh83t" class="text">
                        <tspan font-size="405px">Allegro</tspan>
                     </tspan>
                  </text>
               </g>
               <g id="sv91jn4" class="barLine">
                  <path d="M5320 1324 L5320 2044" stroke-width="27" />
               </g>
            </g>
            <g id="j14941h0" class="measure">
               <g id="slguh2m" class="staff">
                  <path d="M5333 1324 L10232 1324" stroke-width="13" />
                  <path d="M5333 1504 L10232 1504" stroke-width="13" />
                  <path d="M5333 1684 L10232 1684" stroke-width="13" />
                  <path d="M5333 1864 L10232 1864" stroke-width="13" />
                  <path d="M5333 2044 L10232 2044" stroke-width="13" />
                  <g id="t6qr57g" class="layer">
                     <g id="u1q8e0l8" class="beam">
                        <polygon points="5513,1864 6297,1954 6297,1864 5513,1774" />
                        <polygon points="5972,1782 6297,1819 6297,1729 5972,1692" />
                        <g id="v44x1nr" class="note">
                           <g class="notehead">
                              <use xlink:href="#E0A4-s1yxh2pn" transform="translate(5513, 1234) scale(0.72, 0.72)" />
                           </g>
                           <g id="ghqhkg3" class="stem">
                              <path d="M5522 1262 L5522 1846" stroke-width="18" />
                           </g>
                        </g>
                        <g id="wbf11oe" class="note">
                           <g class="notehead">
                              <use xlink:href="#E0A4-s1yxh2pn" transform="translate(5963, 1234) scale(0.72, 0.72)" />
                           </g>
                           <g id="h7rv80j" class="stem">
                              <path d="M5972 1262 L5972 1899" stroke-width="18" />
                           </g>
                        </g>
                        <g id="x1j0w7b9" class="note">
                           <g class="notehead">
                              <use xlink:href="#E0A4-s1yxh2pn" transform="translate(6279, 1324) scale(0.72, 0.72)" />
                           </g>
                           <g id="i1l6opup" class="stem">
                              <path d="M6288 1352 L6288 1936" stroke-width="18" />
                           </g>
                           <g id="y1yyqqjy" class="accid" />
                        </g>
                     </g>
                     <g id="zx7hrti" class="beam">
                        <polygon points="6595,2134 7561,2314 7561,2224 6595,2044" />
                        <polygon points="6595,1999 6920,2059 6920,1969 6595,1909" />
                        <polygon points="6920,2059 7236,2119 7236,2029 6920,1969" />
                        <polygon points="7236,2119 7561,2179 7561,2089 7236,2029" />
                        <g id="a1facfa9" class="note">
                           <g class="notehead">
                              <use xlink:href="#E0A4-s1yxh2pn" transform="translate(6595, 1414) scale(0.72, 0.72)" />
                           </g>
                           <g id="j1n240sk" class="stem">
                              <path d="M6604 1442 L6604 2116" stroke-width="18" />
                           </g>
                        </g>
                        <g id="b2y375q" class="note">
                           <g class="notehead">
                              <use xlink:href="#E0A4-s1yxh2pn" transform="translate(6911, 1504) scale(0.72, 0.72)" />
                           </g>
                           <g id="kcrqear" class="stem">
                              <path d="M6920 1532 L6920 2176" stroke-width="18" />
                           </g>
                        </g>
                        <g id="c5616ew" class="note">
                           <g class="notehead">
                              <use xlink:href="#E0A4-s1yxh2pn" transform="translate(7227, 1594) scale(0.72, 0.72)" />
                           </g>
                           <g id="l1t6ct61" class="stem">
                              <path d="M7236 1622 L7236 2236" stroke-width="18" />
                           </g>
                        </g>
                        <g id="d1y49kh4" class="note">
                           <g class="notehead">
                              <use xlink:href="#E0A4-s1yxh2pn" transform="translate(7543, 1684) scale(0.72, 0.72)" />
                           </g>
                           <g id="mthjez9" class="stem">
                              <path d="M7552 1712 L7552 2296" stroke-width="18" />
                           </g>
                        </g>
                     </g>
                     <g id="ehxr67o" class="beam">
                        <polygon points="7859,2314 8643,2134 8643,2044 7859,2224" />
                        <polygon points="8318,2074 8643,1999 8643,1909 8318,1984" />
                        <g id="f1u2t67a" class="note">
                           <g class="notehead">
                              <use xlink:href="#E0A4-s1yxh2pn" transform="translate(7859, 1774) scale(0.72, 0.72)" />
                           </g>
                           <g id="n1i37xm3" class="stem">
                              <path d="M7868 1802 L7868 2296" stroke-width="18" />
                           </g>
                        </g>
                        <g id="g1incmlf" class="note">
                           <g class="notehead">
                              <use xlink:href="#E0A4-s1yxh2pn" transform="translate(8309, 1414) scale(0.72, 0.72)" />
                           </g>
                           <g id="o1sytni0" class="stem">
                              <path d="M8318 1442 L8318 2191" stroke-width="18" />
                           </g>
                        </g>
                        <g id="h1vkr6kc" class="note">
                           <g class="notehead">
                              <use xlink:href="#E0A4-s1yxh2pn" transform="translate(8625, 1504) scale(0.72, 0.72)" />
                           </g>
                           <g id="pv2fqti" class="stem">
                              <path d="M8634 1532 L8634 2116" stroke-width="18" />
                           </g>
                        </g>
                     </g>
                     <g id="iywx7s2" class="beam">
                        <polygon points="9149,964 10115,1144 10115,1234 9149,1054" />
                        <polygon points="9149,1099 9474,1159 9474,1249 9149,1189" />
                        <polygon points="9474,1159 9790,1219 9790,1309 9474,1249" />
                        <polygon points="9790,1219 10115,1279 10115,1369 9790,1309" />
                        <g id="jpyylb9" class="note">
                           <g class="notehead">
                              <use xlink:href="#E0A4-s1yxh2pn" transform="translate(8941, 1594) scale(0.72, 0.72)" />
                           </g>
                           <g id="q1acy6vo" class="stem">
                              <path d="M9158 1566 L9158 982" stroke-width="18" />
                           </g>
                        </g>
                        <g id="k117c20d" class="note">
                           <g class="notehead">
                              <use xlink:href="#E0A4-s1yxh2pn" transform="translate(9257, 1684) scale(0.72, 0.72)" />
                           </g>
                           <g id="r1gwgw55" class="stem">
                              <path d="M9474 1656 L9474 1042" stroke-width="18" />
                           </g>
                        </g>
                        <g id="l1w62bl3" class="note">
                           <g class="notehead">
                              <use xlink:href="#E0A4-s1yxh2pn" transform="translate(9573, 1774) scale(0.72, 0.72)" />
                           </g>
                           <g id="s1ojttzw" class="stem">
                              <path d="M9790 1746 L9790 1102" stroke-width="18" />
                           </g>
                        </g>
                        <g id="mvkfxeb" class="note">
                           <g class="notehead">
                              <use xlink:href="#E0A4-s1yxh2pn" transform="translate(9889, 1864) scale(0.72, 0.72)" />
                           </g>
                           <g id="tecal2i" class="stem">
                              <path d="M10106 1836 L10106 1162" stroke-width="18" />
                           </g>
                        </g>
                     </g>
                  </g>
               </g>
               <g id="r2h4t8i" class="barLine">
                  <path d="M10219 1324 L10219 2044" stroke-width="27" />
               </g>
            </g>
            <g id="n9vhe99" class="measure">
               <g id="w1pt2qqy" class="staff">
                  <path d="M10232 1324 L15495 1324" stroke-width="13" />
                  <path d="M10232 1504 L15495 1504" stroke-width="13" />
                  <path d="M10232 1684 L15495 1684" stroke-width="13" />
                  <path d="M10232 1864 L15495 1864" stroke-width="13" />
                  <path d="M10232 2044 L15495 2044" stroke-width="13" />
                  <g class="ledgerLines above">
                     <path d="M13524 1144 L13846 1144" stroke-width="22" />
                     <path d="M14472 1144 L14794 1144" stroke-width="22" />
                     <path d="M15104 1144 L15426 1144" stroke-width="22" />
                  </g>
                  <g id="x1axnh6t" class="layer">
                     <g id="y19xq42i" class="beam">
                        <polygon points="10412,2584 11378,2224 11378,2134 10412,2494" />
                        <polygon points="10412,2449 10737,2329 10737,2239 10412,2359" />
                        <polygon points="10737,2329 11053,2209 11053,2119 10737,2239" />
                        <polygon points="11053,2209 11378,2089 11378,1999 11053,2119" />
                        <g id="zgsv3oj" class="note">
                           <g class="notehead">
                              <use xlink:href="#E0A4-s1yxh2pn" transform="translate(10412, 1954) scale(0.72, 0.72)" />
                           </g>
                           <g id="u94yxon" class="stem">
                              <path d="M10421 1982 L10421 2566" stroke-width="18" />
                           </g>
                           <g id="a1s23q5w" class="accid" />
                        </g>
                        <g id="b1os6yd2" class="note">
                           <g class="notehead">
                              <use xlink:href="#E0A4-s1yxh2pn" transform="translate(10728, 1324) scale(0.72, 0.72)" />
                           </g>
                           <g id="v5pv54p" class="stem">
                              <path d="M10737 1352 L10737 2446" stroke-width="18" />
                           </g>
                           <g id="c1yr5j84" class="accid" />
                        </g>
                        <g id="d1rqq0le" class="note">
                           <g class="notehead">
                              <use xlink:href="#E0A4-s1yxh2pn" transform="translate(11044, 1414) scale(0.72, 0.72)" />
                           </g>
                           <g id="wzxm3z7" class="stem">
                              <path d="M11053 1442 L11053 2326" stroke-width="18" />
                           </g>
                        </g>
                        <g id="ev1l6zv" class="note">
                           <g class="notehead">
                              <use xlink:href="#E0A4-s1yxh2pn" transform="translate(11360, 1324) scale(0.72, 0.72)" />
                           </g>
                           <g id="x1e1ccgv" class="stem">
                              <path d="M11369 1352 L11369 2206" stroke-width="18" />
                           </g>
                           <g id="fux5yr0" class="accid" />
                        </g>
                     </g>
                     <g id="g1djcm3n" class="beam">
                        <polygon points="11676,2404 12642,2044 12642,1954 11676,2314" />
                        <polygon points="11676,2269 12001,2149 12001,2059 11676,2179" />
                        <polygon points="12001,2149 12317,2029 12317,1939 12001,2059" />
                        <polygon points="12317,2029 12642,1909 12642,1819 12317,1939" />
                        <g id="h57mu2c" class="note">
                           <g class="notehead">
                              <use xlink:href="#E0A4-s1yxh2pn" transform="translate(11676, 1774) scale(0.72, 0.72)" />
                           </g>
                           <g id="y1nqvh82" class="stem">
                              <path d="M11685 1802 L11685 2386" stroke-width="18" />
                           </g>
                        </g>
                        <g id="ipevlfg" class="note">
                           <g class="notehead">
                              <use xlink:href="#E0A4-s1yxh2pn" transform="translate(11992, 1324) scale(0.72, 0.72)" />
                           </g>
                           <g id="zpxr2wg" class="stem">
                              <path d="M12001 1352 L12001 2266" stroke-width="18" />
                           </g>
                           <g id="jfqgj8g" class="accid" />
                        </g>
                        <g id="ki7hik2" class="note">
                           <g class="notehead">
                              <use xlink:href="#E0A4-s1yxh2pn" transform="translate(12308, 1414) scale(0.72, 0.72)" />
                           </g>
                           <g id="a1jhcf6q" class="stem">
                              <path d="M12317 1442 L12317 2146" stroke-width="18" />
                           </g>
                        </g>
                        <g id="l31mi4t" class="note">
                           <g class="notehead">
                              <use xlink:href="#E0A4-s1yxh2pn" transform="translate(12624, 1324) scale(0.72, 0.72)" />
                           </g>
                           <g id="b1c8kwhf" class="stem">
                              <path d="M12633 1352 L12633 2026" stroke-width="18" />
                           </g>
                           <g id="mjm1198" class="accid" />
                        </g>
                     </g>
                     <g id="n1np0wap" class="beam">
                        <polygon points="12940,1864 13906,1864 13906,1774 12940,1774" />
                        <polygon points="12940,1729 13265,1729 13265,1639 12940,1639" />
                        <polygon points="13265,1729 13581,1729 13581,1639 13265,1639" />
                        <polygon points="13581,1729 13906,1729 13906,1639 13581,1639" />
                        <g id="o1tq87yw" class="note">
                           <g class="notehead">
                              <use xlink:href="#E0A4-s1yxh2pn" transform="translate(12940, 1234) scale(0.72, 0.72)" />
                           </g>
                           <g id="c1k1uc5e" class="stem">
                              <path d="M12949 1262 L12949 1846" stroke-width="18" />
                           </g>
                        </g>
                        <g id="p1wvgy1t" class="note">
                           <g class="notehead">
                              <use xlink:href="#E0A4-s1yxh2pn" transform="translate(13256, 1234) scale(0.72, 0.72)" />
                           </g>
                           <g id="d1uh3gf8" class="stem">
                              <path d="M13265 1262 L13265 1846" stroke-width="18" />
                           </g>
                        </g>
                        <g id="q1nss7mx" class="note">
                           <g class="notehead">
                              <use xlink:href="#E0A4-s1yxh2pn" transform="translate(13572, 1054) scale(0.72, 0.72)" />
                           </g>
                           <g id="e4ianqo" class="stem">
                              <path d="M13581 1082 L13581 1846" stroke-width="18" />
                           </g>
                        </g>
                        <g id="r1gl9g3m" class="note">
                           <g class="notehead">
                              <use xlink:href="#E0A4-s1yxh2pn" transform="translate(13888, 1234) scale(0.72, 0.72)" />
                           </g>
                           <g id="f1auid13" class="stem">
                              <path d="M13897 1262 L13897 1846" stroke-width="18" />
                           </g>
                        </g>
                     </g>
                     <g id="s16013hp" class="beam">
                        <polygon points="14204,2044 15170,1864 15170,1774 14204,1954" />
                        <polygon points="14204,1909 14529,1849 14529,1759 14204,1819" />
                        <polygon points="14529,1849 14845,1789 14845,1699 14529,1759" />
                        <polygon points="14845,1789 15170,1729 15170,1639 14845,1699" />
                        <g id="tzzv6as" class="note">
                           <g class="notehead">
                              <use xlink:href="#E0A4-s1yxh2pn" transform="translate(14204, 1414) scale(0.72, 0.72)" />
                           </g>
                           <g id="g4u2eh6" class="stem">
                              <path d="M14213 1442 L14213 2026" stroke-width="18" />
                           </g>
                        </g>
                        <g id="u1upmt8k" class="note">
                           <g class="notehead">
                              <use xlink:href="#E0A4-s1yxh2pn" transform="translate(14520, 1144) scale(0.72, 0.72)" />
                           </g>
                           <g id="h1jphee0" class="stem">
                              <path d="M14529 1172 L14529 1966" stroke-width="18" />
                           </g>
                        </g>
                        <g id="v1hqg3qe" class="note">
                           <g class="notehead">
                              <use xlink:href="#E0A4-s1yxh2pn" transform="translate(14836, 1234) scale(0.72, 0.72)" />
                           </g>
                           <g id="i445zx9" class="stem">
                              <path d="M14845 1262 L14845 1906" stroke-width="18" />
                           </g>
                        </g>
                        <g id="w1p1rmx2" class="note">
                           <g class="notehead">
                              <use xlink:href="#E0A4-s1yxh2pn" transform="translate(15152, 1144) scale(0.72, 0.72)" />
                           </g>
                           <g id="j1o5no9k" class="stem">
                              <path d="M15161 1172 L15161 1846" stroke-width="18" />
                           </g>
                        </g>
                     </g>
                  </g>
               </g>
               <g id="v1h91211" class="barLine">
                  <path d="M15482 1324 L15482 2044" stroke-width="27" />
               </g>
            </g>
            <g id="x1y8unu9" class="measure">
               <g id="g18xz2j8" class="staff">
                  <path d="M15495 1324 L18986 1324" stroke-width="13" />
                  <path d="M15495 1504 L18986 1504" stroke-width="13" />
                  <path d="M15495 1684 L18986 1684" stroke-width="13" />
                  <path d="M15495 1864 L18986 1864" stroke-width="13" />
                  <path d="M15495 2044 L18986 2044" stroke-width="13" />
                  <g class="ledgerLines above">
                     <path d="M16317 1144 L16639 1144" stroke-width="22" />
                     <path d="M17197 1144 L17519 1144" stroke-width="22" />
                     <path d="M17829 1144 L18151 1144" stroke-width="22" />
                  </g>
                  <g id="h14ynolf" class="layer">
                     <g id="iphtpz6" class="note">
                        <g class="notehead">
                           <use xlink:href="#E0A4-s1yxh2pn" transform="translate(15675, 1324) scale(0.72, 0.72)" />
                        </g>
                        <g id="kqs5k5y" class="stem">
                           <path d="M15684 1352 L15684 1954" stroke-width="18" />
                        </g>
                        <g id="j5dy5kn" class="accid" />
                     </g>
                     <g id="k5atmnk" class="note">
                        <g class="notehead">
                           <use xlink:href="#E0A4-s1yxh2pn" transform="translate(16365, 1054) scale(0.72, 0.72)" />
                        </g>
                        <g id="m1q8vrlu" class="dots">
                           <ellipse cx="16681" cy="1054" rx="36" ry="36" />
                        </g>
                        <g id="l1pgde5t" class="stem">
                           <path d="M16374 1082 L16374 1684" stroke-width="18" />
                        </g>
                     </g>
                     <g id="l1dcpwf2" class="beam">
                        <polygon points="17245,1864 17579,1909 17579,1819 17245,1774" />
                        <polygon points="17245,1729 17579,1774 17579,1684 17245,1639" />
                        <g id="m1mcqs9t" class="note">
                           <g class="notehead">
                              <use xlink:href="#E0A4-s1yxh2pn" transform="translate(17245, 1144) scale(0.72, 0.72)" />
                           </g>
                           <g id="n19i3qcv" class="stem">
                              <path d="M17254 1172 L17254 1846" stroke-width="18" />
                           </g>
                        </g>
                        <g id="n8p25un" class="note">
                           <g class="notehead">
                              <use xlink:href="#E0A4-s1yxh2pn" transform="translate(17561, 1234) scale(0.72, 0.72)" />
                           </g>
                           <g id="o1566g0s" class="stem">
                              <path d="M17570 1262 L17570 1891" stroke-width="18" />
                           </g>
                        </g>
                     </g>
                     <g id="o13d867i" class="beam">
                        <polygon points="17877,1729 18661,1909 18661,1819 17877,1639" />
                        <polygon points="18336,1700 18661,1774 18661,1684 18336,1610" />
                        <g id="pp8flsj" class="note">
                           <g class="notehead">
                              <use xlink:href="#E0A4-s1yxh2pn" transform="translate(17877, 1144) scale(0.72, 0.72)" />
                           </g>
                           <g id="pwaiul6" class="stem">
                              <path d="M17886 1172 L17886 1711" stroke-width="18" />
                           </g>
                        </g>
                        <g id="q4pyf2i" class="note">
                           <g class="notehead">
                              <use xlink:href="#E0A4-s1yxh2pn" transform="translate(18327, 1234) scale(0.72, 0.72)" />
                           </g>
                           <g id="q1pafn8b" class="stem">
                              <path d="M18336 1262 L18336 1817" stroke-width="18" />
                           </g>
                        </g>
                        <g id="r18d1al6" class="note">
                           <g class="notehead">
                              <use xlink:href="#E0A4-s1yxh2pn" transform="translate(18643, 1324) scale(0.72, 0.72)" />
                           </g>
                           <g id="r398ytm" class="stem">
                              <path d="M18652 1352 L18652 1891" stroke-width="18" />
                           </g>
                           <g id="s1q1hq3r" class="accid" />
                        </g>
                     </g>
                  </g>
               </g>
               <g id="f1k0mh9m" class="barLine">
                  <path d="M18973 1324 L18973 2044" stroke-width="27" />
               </g>
            </g>
            <g id="ajaekdk" class="systemMilestoneEnd j1w2ssa5" />
         </g>
         <g id="bxcn8f4" class="pageMilestoneEnd uwfapqq" />
         <g id="c6cejpl" class="pageMilestoneEnd t1gxv6b8" />
         <g id="d1avb4y5" class="pgHead autogenerated">
            <text font-size="0px">
               <tspan id="e1aaiion" class="rend" x="10450" y="417" text-anchor="middle">
                  <title class="labelAttr">title</title>
                  <tspan id="f1wjjxyz" class="rend">
                     <tspan id="g1ahbl5e" class="text">
                        <tspan font-size="607px">S2_M2_Vl1_RISM</tspan>
                     </tspan>
                  </tspan>
               </tspan>
            </text>
         </g>
      </g>
   </svg>
</svg>
