<?xml version="1.0" encoding="UTF-8" standalone="no"?>
<svg width="808px" height="124px" version="1.1" xmlns="http://www.w3.org/2000/svg" xmlns:xlink="http://www.w3.org/1999/xlink" overflow="visible" id="m1p44bc9">
   <desc>Engraved by Verovio 6.1.0[undefined]</desc>
   <defs>
      <g id="E050-m1p44bc9">
         <path transform="scale(1,-1)" d="M441 -245c-23 -4 -48 -6 -76 -6c-59 0 -102 7 -130 20c-88 42 -150 93 -187 154c-26 44 -43 103 -48 176c0 6 -1 13 -1 19c0 54 15 111 45 170c29 57 65 106 110 148s96 85 153 127c-3 16 -8 46 -13 92c-4 43 -5 73 -5 89c0 117 16 172 69 257c34 54 64 82 89 82 c21 0 43 -30 69 -92s39 -115 41 -159v-15c0 -109 -21 -162 -67 -241c-13 -20 -63 -90 -98 -118c-13 -9 -25 -19 -37 -29l31 -181c8 1 18 2 28 2c58 0 102 -12 133 -35c59 -43 92 -104 98 -184c1 -7 1 -15 1 -22c0 -123 -87 -209 -181 -248c8 -57 17 -110 25 -162 c5 -31 6 -58 6 -80c0 -30 -5 -53 -14 -70c-35 -64 -88 -99 -158 -103c-5 0 -11 -1 -16 -1c-37 0 -72 10 -108 27c-50 24 -77 59 -80 105v11c0 29 7 55 20 76c18 28 45 42 79 44h6c49 0 93 -42 97 -87v-9c0 -51 -34 -86 -105 -106c17 -24 51 -36 102 -36c62 0 116 43 140 85 c9 16 13 41 13 74c0 20 -1 42 -5 67c-8 53 -18 106 -26 159zM461 939c-95 0 -135 -175 -135 -286c0 -24 2 -48 5 -71c50 39 92 82 127 128c40 53 60 100 60 140v8c-4 53 -22 81 -55 81h-2zM406 119l54 -326c73 25 110 78 110 161c0 7 0 15 -1 23c-7 95 -57 142 -151 142h-12 zM382 117c-72 -2 -128 -47 -128 -120v-7c2 -46 43 -99 75 -115c-3 -2 -7 -5 -10 -10c-70 33 -116 88 -123 172v11c0 68 44 126 88 159c23 17 49 29 78 36l-29 170c-21 -13 -52 -37 -92 -73c-50 -44 -86 -84 -109 -119c-45 -69 -67 -130 -67 -182v-13c5 -68 35 -127 93 -176 s125 -73 203 -73c25 0 50 3 75 9c-19 111 -36 221 -54 331z" />
      </g>
      <g id="E262-m1p44bc9">
         <path transform="scale(1,-1)" d="M136 186v169h17v-164l44 14v-91l-44 -14v-165l44 12v-91l-44 -13v-155h-17v150l-76 -22v-155h-17v149l-43 -13v90l43 14v167l-43 -14v92l43 13v169h17v-163zM60 73v-167l76 22v168z" />
      </g>
      <g id="E083-m1p44bc9">
         <path transform="scale(1,-1)" d="M208 250c97 0 177 -52 177 -116c0 -69 -40 -111 -118 -125c56 -5 125 -44 125 -116c0 -31 -10 -57 -31 -78c-19 -21 -45 -38 -78 -49l-50 -11c-15 -3 -36 -7 -55 -7c-50 0 -86 16 -113 38c-16 10 -23 18 -34 34c-7 13 -11 25 -11 38c0 43 27 83 68 83l3 -2 c61 0 75 -42 75 -70c0 -19 -24 -42 -26 -57c7 -17 20 -25 37 -25c44 0 94 29 94 78c0 75 -34 125 -138 125v36c84 0 131 22 131 98c0 54 -37 88 -87 88c-26 0 -43 -7 -51 -22c15 -22 44 -16 44 -70c0 -37 -37 -62 -71 -62c-22 0 -69 15 -69 76c0 79 101 116 178 116z" />
      </g>
      <g id="E082-m1p44bc9">
         <path transform="scale(1,-1)" d="M124 -185c-18 0 -55 -14 -65 -65h-36l-3 30c0 25 6 45 18 63c11 19 22 30 39 43l121 82l37 29c15 11 27 29 38 54c12 24 18 47 18 70c0 40 -19 88 -94 88c-25 0 -32 0 -50 -8c-14 -5 -23 -12 -26 -22c3 -9 7 -15 10 -18l24 -17c12 -7 17 -11 27 -21c5 -7 7 -16 7 -27 c0 -12 0 -57 -79 -74c-30 0 -76 26 -76 94c0 66 81 135 197 135c72 0 181 -32 181 -150c0 -53 -32 -95 -113 -133l-91 -41c-26 -11 -45 -23 -57 -37l49 7c84 0 115 -41 148 -41c20 0 33 20 39 61h35c0 -152 -68 -168 -114 -168c-17 0 -65 0 -79 7h10l-28 17 c-49 37 -69 40 -87 42z" />
      </g>
      <g id="E0A2-m1p44bc9">
         <path transform="scale(1,-1)" d="M198 133c102 0 207 -45 207 -133c0 -92 -118 -133 -227 -133c-101 0 -178 46 -178 133c0 88 93 133 198 133zM293 -21c0 14 -3 29 -8 44c-7 20 -18 38 -33 54c-20 21 -43 31 -68 31l-20 -2c-15 -5 -27 -14 -36 -28c-4 -9 -6 -17 -8 -24s-3 -16 -3 -27c0 -15 3 -34 9 -57 s18 -41 34 -55c15 -15 36 -23 62 -23c4 0 10 1 18 2c19 5 32 15 40 30s13 34 13 55z" />
      </g>
      <g id="E0A3-m1p44bc9">
         <path transform="scale(1,-1)" d="M278 64c0 22 -17 39 -43 39c-12 0 -26 -3 -41 -10c-85 -43 -165 -94 -165 -156c5 -25 15 -32 49 -32c67 11 200 95 200 159zM0 -36c0 68 73 174 200 174c66 0 114 -39 114 -97c0 -84 -106 -173 -218 -173c-64 0 -96 32 -96 96z" />
      </g>
      <g id="E0A4-m1p44bc9">
         <path transform="scale(1,-1)" d="M0 -39c0 68 73 172 200 172c66 0 114 -37 114 -95c0 -84 -106 -171 -218 -171c-64 0 -96 30 -96 94z" />
      </g>
   </defs>
   <style type="text/css">#m1p44bc9 g.ending, #m1p44bc9 g.fing, #m1p44bc9 g.reh, #m1p44bc9 g.tempo {font-weight:bold;}#m1p44bc9 g.dir, #m1p44bc9 g.dynam, #m1p44bc9 g.mNum {font-style:italic;}#m1p44bc9 g.label {font-weight:normal;}#m1p44bc9 ellipse, #m1p44bc9 path, #m1p44bc9 polygon, #m1p44bc9 polyline, #m1p44bc9 rect {stroke:currentColor}</style>
   <svg class="definition-scale" color="black" font-family="Times, serif" viewBox="0 0 12430 1900">
      <g class="page-margin" transform="translate(50, 50)">
         <g id="npvjc73" class="mdiv pageMilestone" />
         <g id="onmn630" class="score pageMilestone" />
         <g id="mcap17r" class="system">
            <g id="d1pliqlv" class="section systemMilestone" />
            <g id="e1pwvrqv" class="measure">
               <g id="n4two9g" class="staff">
                  <path d="M0 540 L3668 540" stroke-width="13" />
                  <path d="M0 720 L3668 720" stroke-width="13" />
                  <path d="M0 900 L3668 900" stroke-width="13" />
                  <path d="M0 1080 L3668 1080" stroke-width="13" />
                  <path d="M0 1260 L3668 1260" stroke-width="13" />
                  <g id="c1fn65og" class="clef">
                     <use xlink:href="#E050-m1p44bc9" transform="translate(90, 1080) scale(0.72, 0.72)" />
                  </g>
                  <g id="dyic3pj" class="keySig">
                     <g id="eu9zatc" class="keyAccid">
                        <use xlink:href="#E262-m1p44bc9" transform="translate(735, 540) scale(0.72, 0.72)" />
                     </g>
                  </g>
                  <g id="f1wzy6st" class="meterSig">
                     <use xlink:href="#E083-m1p44bc9" transform="translate(1053, 720) scale(0.72, 0.72)" />
                     <use xlink:href="#E082-m1p44bc9" transform="translate(1042, 1080) scale(0.72, 0.72)" />
                  </g>
                  <g id="ofichc0" class="layer">
                     <g id="p1j1smlc" class="note">
                        <g class="notehead">
                           <use xlink:href="#E0A2-m1p44bc9" transform="translate(1615, 630) scale(0.72, 0.72)" />
                        </g>
                        <g id="le1c16w" class="dots">
                           <ellipse cx="1995" cy="630" rx="36" ry="36" />
                        </g>
                     </g>
                  </g>
               </g>
               <g id="q3tamta" class="tempo">
                  <text x="1042" y="411" font-size="0px">
                     <tspan id="rd54hw5" class="text">
                        <tspan font-size="405px">Grave / Adagio</tspan>
                     </tspan>
                  </text>
               </g>
               <g id="m14dooz9" class="barLine">
                  <path d="M3655 540 L3655 1260" stroke-width="27" />
               </g>
            </g>
            <g id="s12jywzf" class="measure">
               <g id="bplvc82" class="staff">
                  <path d="M3668 540 L5901 540" stroke-width="13" />
                  <path d="M3668 720 L5901 720" stroke-width="13" />
                  <path d="M3668 900 L5901 900" stroke-width="13" />
                  <path d="M3668 1080 L5901 1080" stroke-width="13" />
                  <path d="M3668 1260 L5901 1260" stroke-width="13" />
                  <g id="c14ysw2n" class="layer">
                     <g id="da1gmz7" class="note">
                        <g class="notehead">
                           <use xlink:href="#E0A2-m1p44bc9" transform="translate(3848, 540) scale(0.72, 0.72)" />
                        </g>
                        <g id="n8rhpwl" class="dots">
                           <ellipse cx="4228" cy="450" rx="36" ry="36" />
                        </g>
                        <g id="e1259s08" class="accid" />
                     </g>
                  </g>
               </g>
               <g id="a8el7kr" class="barLine">
                  <path d="M5888 540 L5888 1260" stroke-width="27" />
               </g>
            </g>
            <g id="fxs4ng" class="measure">
               <g id="o1eg4nde" class="staff">
                  <path d="M5901 540 L9174 540" stroke-width="13" />
                  <path d="M5901 720 L9174 720" stroke-width="13" />
                  <path d="M5901 900 L9174 900" stroke-width="13" />
                  <path d="M5901 1080 L9174 1080" stroke-width="13" />
                  <path d="M5901 1260 L9174 1260" stroke-width="13" />
                  <g class="ledgerLines above">
                     <path d="M8423 360 L8745 360" stroke-width="22" />
                  </g>
                  <g id="p1q5t0mx" class="layer">
                     <g id="qj2ixij" class="note">
                        <g class="notehead">
                           <use xlink:href="#E0A3-m1p44bc9" transform="translate(6081, 450) scale(0.72, 0.72)" />
                        </g>
                        <g id="o1arl6m6" class="stem">
                           <path d="M6090 475 L6090 1080" stroke-width="18" />
                        </g>
                     </g>
                     <g id="r16go8ck" class="note">
                        <g class="notehead">
                           <use xlink:href="#E0A3-m1p44bc9" transform="translate(7131, 450) scale(0.72, 0.72)" />
                        </g>
                        <g id="q1dcjb6p" class="dots">
                           <ellipse cx="7447" cy="450" rx="36" ry="36" />
                        </g>
                        <g id="p1kuaga0" class="stem">
                           <path d="M7140 475 L7140 1080" stroke-width="18" />
                        </g>
                        <g id="s10m8cto" class="accid">
                           <use xlink:href="#E262-m1p44bc9" transform="translate(6945, 450) scale(0.72, 0.72)" />
                        </g>
                     </g>
                     <g id="t1f5r25w" class="note">
                        <g class="notehead">
                           <use xlink:href="#E0A4-m1p44bc9" transform="translate(8471, 360) scale(0.72, 0.72)" />
                        </g>
                        <g id="r1snavcb" class="stem">
                           <path d="M8480 388 L8480 990" stroke-width="18" />
                        </g>
                     </g>
                  </g>
               </g>
               <g id="n1o9bm21" class="barLine">
                  <path d="M9161 540 L9161 1260" stroke-width="27" />
               </g>
            </g>
            <g id="u1junpx7" class="measure">
               <g id="d1efob9z" class="staff">
                  <path d="M9174 540 L12337 540" stroke-width="13" />
                  <path d="M9174 720 L12337 720" stroke-width="13" />
                  <path d="M9174 900 L12337 900" stroke-width="13" />
                  <path d="M9174 1080 L12337 1080" stroke-width="13" />
                  <path d="M9174 1260 L12337 1260" stroke-width="13" />
                  <g class="ledgerLines above">
                     <path d="M9306 360 L9692 360" stroke-width="22" />
                     <path d="M10896 360 L11218 360" stroke-width="22" />
                     <path d="M11586 360 L11908 360" stroke-width="22" />
                     <path d="M11586 180 L11908 180" stroke-width="22" />
                  </g>
                  <g id="eemk2w2" class="layer">
                     <g id="fyflt96" class="note">
                        <g class="notehead">
                           <use xlink:href="#E0A2-m1p44bc9" transform="translate(9354, 360) scale(0.72, 0.72)" />
                        </g>
                     </g>
                     <g id="g1t4oz78" class="note">
                        <g class="notehead">
                           <use xlink:href="#E0A4-m1p44bc9" transform="translate(10944, 270) scale(0.72, 0.72)" />
                        </g>
                        <g id="trvh7uk" class="stem">
                           <path d="M10953 298 L10953 900" stroke-width="18" />
                        </g>
                     </g>
                     <g id="h1vfv9fn" class="note">
                        <g class="notehead">
                           <use xlink:href="#E0A4-m1p44bc9" transform="translate(11634, 180) scale(0.72, 0.72)" />
                        </g>
                        <g id="u3hz7k0" class="stem">
                           <path d="M11643 208 L11643 900" stroke-width="18" />
                        </g>
                     </g>
                  </g>
               </g>
               <g id="cjrbh7g" class="barLine">
                  <path d="M12324 540 L12324 1260" stroke-width="27" />
               </g>
            </g>
            <g id="psvafz4" class="systemMilestoneEnd d1pliqlv" />
         </g>
         <g id="q1bzu8kt" class="pageMilestoneEnd onmn630" />
         <g id="rx5x6mp" class="pageMilestoneEnd npvjc73" />
         <g id="s1o6q536" class="pgHead autogenerated" />
      </g>
   </svg>
</svg>
